<?xml version="1.0" standalone="no"?>
<!DOCTYPE svg PUBLIC "-//W3C//DTD SVG 1.1//EN" "http://www.w3.org/Graphics/SVG/1.1/DTD/svg11.dtd" >
<svg xmlns="http://www.w3.org/2000/svg" xmlns:xlink="http://www.w3.org/1999/xlink" version="1.1">
<metadata></metadata>
<defs>
<font id="love_story_roughregular" horiz-adv-x="983" >
<font-face units-per-em="2048" ascent="1638" descent="-410" />
<missing-glyph horiz-adv-x="409" />
<glyph horiz-adv-x="0" />
<glyph unicode="&#xd;" horiz-adv-x="409" />
<glyph horiz-adv-x="0" />
<glyph horiz-adv-x="0" />
<glyph unicode=" "  horiz-adv-x="409" />
<glyph unicode="&#x09;" horiz-adv-x="409" />
<glyph unicode="&#xa0;" horiz-adv-x="409" />
<glyph unicode="!" horiz-adv-x="296" d="M184 -45q0 -12 -10 -16.5t-20 -4.5q-27 0 -54.5 8.5t-49 24t-36 39t-14.5 51.5v74q0 29 5 58.5t9 58.5q4 8 8.5 13t14.5 5q20 0 44.5 -10t35.5 -29v-2q8 -10 19 -48t21.5 -82t18.5 -84t8 -56zM61 74v2q0 43 -6 84q-2 10 0 21.5t2 21.5q0 2 1 7t-3 5h-2q-2 0 -2 -4v-2 q-8 -20 -8 -33v-39q4 0 3 -6t1 -8q2 -12 4 -22.5t6 -20.5l2 -6h2zM70 2q0 2 -2 18.5t-7 16.5h-4l-2 -2v-17q0 -4 3 -11t8 -7h4v2zM231 369q0 -23 -6 -34t-30 -11q-72 0 -113 33.5t-41 101.5q0 152 -20.5 300t-20.5 300v54t4 71t14.5 61.5t32.5 26.5q12 0 38 -7.5t52.5 -18.5 t46 -25.5t19.5 -28.5q0 -47 -8.5 -96t-8.5 -99q0 -160 20.5 -314t20.5 -314zM104 590q0 147 -21.5 292.5t-21.5 295.5v8l-2 -2q-8 -29 -12 -54.5t-4 -54.5v-69q0 -88 16.5 -173t26.5 -174l12 -94q2 -6 2 -10t2 -10v-2l2 2v45zM129 788v3l-2 12v4l-4 20l-8 60l-11 84 q-4 16 -6 33.5t-2 33.5l-4 17v-2l-2 -11q-4 -14 -2 -32.5t2 -32.5q0 -16 2 -36.5t6 -37.5l2 -2q0 -6 4.5 -23.5t8.5 -36t8 -34.5t8 -23h2z" />
<glyph unicode="&#x22;" horiz-adv-x="516" d="M420 1348q16 -35 21 -64t5 -70q0 -23 -6 -65.5t-20 -83.5t-38 -69.5t-56 -24.5l-13 -2q-23 0 -57.5 18.5t-44.5 38.5q-6 -16 -14.5 -39.5t-18.5 -46t-24.5 -39t-34.5 -16.5q-12 0 -34 7t-41 18.5t-33.5 25.5t-14.5 29q0 14 12 36.5t19 34.5q29 57 46 125t33 129l5.5 27.5 t8.5 35t11 31t19 13.5q31 0 51 -12.5t30.5 -32t14.5 -44t4 -48.5q0 -41 -4 -91.5t-21 -87.5q20 16 35.5 55.5t27 84.5t18.5 89t13 68v-2l3 21l18 6l20 -4q12 -4 27.5 -13.5t22.5 -19.5l10 -20v2zM72 1018q8 20 19 46t20.5 53.5t16.5 55t7 50.5v39l-2 10v4l-2 -2 q-6 -33 -9 -62.5t-13 -62.5l-19 -62l-18 -55l-4 -12l-5 -10l-2 -13l2 4l7 15zM135 1112q4 8 8 23.5t8.5 34t7.5 35t3 26.5q0 8 -2 8q-4 0 -4 -6q-4 -10 -8.5 -26.5t-7.5 -35t-6 -36t-3 -27.5q0 -8 2 -8v4q0 2 1 4t1 4zM344 1294l-4 -10q4 -23 -6 -59.5t-24.5 -73.5 t-27 -64.5t-12.5 -33.5v-2q8 0 4 4q33 33 51.5 82t18.5 96v61zM379 1245h-2q-2 0 -5 -9l-6.5 -19.5t-5.5 -21.5t-2 -13v-19l2 -2v4l5 11q4 10 9 26.5t5 26.5v12v4z" />
<glyph unicode="#" horiz-adv-x="1019" d="M952 725q0 -8 -8 -10t-14 -2l-31 2q-4 2 -23.5 4t-43 4t-45 2h-29.5q-6 -31 -13.5 -71t-13.5 -79.5t-10 -78.5t-2 -70q35 0 70.5 -9t62.5 -32l12 -27q-10 -6 -29.5 -9t-42 -3t-44 1t-33.5 1q-2 -33 0 -103.5t-4 -143t-24.5 -128t-59.5 -55.5q-57 0 -95 43l-10 29 q10 92 19.5 176t13.5 176q-27 -2 -52.5 -3t-49.5 -5q-6 -29 -15.5 -83t-23 -111.5t-28.5 -106.5t-30 -70q-10 -6 -19 -11t-20 -5q-14 0 -33.5 5t-38 15t-30.5 23.5t-12 32.5q0 10 4 18t8 18q23 66 38 131.5t30 131.5l-29 -4q-29 -3 -64.5 -7t-69.5 -7t-46 -3q-8 0 -20.5 3 t-25 8t-20.5 12.5t-8 17.5q0 4 4 4q4 2 16.5 5t26.5 6t27.5 6.5t19.5 3.5q51 10 101.5 18t101.5 14q12 76 23.5 151t17.5 152q-41 -4 -85 -10t-85 -6q-6 0 -18.5 3t-24.5 8t-21.5 12.5t-9.5 17.5q0 4 18.5 9t22.5 7q51 16 105.5 24.5t107.5 16.5q10 84 18.5 170t12.5 172 l6 13q6 4 11 6t12 2q43 0 62 -43t25.5 -101.5t3.5 -117t-3 -86.5q31 2 60.5 3t59.5 1q12 72 27.5 143.5t32.5 143.5q4 12 7 31.5t19 19.5q33 0 57.5 -16.5t24.5 -51.5q0 -70 -5 -138.5t-13 -135.5q14 0 45 -4t62.5 -12.5t55 -23t23.5 -34.5zM317 299q-2 0 -5 -8t-6 -19.5 t-5 -21.5t-2 -14v-13v-4h2v2l2 6l10 27q-2 8 2 16.5t4 14.5v10v4h-2zM393 860l-2 -2l-2 -18h2l-2 -4q0 -25 -2 -60t-6 -70.5t-10 -69.5t-15 -54q0 -6 -5 -35t-11 -65t-11 -71.5t-5 -56.5v-2q4 0 3 4t-1 6q2 16 5 35t7 35q16 82 36.5 167t20.5 169v86zM594 723 q-25 0 -50.5 -3t-49.5 -3q-4 -78 -11.5 -153t-19.5 -150q23 2 47.5 5t46.5 1q-2 74 14.5 152.5t28.5 150.5h-6zM590 281q-2 0 -2 -5v-4v-30l2 -9v-2h2v7q2 10 3 17t1 15l-2 6v5h-4zM666 836q-33 -74 -51.5 -159t-18.5 -167v-86q0 -35 4 -66.5t8 -62.5h2q2 31 -2 64.5 t-4 64.5q0 70 6 146.5t25 142.5q2 8 7 25.5t11 38t10.5 36.5t4.5 23h-2zM719 408q0 -4 10 -6.5t14 -2.5q2 0 9.5 1t7.5 6h-2q-2 2 0 2h-4q-4 2 -9.5 4t-9.5 2h-6l-2 -2q-8 0 -8 -2v-2zM760 770h4q8 0 12 2q2 2 8.5 0t6.5 2h-3h-6q-6 4 -16 0q-2 -2 -2 0l-2 -2h-2v-2z" />
<glyph unicode="$" horiz-adv-x="768" d="M700 264q0 -68 -27.5 -119t-72.5 -83.5t-103.5 -49t-121.5 -12.5q10 -33 11 -65.5t3 -65.5q0 -10 -1 -22.5t-1 -22.5q-14 -10 -33 -10q-25 0 -57.5 15t-44.5 38q0 39 5 76t5 75q-45 16 -91 40t-84 58t-62.5 77t-24.5 98q0 8 3 26.5t9 38t15.5 33.5t19.5 14q23 0 44.5 -12 t35.5 -29q0 -84 24.5 -143t77.5 -121q-2 2 -8 2l2 -2q4 0 20.5 -4t22.5 -4q2 10 19.5 7t25.5 -7q43 12 82 27.5t70 40t48 60.5t17 89q0 68 -33.5 116t-84 87t-108.5 73.5t-108.5 74.5t-84 91.5t-33.5 122.5q0 47 19.5 87t50 71t71.5 50.5t84 25.5q10 41 12 74.5t2 74.5 q0 10 13 11q23 0 41 -9.5t34 -21.5q33 -61 27 -135q63 -14 108.5 -43t86.5 -76v-4v2l6 -10l2 -4q0 -2 -2 0v2l2 -2l2 -4l8 -17l-10 -12h-8q-35 0 -56.5 16.5t-38 34.5t-35 34.5t-49.5 16.5q-37 0 -74.5 -15t-67.5 -42t-48 -62.5t-18 -74.5q0 -68 33.5 -116t86 -87t111.5 -75 t111.5 -78t86 -94t33.5 -126zM340 1147v4q4 6 4 13t2 14q2 8 1 15t-1 15t-2 9l-4 -9q-2 -6 -2 -16v-16l-2 -25l2 -4h2zM102 842v-4l-2 -7q0 -4 2 -19t9 -15v4q-4 8 -5 14v21v6h-4zM240 1053q-6 0 -11 -4q-16 -2 -28.5 -12.5t-21.5 -23t-18 -24.5t-18 -18q-8 -23 -19 -46.5 t-15 -47.5q4 4 4 8v8l2 2q4 20 22.5 55t34.5 51l20.5 20.5t22.5 16.5l18 11l7 2v2zM57 215l-2 2v2q-2 0 -2 4l-6 8q-12 35 -9 57.5t3 55.5l-2 2q-4 0 -10 -21.5t-6 -25.5v-14l2 -17q2 0 6 -12t6 -16l8 -15l6 -6l2 -4l2 -2h2h2zM59 328q-4 0 -3 -6.5t1 -8.5l-2 -4v-10l6 -16 l2 -7h3h2l-2 3v4v4v8v14v11.5t-5 7.5h-2zM295 -10q-4 0 -5 -21.5t-1 -29.5q0 -4 2 -22.5t6 -18.5v14l2 41l-2 24v11v2h-2zM567 334q0 10 -7 26.5t-13 26.5l-4 2v-2l4 -10q-6 -18 2 -38t8 -40t-9 -43t-16 -41l-2 -2q-18 -45 -55 -86l-18 -18q-6 -6 -8 -13v-2q14 0 34.5 26.5 t39 60.5t31.5 66t13 42v45zM608 270q-2 4 -3 16.5t-5 12.5v-6v-24.5t-4 -24.5q-2 -10 -10 -27l-6 -14l-5 -8l-2 -7l-2 -2v-2l-2 -4l2 2l2 2q2 2 2 4q20 23 22.5 40t10.5 42z" />
<glyph unicode="%" horiz-adv-x="1267" d="M276 498q-61 0 -112 25.5t-87 66.5t-56.5 95t-20.5 112q0 57 17.5 122.5t52 121t85 91t117.5 35.5l13 -2h-11q39 2 87.5 -22.5t76.5 -48.5l8 -15l-16 -6l-6 2q27 -57 38 -123.5t11 -130.5q0 -43 -10 -99t-33.5 -105.5t-61 -84t-92.5 -34.5zM358 621h-4q-6 0 -6 -9v-6 l2 -2h2q8 0 8 8v6zM383 686q0 -4 0 -2t2 0t0 -2v2l2 2l2 2l4 4l6 6l5.5 5.5t3.5 5.5v12v4h-7q-2 0 -1 -3t-1 -5q-2 -4 -9 -15.5t-7 -15.5zM365 1100q0 -2 2 -2v2h-2zM309 641q12 0 26.5 23.5t27 54.5t20.5 59.5t8 38.5q0 6 -3 30.5t-9 29.5l2 -54q0 -23 -6 -43t-10 -41 l-3 -2q-8 -25 -20 -45t-29 -41l-6 -10h2zM57 846v-6q0 -10 -2 -17q0 -2 -3 -10t1 -8t6 14.5t0 18.5v8h-2zM178 1110l-12 -4q2 -2 1 -3t-3 1q-47 -31 -67.5 -65.5t-41.5 -82.5l-2 -2q-6 -18 -11 -35.5t-9 -35.5l-8 -39l-7 -31v-14v-2v2l2 6l5 18v4l6 27l16 53q20 53 43 97 q18 33 37.5 56t48.5 46l4 4h-2zM158 1049q-2 0 -4 -3.5t-4 -1.5q-16 -20 -30 -38.5t-24 -42.5q4 -12 -4 -24.5t-8 -27.5v-34h2v2v12l2 2q2 20 12.5 47t20.5 45v2q10 14 24.5 28.5t14.5 33.5h-2zM205 592q39 16 66.5 51t45 78t25.5 88t8 84q0 47 -7 93t-17 93v12.5t-4 8.5 q-37 0 -67 -42t-52.5 -97.5t-34.5 -110.5t-12 -82q0 -47 10 -92t39 -84zM1202 317q0 -49 -8 -106t-30.5 -106.5t-61.5 -82t-101 -32.5q-51 0 -97 16.5t-82 46t-56.5 71.5t-20.5 95t17.5 116.5t47.5 124t69 112t84 79.5l-9 13q2 10 12.5 11t20.5 1q14 0 27 -6q4 -2 10 -3 t8 -3q0 -2 -2 -2t-2 2q10 -2 21.5 -8.5t21.5 -10.5q-4 4 -6 4q-4 0 3 -2t11 -6l31 -25q12 -10 27.5 -35.5t23.5 -41.5q23 -49 32 -109t9 -113zM791 279v2h-3q-4 0 -10 -19.5t-6 -23.5v-39q0 -6 4 -15l2 -4h2v4l-2 6l2 23q2 14 7.5 30.5t5.5 30.5zM928 571 q-10 -16 -21.5 -28.5t-24 -24.5t-23.5 -28.5t-21 -40.5l-2 -3l-19 -59l-8 -33l-4 -22l-2 -13v-2v2l2 5l4 14v4l6 23l16 43q8 20 16.5 39.5t18.5 39.5q16 33 43 60q4 4 17.5 15t13.5 13zM881 461q-8 0 -4 -4q-16 -20 -31 -51t-15 -60v-18h3v4q0 2 1 4t1 4q8 16 12 34.5 t12 35.5q-2 4 10.5 24.5t12.5 26.5h-2zM1073 385q0 49 -12 100.5t-31 96.5q-27 -41 -52.5 -89.5t-45 -100.5t-30.5 -105.5t-11 -102.5q0 -29 5 -60.5t24 -55.5h2q49 0 78.5 36.5t46 87t21.5 104.5t5 89zM1098 211q4 8 7 21.5t3 23.5v31l-2 6v4q-4 0 -4 -5v-7 q-6 -57 -25.5 -95t-48.5 -86q-2 -2 -2 -4v-4q6 0 16.5 15.5t21.5 35t20.5 38t13.5 24.5v2zM1108 156l-4 -6l-12 -21l-11 -14v-6q2 0 7.5 5t11.5 12t10 14t4 10v6h-6zM350 -51q-10 0 -27.5 4t-34 11t-27.5 17.5t-11 22.5q0 6 2 12.5t4 12.5q41 47 75 107.5t62.5 125t55 130 t53.5 122.5q31 68 81 167t109.5 200.5t124 187.5t123.5 125l29 2q4 -2 17 -6t27.5 -11.5t24 -15.5t2.5 -16q-111 -160 -203 -327t-178 -343q-29 -59 -54 -121.5t-51 -124t-56.5 -121t-69.5 -112.5q-14 -18 -34.5 -33.5t-43.5 -15.5zM442 279q-4 0 -10 -10.5t-11 -23 t-9 -24.5t-4 -16h2l6 9t12 21.5t11 23.5t5 17zM680 668q-4 0 -12.5 -10.5t-17.5 -25t-17 -26.5t-10 -14q0 -2 -5.5 -11.5t-11.5 -20.5t-12 -22.5t-6 -15.5h2q6 0 8 8.5t6 14.5q10 16 21.5 31.5t21.5 31.5v2q2 2 7 10.5t11.5 18.5t11.5 18.5t5 10.5h-2zM848 1014l-23 -19 q0 -2 -2 -4t-4 -2q-10 -14 -21.5 -26.5t-21.5 -28.5q-23 -35 -43 -72t-41 -71q-66 -115 -127 -233t-108 -239v-2v2q2 2 16 29t33.5 64t41 80t41 80.5t34 64.5t16.5 31q47 92 101.5 176t109.5 170h-2z" />
<glyph unicode="&#x26;" d="M918 518q0 -102 -49.5 -193.5t-108.5 -168.5q27 -27 52.5 -54.5t53.5 -52.5l15 -26q-4 -2 -14.5 -5.5t-14.5 -3.5q-45 0 -84 26t-70 56q-53 -53 -132 -89t-156 -36q-86 0 -161 36t-130.5 95.5t-87 137t-31.5 161.5q0 63 25.5 111.5t66.5 86.5t91 66.5t100 55.5 q-23 53 -32 125t-9 129q0 49 6 105.5t26.5 105.5t59.5 81.5t102 32.5q47 0 110.5 -19t120 -54t96.5 -82t40 -103q0 -59 -40 -114.5t-97.5 -103.5t-120 -87t-107.5 -63q41 -111 100.5 -212.5t129.5 -195.5q18 27 41.5 66t44 81t34 84t11.5 74q8 18 10 33q4 2 10 4t10 2 q45 0 67 -25.5t22 -66.5zM412 506q-8 18 -24.5 50t-18.5 50l-2 2q14 -53 27.5 -83.5t29.5 -56.5t37.5 -51.5t50.5 -64.5v2l-12 17q-18 27 -34.5 51t-33.5 51q-4 4 -10 16.5t-10 16.5zM623 928q-4 -6 -13.5 -16.5t-19.5 -21.5t-18.5 -21.5t-8.5 -18.5h2l43 43q-2 2 8.5 14.5 t10.5 20.5v2zM631 946q2 0 10 8.5t17.5 17.5t17.5 18t12 14l8 18v2q8 10 12.5 28.5t4.5 30.5q0 2 -2 2q-4 0 -4 -6q-10 -20 -17.5 -37.5t-17.5 -35.5q-10 -16 -26.5 -28.5t-16.5 -31.5h2zM383 956q0 -41 5 -84t15 -84q33 20 78 54.5t87 75t71 86t29 88.5q0 47 -29 75.5 t-68 49.5q-12 -4 -25.5 4t-27.5 8q-45 0 -71.5 -31t-41 -74t-18.5 -89t-4 -79zM258 1001q-2 0 -6 -10t-4 -14v-31l2 -2v-2q4 0 3 4t-1 6q2 8 5 16.5t3 14.5v16zM389 1260q-4 2 -14 2q-37 -12 -58.5 -45t-33.5 -68l-17 -59l-6 -31l-4 -23v-12v-2v2l2 4l4 14v5l6 20l15 41 l34 76q6 12 22.5 32.5t27.5 28.5q2 2 13 6t11 6zM29 422h-2l-9 -19v-14l5 -10h2v10q2 4 4 10.5t2 10.5v10zM195 641q2 -2 1 -3t-3 1q-41 -12 -75 -48t-57 -73l-18 -35l-6 -18v-2l2 4l8 14q12 18 24.5 37t28.5 35q20 23 43 43q2 2 12.5 9t20.5 14.5t19.5 13.5t9.5 8h-10z M487 57q-4 0 -21 -3t-17 -7l2 -2h16q4 0 10 3l10 5l5 4h2v4zM602 193q-80 88 -153.5 199.5t-120.5 221.5l-70 -46t-62.5 -54t-45 -67.5t-17.5 -81.5q0 -55 18.5 -105.5t38.5 -101.5q18 -14 38 -46t42 -55h2q4 -4 12.5 -8t8.5 -2h2l6 -2q92 0 165 43.5t136 104.5zM709 268h-4 q-2 0 -7.5 -6t-11.5 -14t-10 -16.5t-4 -10.5t2 -2t8 6t12 14.5t11.5 15.5t5.5 11zM844 532q0 8 -2 9q-4 0 -4 -5.5v-7.5l-11 -36q-6 -20 -16 -39t-20 -37v-2q-4 -6 -12.5 -19.5t-17.5 -28t-15.5 -26.5t-8.5 -18v-3l4 5q39 47 66 96l14 24v5q6 23 14.5 41.5t8.5 41.5z" />
<glyph unicode="'" horiz-adv-x="434" d="M262 1307q53 0 74.5 -40t21.5 -83q0 -45 -18 -98.5t-50 -99.5t-76 -77.5t-93 -31.5q-10 0 -30.5 5t-42 14t-38 21.5t-18.5 24.5l8 23q10 10 24.5 17t26.5 15q37 23 61.5 58t43 74.5t31 82.5t24.5 80q12 12 23.5 13.5t27.5 1.5zM145 1018q6 6 13.5 16t14.5 21.5t13.5 20.5 t10.5 11q10 23 25.5 56t15.5 57v14q-2 0 -2 -2t-3 -2l-4 -18q-12 -31 -30 -64q-10 -16 -23.5 -37.5t-31 -44t-35 -42t-33.5 -29.5l-2 -4l2 -2l10 4q14 10 27 18q10 8 19 15.5t13 11.5zM262 1143q4 10 9 25.5t5 27.5l-2 6v4l-6 -11t-13 -24.5t-13 -27t-9 -17.5q2 -2 -3 -10 t-11 -18.5t-12 -20.5t-6 -14v-2l4 4q4 4 4 6q14 18 27.5 33.5t23.5 36.5z" />
<glyph unicode="(" horiz-adv-x="430" d="M362 1186q0 -6 -15 -22.5t-19 -20.5q-31 -31 -53.5 -68t-38.5 -78q-45 -102 -63.5 -215.5t-18.5 -224.5v8v-43q0 -156 29.5 -321.5t101.5 -304.5l-4 10q14 -23 30.5 -48.5t24.5 -52.5v-6q0 -6 -7 -7t-12 -1q-63 0 -111 44t-84 114.5t-58.5 158t-37 172.5t-20.5 159.5 t-6 119.5q0 72 9 158t33 171t61.5 160.5t93.5 125.5q18 16 45.5 34.5t50.5 18.5q4 0 15 -4t23.5 -10.5t21.5 -13.5t9 -13zM88 195l-8 16q-6 18 -6 37.5t-6 38.5q-2 4 -3.5 15t-5.5 11v-6v-20q0 -27 7.5 -47.5t15.5 -42.5l4 -4zM59 522q0 -29 3.5 -55.5t7.5 -54.5l2 -2v2v4 q-2 10 -3 20t-1 21v45q0 23 2 42t2 40q0 10 1 22t3 23l6 37l4 14v10v2v2v-2l-4 -8v-4l-6 -23l-4 -22l-6 -37q-7 -37 -7 -76zM190 1104q-37 -31 -66.5 -104.5t-49 -159.5t-29.5 -171t-10 -137q0 -39 3 -76.5t7 -76.5l6 -33v-2l2 2q-12 82 -12 168q0 59 11 141t31.5 167 t48.5 160t61 122h-3zM356 1171l-2 -2z" />
<glyph unicode=")" horiz-adv-x="454" d="M387 530q0 -90 -14.5 -203.5t-46 -225t-81.5 -211t-120 -160.5l-35 -2q-10 0 -24.5 5t-28.5 13t-24.5 19.5t-12.5 21.5q14 31 33.5 59.5t36.5 57.5q82 150 118.5 322.5t42.5 340.5v-8v33q0 59 -5 125.5t-17 134.5t-30.5 132.5t-43.5 117.5q-10 20 -25.5 41.5t-21.5 42.5 l2 16l4 4l19 2q51 -16 92 -60t71.5 -103.5t52 -130t34 -140t18.5 -133.5t6 -111zM168 14q-2 0 -6 -7t-9.5 -16t-9.5 -18.5t-4 -11.5v-8l2 2l6 12q4 6 13.5 22.5t9.5 22.5zM289 541q0 20 -2 39.5t-6 37.5l-7 21q-2 2 -2 4t-2 2q4 -25 7.5 -49.5t3.5 -50.5q0 -53 -6.5 -111.5 t-22.5 -109.5q-10 -29 -15.5 -61t-15.5 -60l-20 -64l-13 -47l-6 -24v-2v2q18 39 38 102t35 133t24.5 134.5t9.5 103.5zM317 379q0 2 -2 2t-2 -2v-2q-4 -20 -11 -43t-7 -43v-12h2v8q4 18 12 45t8 47zM88 1186l-2 4q2 -2 2 -4z" />
<glyph unicode="*" horiz-adv-x="833" d="M764 874q0 -4 -4 -12q-14 -6 -52 -2t-59 4q-43 0 -86 -2t-86 -2q29 -63 54.5 -126.5t56.5 -127.5v4l8 -16l-16 -19h-15q-45 0 -75.5 20.5t-53 51.5t-37 68t-26.5 71q-8 -10 -29.5 -39.5t-45.5 -61.5t-45.5 -56.5t-29.5 -24.5q-16 0 -37.5 10.5t-31.5 24.5l-2 14 q4 25 17 52.5t30.5 55t35 52.5t29.5 43q-41 0 -83 1t-83 7q-10 2 -18 5t-19 1q-6 2 -16 6.5t-20.5 9.5t-17.5 12t-7 15q18 6 37 0l40 3q40 4 90 7t95 5t55 4q-8 14 -26.5 46t-38 65.5t-33.5 64.5t-14 43q0 4 4 12h24q14 0 32 -11t28 -22l2 -8q6 -4 17.5 -18t24.5 -31.5 t25.5 -34t20.5 -26.5q8 12 31.5 43.5t50.5 64.5t50.5 58.5t35.5 25.5q31 0 60.5 -16.5t43.5 -44.5l-161 -201q20 0 39.5 1t39.5 1q14 0 46 -3t64 -10t56.5 -22t24.5 -35zM403 1016l3 -2l2 -2h-2h2h2v2q2 2 2 4h2q-2 0 -4 2q-2 0 -4 2h-3v-2l-2 -2zM418 752q0 4 -4 12l-6 12 q-14 41 -21.5 87t-28.5 85v4q-4 8 -12 25.5t-19.5 35t-22.5 30t-23 12.5v-2q20 -23 32.5 -41.5t20.5 -37t15 -37.5t18 -44v-2q14 -35 22 -72t27 -69h2v2zM532 1163q-2 0 -4 -1t-4 -1q-8 -6 -23.5 -22.5t-30.5 -36t-27.5 -37.5t-12.5 -27h2l8 11q14 16 27.5 32.5t26.5 32.5 q8 10 16 19.5t16 19.5q2 4 5.5 5t3.5 5h-3zM584 616l4 -6z" />
<glyph unicode="+" horiz-adv-x="909" d="M436 922v-2h-2zM842 420q-4 -2 -14.5 -5t-14.5 -3q-76 0 -151.5 6t-151.5 12v-227q0 -41 10 -94.5t4 -85.5l-6 -15q-4 -4 -11 -7t-13 -1q-29 6 -64 20.5t-47 45.5q-10 27 -16.5 75.5t-8.5 104t-2 106.5v84h-30q-33 0 -67 -2t-66 -6q-16 -2 -31 -5t-31 -7q-2 0 -11 -2 t-9 -4l-7 -2l-10 -5q-6 2 -13 -2t-13 -4q-12 0 -40 9.5t-28 25.5q0 23 49 37t112.5 22.5t121 10.5t75.5 2q0 18 2 57t7.5 88t13.5 99.5t21.5 93.5t31 69.5t41.5 26.5q18 0 39 -10l23 -25q-4 -4 -5 -6l5 -12q-10 -16 -14.5 -67.5t-5.5 -113t-3 -120t-4 -86.5q31 -2 77 -3 t93 -4.5t88 -13.5t61 -31zM432 612v11.5t-2 7.5v-2q0 -14 -4 -19q2 -47 -2 -97t-8 -99q-2 -35 -1 -71t1 -71l2 -16l2 -16v-2v2v6v20v4l2 31q0 16 1 30.5t3 30.5l4 68q2 33 3 64.5t1 64.5zM436 821q-29 -82 -41 -178t-12 -182v-68t4 -65l6 -74l4 -27l4 -26l5 -27v-2v2 q0 51 -6.5 101.5t-6.5 103.5q0 47 2 95t6 95q2 27 4.5 51.5t6.5 51.5q4 23 7 44t7 44l6 33l4 22v2l2 6zM582 465l-2 2l-17 6l-14 -6v-2h6l10 -2h19v2h-2z" />
<glyph unicode="," horiz-adv-x="432" d="M168 -178q4 0 6 2q-2 -2 -6 -2zM367 184q0 -39 -17.5 -95t-45.5 -111.5t-63.5 -99.5t-74.5 -56h2q-10 -4 -17.5 -4h-17.5q-49 0 -85 15t-46 65q2 8 11.5 17t15.5 15l-9 -8l25 27l-8 -8q10 10 29.5 37.5t42 64.5t45 78t38 79t21.5 65.5t-4 39.5q4 14 8 19l10 -9l-2 9l8 6 q10 -2 18.5 -3t16.5 -5l-6 4q10 -4 21.5 -9.5t21.5 -11.5l14 -12l9 -6l2 -2l2 -2l-2 2l-2 2l18 -25v-2q10 -20 15.5 -36.5t5.5 -39.5zM238 242h2l-2 -4l-11 -29l-10 -25q-25 -55 -51 -108v-4q-16 -27 -41 -66t-37 -67v-2h2q8 0 22.5 21.5t32 54t36 72.5t32.5 75t22.5 61.5 t8.5 32.5zM256 162q-2 0 -9 -20.5t-9 -24.5q2 -8 -4.5 -18.5t-6.5 -18.5h2v2l2 6l7 12l12 30t8 30zM291 209q-4 0 -4 -4v-6v-2h2v2q0 2 2 2q4 0 4 2v4v2h-4z" />
<glyph unicode="-" horiz-adv-x="583" d="M516 463l-29 -10q-18 2 -62 1t-97.5 -1t-111.5 1t-105.5 5t-78 14t-30.5 27q0 -2 6 4q12 6 55 11t93.5 10t95.5 7.5t63 2.5q49 0 97.5 -5.5t89.5 -40.5zM344 508q-27 0 -50.5 5t-49.5 5h-62q-4 0 -15 -2t-23.5 -5t-21.5 -7t-11 -6q63 12 119.5 8t117.5 0zM410 508 q0 6 -9 6h-6l-2 -2v-2h2q4 -4 6 -4h9v2z" />
<glyph unicode="." horiz-adv-x="356" d="M291 -10q0 -18 -9.5 -37t-23.5 -33t-32.5 -23.5t-37.5 -7.5q-27 2 -59.5 10.5t-61 24t-48 39t-19.5 55.5q0 23 12.5 52.5t34.5 35.5q16 35 53 35q27 0 60 -13t61.5 -34.5t49 -48t20.5 -55.5zM100 86q-16 0 -29.5 -24.5t-13.5 -38.5v-13h2v2l2 6q2 8 5.5 14.5t7.5 14.5 q10 6 20 16.5t10 22.5h-4zM129 80h-2q-2 0 -2 -2t-2 -2h-2v-4v-2h2v2h2q2 0 4 2h2v4z" />
<glyph unicode="/" horiz-adv-x="761" d="M696 1217q0 -37 -31.5 -150t-83 -260.5t-117 -309t-133 -296.5t-131 -223.5t-112.5 -88.5q-20 0 -48 14.5t-38 30.5q-2 8 -2 21q113 256 209 469q39 90 79 179t73.5 164t57 128t32.5 72q8 20 30.5 69t49 100.5t52 89.5t42.5 34q6 -2 18 -6.5t24.5 -9.5t20.5 -12t8 -15z M504 887q-2 0 -5 -3t-1 -5l-43 -103l-2 -2q-2 -23 -15.5 -46t-15.5 -46h2l6 14v2q10 27 21.5 53.5t21.5 53.5q4 12 8 25.5t11 25.5l10 23zM567 1120q-6 -10 -10 -22.5t-8 -22.5q-16 -41 -35.5 -79t-36.5 -76q-61 -135 -111.5 -273.5t-107.5 -275.5q-25 -59 -51.5 -115.5 t-48.5 -116.5l-2 -2l2 2l8 17l24 51l7 10q10 16 17 36.5t15 39.5l66 151q29 72 57.5 146t57.5 145q39 98 79.5 193.5t79.5 193.5zM584 975q0 2 -4 2q-6 0 -16.5 -13.5t-10.5 -19.5h2l4 4q2 2 2 4q4 4 13.5 11.5t9.5 11.5z" />
<glyph unicode="0" horiz-adv-x="798" d="M733 373q0 -68 -10 -148t-40 -147.5t-84 -112.5t-142 -45q-104 0 -189.5 31t-145 89t-91 141t-31.5 188q0 70 14.5 147.5t39 153t59 145.5t75.5 125q-2 29 20.5 38t39.5 23l39 3q117 6 201.5 -56.5t139 -159t80 -209t25.5 -206.5zM96 324v-2l-2 -9q-2 -4 -3 -20.5 t5 -16.5v5l2 8q2 4 3 19.5t-3 15.5h-2zM178 754q-2 -4 -3 -8.5t-5 -6.5q-16 -37 -25.5 -71.5t-19.5 -71.5q-6 -23 -8 -42t-6 -42l-7 -33q-2 -10 -2 -21.5t-2 -21.5l-4 -30v-15v-2v2l2 6l4 19v4l4 29q2 14 5.5 28.5t7.5 28.5q4 23 8 53.5t14 52.5q-2 8 4.5 27.5t13.5 41 t14 42t7 31.5h-2zM180 850q-33 -55 -57.5 -125t-40.5 -143.5t-24.5 -147.5t-8.5 -135l2 -25v-2v2v11l2 30v9l4 45q2 23 6.5 45t8.5 45q10 43 16 87t18 85t21.5 84t28.5 84q4 8 15 26.5t11 24.5h-2zM516 453q0 45 -8 105t-24.5 120.5t-40 115t-54.5 89.5h-12l-17 -2 q-59 -131 -98 -278.5t-39 -293.5q0 -76 13.5 -142.5t58.5 -127.5h6q31 0 53 8h2h-4q55 23 87 70t49.5 104.5t22.5 119t5 112.5zM487 72h-4q-4 0 -4 -3t-2 -6q-2 -2 -10 -11t-8 -13v-4h2v2q6 6 17 14t11 19zM582 467q0 23 -5.5 53.5t-15.5 50.5l-4 7v-3l2 -16h2v-6 q0 -10 3 -19.5t5 -19.5q2 -16 3 -34.5t1 -35.5q0 -10 -1 -27.5t-4 -36t-6 -36.5t-5 -27q0 -4 -2 -17t-6 -28.5l-8 -31t-6 -21.5q-4 -12 -7.5 -25.5t-7.5 -25.5l-6 -21l-6 -18l-4 -18v-2v2l4 6l8 24l2 4q4 10 5 18.5t5 18.5q6 16 12.5 33.5t10.5 36.5l14 59q10 41 13.5 78 t3.5 78zM625 367q0 6 -4 6q-2 0 -3 -6q-4 -18 -9 -36t-9 -36h-2l-2 -16q-4 -10 -6 -18.5t-4 -18.5v-6v-5q2 0 3 4.5t1 6.5q8 18 13 36.5t13 36.5q-2 4 3.5 23t5.5 29z" />
<glyph unicode="1" horiz-adv-x="555" d="M489 41q0 -29 3.5 -58.5t-1 -55t-19.5 -42t-52 -16.5q-20 0 -45 9t-47.5 22.5t-41 32t-26.5 36.5q0 25 2 50.5t2 50.5v176q0 152 -9 300t-9 300q-33 -33 -61.5 -70t-63.5 -65l-17 -2l-8 -9h-26q-6 0 -17.5 4.5t-23 9.5t-20.5 12t-9 13q0 10 4 8t0 17q59 80 119.5 147.5 t126.5 139.5q14 0 28.5 11t34.5 11q6 0 22.5 -5t33 -12t25.5 -17.5t3 -20.5q20 -10 30.5 -20.5t25.5 -28.5q16 -233 26 -464t10 -464zM225 979q-20 -25 -44.5 -43t-43.5 -43h-2q-12 -14 -23.5 -27.5t-17.5 -31.5v-9q0 -2 2 -2l2 6v2h2q10 20 32 40t38 36v2l22.5 22.5 t22.5 26.5q4 4 5 13.5t7 9.5zM262 1016q-4 0 -13 -7.5t-9 -13.5l2 -2h4q6 0 12 6.5t6 12.5v4h-2zM309 207q0 72 -3 145.5t-3 145.5v164q0 35 -2 70.5t-6 70.5q-2 14 -2 27.5t-4 27.5q0 8 -2 8l-2 -2v-24v-65.5t1 -116t2 -140.5t3 -138.5t6 -112.5t10 -60l2 -2v2zM336 614 v11.5t-1 18.5t-2 17.5t-1 10.5v10l-2 4q-6 -41 -5 -85t-3 -85q-2 -16 -1 -32.5t1 -32.5l2 -60v-8t4 -6v6v16l2 29q6 68 6 137v49z" />
<glyph unicode="2" horiz-adv-x="704" d="M78 729v6v-6zM637 2q-18 -6 -67.5 -8t-106.5 -2t-110.5 1t-80.5 1q-8 0 -17 -3t-17 -5q-10 -23 -20.5 -29t-35.5 -6q-20 0 -53 9t-62.5 25.5t-50 38t-16.5 48.5l10 18l13 4q29 47 70.5 111.5t87.5 140.5t91 157t80 159.5t57.5 151.5t22.5 130q0 8 -3 28.5t-10 42 t-16.5 37t-21.5 15.5q-2 0 -3 -1t-3 -1q-37 -14 -66.5 -50t-51 -80t-37 -91t-23.5 -84q-4 -23 -9.5 -48.5t-7.5 -47.5v-21q0 -4 -1 -7t-1 -7v-6q0 -10 2 -17.5t2 -17.5q0 -8 -7 -9t-11 -1q-33 0 -50.5 14t-25.5 36.5t-9 49.5t-1 51q0 47 15.5 115.5t46 133t75.5 110 t104 45.5q39 0 77 -15.5t71 -40t60.5 -55.5t45.5 -64l-2 3q18 -35 24.5 -74t4.5 -80l2 10v-4q0 -104 -29.5 -199.5t-75.5 -185.5t-100.5 -176t-101.5 -174l211 2q10 0 31.5 -6t44 -16.5t39 -22.5t16.5 -25v-8zM141 915q4 10 10.5 21.5t6.5 24.5l-2 2q-4 0 -7.5 -7.5 t-6.5 -16.5t-5 -17.5t-4 -10.5q2 -4 -1 -14t-3 -16v-13h2v4l2 11q2 8 6 16t2 16zM258 1065q-27 -20 -48.5 -62t-37.5 -90.5t-25.5 -96.5t-9.5 -83q0 -2 2 -2v6l4 23q6 31 13.5 64.5t17.5 62.5q16 47 42 91t42 87zM391 496q-2 -2 -4 -2t-3 -1t1 -1q-6 -10 -15.5 -24.5 t-17.5 -32t-14 -33t-6 -27.5h2q2 0 5 8t3 10l27 53l24 46zM434 719l-14 -17h2l-4 -4q-59 -127 -116.5 -238.5t-127.5 -234.5v-2h2q14 18 39 57t53.5 87.5t58 102.5t54.5 103.5t40 88t15 57.5h-2zM449 59l-5 2q-6 2 -12 4.5t-12 2.5q-4 0 -16.5 -4.5t-12.5 -10.5v-2 q0 -2 4 -2t13.5 4t19.5 4l18 -2l5 2v2h-2z" />
<glyph unicode="3" horiz-adv-x="827" d="M567 977v2l6 -8l2 -2l-2 2zM231 84q2 -2 2 -4q-2 2 -2 4zM762 254q0 -74 -30 -130t-80 -95t-114.5 -58.5t-131.5 -19.5q-41 0 -110 15.5t-134.5 44t-113.5 71.5t-48 96v18.5t2 18.5v-4q0 18 13.5 45t25.5 39l43 2q33 -14 59.5 -22.5t46.5 -41.5q6 -31 10.5 -60.5 t16.5 -57.5l-2 2l14 -31l4 -6v-2l3 -2l-3 2v2l9 -10l26 -2q55 0 106.5 21.5t92.5 58t65.5 86t24.5 104.5q0 18 -3 45t-10 52.5t-18.5 47t-27.5 33.5q-10 2 -18.5 2h-18.5q-51 0 -97.5 -20.5t-97.5 -20.5q-18 0 -49 5t-60.5 16.5t-52 28t-24.5 38.5l8 21q47 20 108.5 39.5 t117 47t93 71.5t37.5 116q0 45 -13 79t-36 71l6 -13q-2 2 -11 13.5t-19.5 22.5t-20.5 19.5t-14 6.5l-10 4q-2 4 -18.5 4h-18.5q-55 0 -88 -35t-49.5 -85t-22.5 -104.5t-8 -92.5l-23 -7q-29 4 -51 14.5t-41 33.5q-6 33 -6 69q0 53 9 103.5t34 90.5t66 63.5t102 23.5 q12 0 50 -7.5t80 -17.5t75 -22.5t33 -24.5q0 -2 6 -5t8 -3l-12 6v2l14 -8l2 -2q0 -2 -2 0h2l6 -4q16 -10 33.5 -22.5t32.5 -26.5l36 -37q18 -18 33 -40t27 -44q16 -33 22.5 -58.5t6.5 -62.5q0 -61 -42 -110.5t-90 -82.5q2 0 10.5 -3t17.5 -7t17.5 -8t12.5 -6 q84 -47 128 -121t44 -172zM117 1071q-29 -20 -44.5 -51t-25.5 -62l-2 -2q-4 -25 -9 -51t-11 -51l2 -2v4l8 35q6 27 15 51.5t20 48.5v2q6 10 11 21.5t11 21.5q4 0 9 10.5t10 14.5q2 2 5 4t3 4zM152 1098q-2 0 -7 -8q-2 -4 -4 -7l2 -2h2l2 2l3 2q2 2 7 3.5t5 5.5v4h-10z M477 881q0 -4 4 -9v-2h2v7q0 2 2 4t2 4v10l-2 2q-2 0 -2 2v2h-2q-4 0 -4 -8v-12zM463 754q12 16 15 36.5t3 40.5v7q0 8 -4 4q0 -33 -10 -62.5t-35 -52.5v-2q-14 -20 -37.5 -36.5t-34.5 -37.5v-2h2q4 0 18.5 13.5t32 31t32 33.5t18.5 23v4zM473 528q4 -2 8 -6t8 -4q0 2 -7 5 t-9 5zM70 115q0 14 -5.5 38.5t-9.5 41.5q-2 14 3 27.5t5 25.5l-2 2q-4 0 -4 -6q-4 -6 -9 -19.5t-5 -21.5v-33q0 -4 3 -13.5t7 -18.5t8.5 -17t8.5 -8v2zM84 188q0 8 -2 9h-4q-4 0 -4 -11v-12q0 -14 8 -14h2l2 2zM618 346q0 14 -4 37t-10 35l-4 4v-2l2 -14q2 -12 4 -25.5 t2 -26.5q0 -20 -5 -53t-15 -53q2 -4 -5.5 -22.5t-17.5 -40t-18 -42t-10 -30.5h2l4 4q10 31 23.5 57.5t24.5 54t19 55t8 62.5zM647 319q0 2 -4 3q-2 0 -2 -9q-6 -35 -18.5 -75.5t-12.5 -75.5l2 -2v4l4 10q8 25 19.5 52.5t11.5 56.5v36z" />
<glyph unicode="4" horiz-adv-x="841" d="M774 -80q0 -23 -17.5 -27t-33.5 -14l-18 -2q-18 0 -50 12.5t-64 31t-55.5 40t-23.5 41.5v164t4 164q-31 -4 -67.5 -3t-74.5 1t-74 -3t-64 -12q-16 -4 -32 -11t-32 -7q-14 0 -43 8t-57.5 20.5t-50 30t-21.5 35.5q0 29 17.5 53.5t35.5 42.5q129 137 217 295t174 322 q10 4 23.5 11t24.5 7q14 0 40.5 -10t36.5 -20l-4 18l6 14l19 13l22 2q43 0 85 -22.5t67 -57.5q8 -51 10 -129t2 -162t-1 -164t-1 -137v-545zM453 999q-16 -27 -28.5 -55.5t-29.5 -56.5q-57 -104 -121.5 -206.5t-136.5 -197.5v-2h2q27 33 80 105.5t105.5 153.5t91.5 154 t39 105h-2zM379 762q-2 0 -4 -2q-4 -4 -2 -4q-14 -10 -25.5 -25.5t-21.5 -30.5l-23 -34l-12 -21l-8 -14l-7 -10l-2 -5v-4v2l2 2l3 2l4 7l6 8l8 12l14 21l29 39q2 2 8 11t13.5 18t13.5 18l6 8zM518 446q2 66 4 129.5t6 129.5q-72 -150 -174 -277q41 6 82 9t82 9zM586 684 v33.5t-1 53.5t-2 51.5t-3 29.5l-2 -2q0 -80 -6.5 -159t-6.5 -159v-165q0 -25 -1 -51.5t3 -51.5l2 -39v-29.5t4 -29.5l7 -29v-2v2v13l-2 36v9q0 14 -1.5 27.5t-1.5 27.5l3 55q0 37 1 73t3 73q2 59 3 116.5t1 116.5zM618 512q0 2 1.5 7t-3.5 5h-2v-6v-18q0 -4 1 -22.5t6 -18.5 v2l-3 8v43zM623 731l-2 -8q0 -27 -1.5 -52.5t1.5 -52.5q0 -2 1 -18t5 -16h2v2l-2 10v106q0 4 1 10.5t-1 12.5l-2 4v2h-2z" />
<glyph unicode="5" horiz-adv-x="794" d="M156 940v2v-2zM727 365q0 -72 -41 -146t-103.5 -133t-137 -97t-142.5 -38q-39 0 -91 14.5t-98 40t-79 63t-33 85.5v-7l-2 27q0 6 4 14v-2q2 35 27 72l30 10q49 -6 75 -21.5t39 -39t20.5 -54t21.5 -67.5q51 23 105.5 66t100.5 96t75.5 114.5t29.5 120.5q0 35 -16 64v2 q-8 12 -17.5 20.5t-17.5 18.5l-12 2q-29 -14 -62.5 -27.5t-66.5 -33t-60.5 -47t-44.5 -70.5l2 -21l-8 -20q-4 0 -6 -2t-6 -4h-2l-12 -7q-6 -8 -17 -8q-14 0 -25.5 6t-23.5 13q-59 29 -88 56.5t-39 61t-8 77.5t2 106q0 55 4 109.5t4 109.5v-10q0 29 3 55.5t7 54.5l-6 4 l-12 21q10 6 22.5 10t24.5 8h4q27 10 86.5 18.5t125 13.5t127 7t93.5 2q23 0 47.5 -2t44.5 -10q8 2 27 -7.5t39.5 -22.5t35.5 -27.5t15 -22.5v-6q-4 -10 -56 -13.5t-117.5 -2t-126 3.5t-81.5 2q-41 0 -82 -2t-82 -2l9 -19l-2 2l2 -2v-2q8 -16 12 -33.5t8 -34.5l17 -92 q10 -47 15 -96t9 -98q37 35 81 56.5t93 21.5q41 0 86 -14.5t86 -39t76 -56.5t55 -67l-6 13q39 -59 39 -135zM338 1047q6 -2 17.5 -2.5t24.5 1t26.5 2.5t19.5 1h51h31h12l19 -2h8h2h-2l-2 2q-57 10 -105 10q-47 0 -90 -6l-18 -2l-4 -2h2zM59 498l-2 321v40t-4 40l-4 14l-2 7 v-2v-17l2 -39v-61l-2 -205q0 -23 2 -50.5t8 -49.5zM86 731v31.5t-2 32.5l-4 10v4v2q-4 0 -3 -4t1 -6l-2 -35q0 -16 2 -34.5t2 -37.5q0 -16 1 -34.5t3 -34.5l2 -13v-8h2v2v12v3v86zM481 588q2 -2 4 -2l-2 2h-2zM59 225v-2q-2 -2 -2 0v-2q-2 -4 -4 -5t-4 -5q-4 -12 -4 -21v-32 q0 -8 3 -18.5t7 -18.5l4 -6h2v4l-2 10q0 6 1 13.5t1 13.5q0 16 2.5 33.5t2.5 33.5v2h-7zM557 420h-2q-8 -39 -25.5 -71t-39 -60.5t-41 -57t-31.5 -61.5h2q10 0 32.5 31.5t46 71.5t41 75t17.5 43v29zM473 145q-6 0 -15 -11t-9 -17q0 -4 4 -4v4l2 2q4 2 13 7t9 11v8h-4z M580 336q0 2 -5 2v-8q-12 -41 -36 -82l-19 -27l-10 -14l-8 -10l-4 -7l-2 -4l-2 -6l4 4l4 6h2q16 18 30.5 37t26.5 41l2 2q4 16 10.5 32t6.5 34z" />
<glyph unicode="6" horiz-adv-x="753" d="M387 -178q-111 0 -185.5 43t-118.5 113.5t-63.5 161.5t-19.5 186q0 82 16.5 190.5t50 216t85 200.5t122.5 144l-2 -2q27 16 50 17q41 0 85 -19.5t70 -48.5l6 -23q-4 -8 -14 -15t-6 -15q-72 -78 -118 -182.5t-75 -206.5q61 0 123 -25t115 -55q23 -12 45 -30.5t39 -39.5 l16 -22l2 -4v2q14 -20 27 -52v2l2 -10v6q16 -53 31.5 -104t15.5 -109q0 -61 -21.5 -118.5t-61.5 -102.5t-95 -71.5t-121 -26.5zM109 307v-4l-3 -10v-35l3 -8v-4h2v4v10q2 6 3 26.5t-3 20.5h-2zM193 797l-11 -13h2l-4 -4q-10 -23 -20 -45t-19 -47q-8 -27 -14 -66.5t-11 -82.5 t-7.5 -84t0.5 -72l2 -2v2l2 6q2 16 2 30.5t2 31.5q4 41 7 94t19 94q-4 16 4.5 37.5t18.5 44t19.5 43t9.5 33.5h-2zM258 1001q-45 -25 -82 -102.5t-64.5 -171.5t-43 -184t-15.5 -140l2 -94q0 -16 2 -33.5t4 -33.5q2 -10 4.5 -17.5t4.5 -17.5v-2v2v14l-7 43v10l-2 88 q0 33 7.5 88.5t20.5 121t31.5 135t41 129t47 104.5t51.5 61h-2zM541 186q0 20 -4.5 49t-13.5 59t-22.5 55.5t-29.5 37.5v2q-18 18 -38.5 36.5t-37.5 37.5q-31 -4 -58.5 -22.5t-47.5 -41.5l2 2q-20 0 -32.5 -19.5t-29.5 -29.5q-2 -23 -3 -47t-1 -47q0 -35 2 -79t8.5 -89 t19.5 -86t36 -67h6q45 6 88 27.5t78 54t56.5 75.5t21.5 92zM594 84l-4 -2h2q0 -4 -7 -15.5t-15.5 -24.5t-15.5 -25.5t-7 -16.5h2l2 6q6 10 15 20.5t18 20.5q0 -2 1 -1t1 3t2 4q2 4 5 9.5t3 11.5v10h-2zM590 238l-2 4l-2 -2l2 -41q0 -29 -14.5 -61t-35 -62.5t-43 -60 t-36.5 -52.5h2q16 0 38.5 31t44 73t37 82.5t15.5 61.5z" />
<glyph unicode="7" horiz-adv-x="761" d="M694 971q-145 -160 -232 -346.5t-145 -393.5q-10 -37 -16 -78.5t-12 -82.5t-14.5 -81t-20.5 -75q-4 -10 -17.5 -12t-23.5 -2q-18 0 -48 7t-59.5 21.5t-51 33t-21.5 40.5q0 106 32.5 239.5t85 266.5t117 254t129.5 205q-80 -2 -162.5 -2h-162.5q-6 0 -18.5 3t-24 9 t-20.5 13t-9 16q0 12 28.5 24t66.5 21.5t74 15.5t48 6h-8q23 4 42 4h42q47 0 101.5 1t107.5 -4t101 -22.5t85 -54.5zM172 1051l4 2h4q20 4 40 5t40 -3q12 -2 28.5 -2h28.5h9.5t7.5 2h-4h-11q-41 0 -83 6h-3q-12 0 -24 -1t-23 -3l-10 -4h-4v-2zM348 721l-20 -41 q-18 -37 -39 -86t-39.5 -101.5t-32.5 -104.5t-18 -93q27 106 68.5 220t88.5 214v6zM434 915q-68 -72 -123 -175t-93 -218.5t-59.5 -233.5t-21.5 -218v-4l2 4q0 152 47 308.5t113 291.5q6 14 28.5 53t46 80t43 74.5t19.5 37.5h-2zM217 1073q2 2 6 2q-4 0 -6 -2z" />
<glyph unicode="8" horiz-adv-x="696" d="M629 188q0 -61 -21.5 -112t-59.5 -87t-90 -56.5t-114 -20.5q-70 0 -132 22.5t-109.5 63.5t-75 99.5t-27.5 129.5q0 25 3 58.5t9 68.5t17.5 67t27.5 50h-2l21 29l-2 -2q37 55 82 100q-12 16 -15 27l2 14q-59 59 -86.5 131t-27.5 156q0 98 51 157.5t153 59.5 q51 0 115 -17.5t117 -51.5t90 -82t37 -109q0 -47 -21.5 -93.5t-52.5 -80.5q-20 -23 -41.5 -45.5t-46.5 -40.5q-14 -10 -26.5 -20.5t-28.5 -18.5l-4 -2l2 -2q55 -39 105 -70t89 -90q35 -51 48.5 -112t13.5 -120zM385 612l4 2l12 11l5 2l16 14l35 33q16 16 28.5 34.5 t24.5 39.5q16 29 22.5 54t14.5 56l-2 4l-4 -10q6 -23 -13.5 -56.5t-47 -68.5t-56.5 -65.5t-39 -49.5h-2h2zM141 1010l-2 -2v-2l-2 -2h2h-2q-6 -20 -9 -38t-7 -40v-19q0 -10 1 -20t3 -21l2 -10v2v10q0 35 8 72t8 70h-2zM129 401q-4 0 -4 -8q-6 -23 -14.5 -46t-8.5 -46l-2 -2 q0 -6 -1 -11t-1 -9v-56l2 -8l2 2v4q0 6 -1 12.5t1 12.5l2 10l15 72q4 16 8 35.5t4 35.5zM147 535q-39 -53 -58 -99.5t-19 -113.5v-62q0 -20 1 -49t11 -45v-2v2v6l-2 21v6q0 68 5 135t28 133q12 41 47 70l4 4h-2zM178 1106l-10 -4q2 -2 1 -3t-3 1q-39 -29 -51.5 -58.5 t-22.5 -72.5q-2 -10 -1 -18.5t1 -18.5q0 -4 2 -20.5t5 -34t7.5 -30.5t8.5 -13v2q0 8 -4 20l-2 2q-4 16 -5.5 34.5t-1.5 35.5q0 23 7.5 45t7.5 43q10 29 24.5 47t36.5 37l2 4zM248 852q0 -18 1 -48t9 -46q18 18 37.5 41.5t36 51.5t27 55.5t10.5 54.5q0 16 -5.5 31.5 t-9.5 29.5q-53 -16 -79.5 -66.5t-26.5 -103.5zM444 293q0 49 -13 97t-44 87q-6 2 -11 8.5t-9 10.5q-35 27 -72 41q-23 -88 -48.5 -167t-25.5 -173q0 -39 4 -78t19 -76q88 25 144 91.5t56 158.5zM469 131q0 4 -4 4q-2 0 -2 -2t2 -2h-2v-2v-2v-4l-2 -6l-4 -11q-2 -6 -4 -10 l-4 -8q-4 -8 -8.5 -14t-4.5 -15q0 -2 2 -2v2l2 2l4 9q6 8 15.5 21t9.5 24v16zM485 283h-2q-8 -35 -13 -74t-28 -70v-2q-4 -8 -11 -20.5t-17.5 -25.5t-19.5 -24.5t-15 -17.5q0 -4 -3 -6t-3 -6h2l4 2q29 35 52.5 62.5t39.5 72.5q-2 4 1 11.5t5 11.5q6 18 8 36.5t2 36.5z" />
<glyph unicode="9" horiz-adv-x="968" d="M901 866q-4 -23 -12 -44t-15 -44q4 -18 5.5 -40.5t1.5 -41.5q0 -66 -15.5 -150.5t-44 -173.5t-72.5 -176t-101.5 -155t-128 -109t-152.5 -41q-98 0 -169 34t-151 81v2q-29 20 -37 49v2l-10 19l16 16q55 -4 101.5 -30.5t93.5 -53.5h8q45 0 91 29t86 71t73 88t53 83 q-33 -18 -62.5 -25.5t-66.5 -7.5q-78 0 -148.5 33.5t-124.5 90t-87 128t-33 147.5q0 80 45 147.5t114.5 114.5t151.5 74t154 27h-2q12 2 25.5 2h25.5q25 0 50.5 -1t49.5 -7q0 -4 6.5 -3.5t10.5 -1.5l-15 2h2l17 -4h-2l14 -2q2 -4 8.5 -4t10.5 -2q18 -8 36.5 -13t38.5 -15 q2 2 8.5 -3.5t8.5 -7.5q4 -2 5 -4t5 -2v2q16 4 25 4q29 0 58.5 -14t45.5 -41zM719 909q-2 0 -4 2l2 -2h2zM205 807q-2 0 -3 -1t-3 -1q-25 -18 -43 -43l-9 -21q-4 -10 -6 -18t-2 -12h2v2l2 2l4 12q6 10 14.5 21.5t14.5 21.5q4 6 17.5 18.5t13.5 16.5zM295 920q-43 0 -84 -33 t-73 -79t-51 -98.5t-19 -88.5h2q16 0 14 23.5t4 39.5q37 86 92 156q37 49 94 69l21 4l18 2v3zM586 193v-5h4v5h-4zM698 506q-2 0 -3 -4t-1 -6q-2 -4 -8 -21.5t-13 -37t-13 -35.5l-5 -15l-37 -92h3l2 2l4 12q6 4 18 30t24.5 58.5t21.5 62t9 42.5zM719 680 q-27 -59 -48.5 -118.5t-43 -120t-44 -120t-53.5 -116.5q-10 -20 -21 -37.5t-22 -36.5q-4 -6 -9 -11t-5 -14h2q18 23 45 69t53.5 104.5t53 121t48 118.5t34 99.5t12.5 61.5h-2zM723 907l-2 2l2 -2l-6 2h-2l-2 2h-2h-2l6 2q0 2 -4 0t-6 -2q-12 2 -24.5 3t-25.5 1 q-63 0 -139 -26.5t-140.5 -73.5t-108.5 -109.5t-44 -134.5q0 -51 20.5 -102t47.5 -92q76 41 137 100.5t113.5 128t97.5 144t88 147.5v8z" />
<glyph unicode=":" horiz-adv-x="423" d="M352 213q0 -18 -9 -36.5t-23.5 -33t-33 -23.5t-36.5 -7q-27 2 -59.5 10t-61.5 23.5t-48.5 39t-19.5 56.5q0 23 12.5 52.5t35.5 35.5q16 35 53 35q27 0 59.5 -13.5t61 -35t49 -48t20.5 -55.5zM158 260h-4q-2 0 -2 -2v-2q-6 -6 -7 -8v-12h2l3 -3l2 3v2q2 4 5 7t3 7v6z M158 326h-8l-17 -11q-8 -10 -14 -20t-10 -23q0 -4 -3.5 -15t-3.5 -15v-17q0 -4 2 -10t7 -6v2v8l4 17q4 23 18 49q4 10 10.5 16t10.5 14q10 4 10 9zM61 709q0 23 12.5 52.5t35.5 35.5q16 35 53 34q27 0 59.5 -13t61 -34.5t49 -48t20.5 -55.5q0 -18 -9 -36.5t-23.5 -33 t-33 -23.5t-36.5 -7q-27 2 -59.5 10t-61.5 23.5t-48.5 39t-19.5 56.5zM170 731v2v-2q-2 0 -4 -2l-2 -2v-2h-2v-6v-2h4q6 0 6 6v8h-2zM117 698v-10t2 -17t4 -16.5t6 -7.5v2l-2 8v15q4 16 11 33.5t3 33.5q2 8 6.5 13.5t8.5 11.5q4 2 13 6t9 6l-8 2l-14 -2q-23 -10 -31 -32.5 t-8 -45.5z" />
<glyph unicode=";" horiz-adv-x="466" d="M330 276q0 -37 -10.5 -79.5t-32 -78.5t-54 -60.5t-77.5 -24.5q-35 0 -74 10t-68 33l-14 24q27 27 46.5 41.5t35.5 28.5t30.5 34.5t28.5 61.5q6 16 10.5 39t8.5 45.5t10 40t16 23.5h9q55 0 95 -42.5t40 -95.5zM190 301q0 4 -1 12.5t-5 8.5l-2 -11q-4 -29 -11 -50t-17 -48 q2 -4 -6.5 -17.5t-10.5 -15.5l-12 -20l-6 -10l-6 -11l-2 -2l-2 -6l2 2h2q16 25 36.5 50.5t30.5 54.5q0 2 2 10t3 18t3 19.5t2 15.5zM201 236v2h-4q-4 0 -9.5 -15.5t-5.5 -19.5v-10l2 -3h2l4 13q4 4 8.5 14t4.5 16zM213 166q0 6 -4 6h-2l-2 -2h-2v-4l2 -2h8v2zM371 795 q-16 -18 -40 -27.5t-46 -9.5q-12 0 -33 6t-40 15t-36.5 20.5t-25.5 21.5q-2 4 -4.5 11.5t-2.5 11.5q0 12 4.5 37.5t12.5 52.5t17 49.5t20 28.5l2 6l26 8q29 -4 58.5 -15.5t46.5 -33.5q29 -16 49 -44t20 -63q0 -45 -28 -73v-2zM236 975q-2 0 -3.5 -3t-3.5 -1 q-14 -16 -19 -32.5t-11 -35.5q-2 -4 -1 -9t1 -9t5 -25.5t11 -21.5v4t-4 8l-2 10v23q0 27 14.5 57.5t14.5 32.5zM264 938q0 4 0 2t-2 0v2l-2 -2q-2 -2 -2 0h2h-2v-2h-2l-2 -4l-2 -6l-4 -8l-4 -15v-18q0 -8 4 -8h2v8l2 14q2 8 7 19.5t5 17.5zM264 842v-4h2l2 2v2h-4z" />
<glyph unicode="&#x3c;" horiz-adv-x="872" d="M799 819q-92 -86 -181.5 -166t-197.5 -147q-31 -20 -62.5 -36.5t-66.5 -33.5q-16 -8 -34.5 -15t-37.5 -11l-8 -2l8 -5l33 -20q8 -6 45 -26.5t86 -49t104.5 -62.5t101.5 -63.5t76.5 -52.5t30.5 -31v-8q-8 -4 -15 -8t-17 -4q-14 0 -61.5 21.5t-110 54t-133 73.5t-133 79 t-109.5 70t-60 46l13 -6q-6 2 -17.5 8t-23 14t-20.5 16.5t-9 14.5q0 8 21.5 19.5t50 23.5t55.5 22.5t37 16.5q68 35 129 78t121.5 88t122 88t127.5 80l-5 12l17 4q12 -2 31.5 -6t40 -12.5t37 -18.5t20.5 -24zM182 498q4 0 16.5 8t12.5 14h-2l-2 2v-2q-2 -2 -15.5 -7 t-13.5 -11v-4h4zM166 369h-4q25 -10 60.5 -30t73.5 -44.5t74 -48t60 -37.5h2q0 -2 -2 0l-4 4l-16 10l-21 13l-41 26l-80 47q-8 6 -22.5 15.5t-29.5 19.5t-29.5 17.5t-20.5 7.5zM236 541q4 0 29.5 18.5t63.5 47t81 61t80.5 61.5t63.5 49.5t28 22.5l2 6q-59 -43 -117.5 -88 t-118.5 -90l-69 -54l-29 -20q-4 -4 -7 -6t-7 -6v-2z" />
<glyph unicode="=" horiz-adv-x="1021" d="M930 301q2 0 4 2q-2 -2 -4 -2zM260 614h-56t-87 3.5t-80 13.5t-35 33q0 8 8 8q41 6 85 6t85 4q145 14 296 29.5t298 15.5q37 0 74 -15.5t53 -49.5h-2l-27 -11q-154 0 -306 -18.5t-306 -18.5zM213 657q4 0 31.5 2.5t65.5 4.5t82 5t81 5t61.5 4t26.5 2v2h-115q-45 0 -92 -3 t-90 -7l-49 -8q-2 0 -9 -1t-7 -4h8zM954 315q0 -6 -4 -6q0 -2 -9 -4t-18.5 -5t-18.5 -5l-9 -2q-129 -16 -266 -24.5t-267 -8.5q-86 0 -163.5 12.5t-155.5 46.5l-14 21q16 4 26 4q49 0 102.5 -8t106.5 -8q131 0 261 22.5t259 22.5q14 0 42 -3t56.5 -10.5t50 -19t21.5 -25.5z M786 350q0 2 -8 3t-12 1q-10 2 -23.5 2h-25.5q-41 0 -79 -8t-77 -14l-39 -6l-24 -2q0 -2 -2 -2t-3 -1t1 -1q4 0 7 -1.5t7 -1.5q37 4 73.5 9.5t73.5 9.5l2 2q23 4 46.5 6t46.5 2h24h7t5 2z" />
<glyph unicode="&#x3e;" horiz-adv-x="899" d="M176 897q8 -4 14 -8q-4 4 -7 5t-7 3zM834 455q0 -2 -9 -11q-14 -14 -59 -50t-106.5 -81t-130 -93t-129 -89t-105.5 -66.5t-57 -25.5t-38 7t-51.5 19.5t-46 26.5t-20.5 29q0 8 8 14q137 98 273.5 189.5t267.5 197.5q-59 57 -150.5 113.5t-185.5 109t-173 98.5t-112 85 l-6 22q4 2 14 2q18 0 46 -9t59 -22.5t58.5 -26.5t45.5 -22l-16 9q23 -10 78 -39t124.5 -70t143.5 -87t135.5 -90t101.5 -82t40 -58zM502 655h-2q-49 35 -112.5 71t-104.5 77l-11 4l-2 2l-2 -2q23 -23 54.5 -46.5t65.5 -45t67.5 -41t62.5 -33.5zM578 395q-2 0 -3.5 -1 t-3.5 -1q-23 -16 -46 -32.5t-46 -30.5q-4 -2 -6 -4l-4 -4h2q2 0 12.5 5t22.5 11t22.5 12t12.5 8q8 4 16 11.5t14 13.5l7 8v4zM659 477h-8h-4q-43 -18 -108.5 -63t-134 -97.5t-133 -103.5t-103.5 -82l-23 -18h2q31 14 84.5 51t110.5 80t110.5 84t88.5 67l26 23q35 27 78 49 l17 10h-3z" />
<glyph unicode="?" horiz-adv-x="657" d="M360 33q0 -14 -2 -26.5t-6 -26.5q-4 -2 -14 -6.5t-14 -4.5q-27 0 -63 8.5t-63.5 24.5t-37.5 43t12 64q-8 4 -15 10t-7 16l2 8q-2 18 18 32.5t37 14.5q63 0 108 -48t45 -109zM217 39v2l-2 4l-2 6q-2 4 -2 8l-2 15l-2 24q0 10 2 19.5t2 19.5q0 2 -2 2q-4 0 -10 -15t-6 -20 v-24h2l2 -12q8 -20 16 -29l2 -2h2h2zM238 106v3h-5l-8 -15v-12l4 -8h4v4v8q0 4 3.5 9t3.5 9zM244 135h-2v-6q2 0 1 -2t1 -2h2v2v8q-2 -2 -2 0v2v-2zM592 942q0 -86 -36 -157.5t-84 -137t-97 -129t-76 -137.5q-6 -16 -8 -32.5t-8 -33.5q-16 -4 -25 -4q-39 0 -64.5 36 t-25.5 71q0 57 38 127.5t84 146.5t85 152t39 143q0 10 -3 29.5t-10.5 40t-16.5 35t-22 14.5q-47 0 -86.5 -26.5t-71.5 -57.5t-54.5 -57.5t-34.5 -26.5q-27 0 -55.5 12.5t-47.5 30.5l-12 27q2 49 23.5 85.5t56.5 61.5t78 38t88 13q53 0 113.5 -18.5t112.5 -53t86 -83 t34 -109.5zM78 1098l10 10q4 4 21.5 20.5t17.5 18.5h-2q-2 0 -4 -4t-4 -2q-16 -14 -27.5 -21.5t-20 -15.5t-16.5 -19.5t-18 -31.5v-25q2 -6 6 -6v8q4 23 12 36t25 30v2zM131 1112q-4 0 -13 -7t-18.5 -16.5t-16.5 -19.5t-7 -16q0 -2 2 -2q4 0 6 6t6 10q4 6 23.5 21.5 t19.5 23.5h-2zM182 1171h-12q-4 0 -14.5 -5t-10.5 -7v-4h2l3 -2q6 0 12 4l12 8l8 4v2zM360 676q-2 0 -6 -9.5t-4 -11.5v-6v-2h2l2 2v2q2 2 7.5 4t5.5 7v10v4h-7zM442 973l-2 -2q-27 -111 -81 -202t-105 -191l2 -3q10 0 12 11.5t6 19.5q25 37 53.5 82t54.5 92t43 95.5 t17 91.5v6zM442 831q-4 0 -10 -10t-11 -23.5t-9 -26.5t-4 -17h2q6 0 6 7t4 11q4 8 14 28.5t10 28.5q0 2 -2 2z" />
<glyph unicode="@" horiz-adv-x="1148" d="M1083 590q0 -78 -20.5 -149.5t-83.5 -125.5l4 7q-16 -23 -48 -36.5t-61 -13.5q-74 0 -115.5 27t-64 70t-27.5 98t-5 111q-18 -20 -39 -46t-43.5 -48.5t-49 -38t-57.5 -15.5q-80 0 -137 52.5t-57 133.5q0 70 43 115t105 70.5t133 33t124 1.5l6 4q20 6 41 0q2 10 17 10 q8 0 22 -3t27.5 -9.5t23.5 -14.5t10 -18q0 -35 -7 -74t-7 -74l2 -75v8q0 -51 1 -105.5t14 -103.5q70 49 89 114.5t19 147.5q0 47 -11 120t-34 144.5t-60.5 129t-88.5 75.5q-18 -6 -39 2t-41 8q-25 0 -49.5 -4t-49.5 -10q-4 -2 -12 -5t-12 -1q-190 -82 -296 -223.5 t-106 -358.5q0 -117 36 -206t132 -154h2q4 -2 21.5 -10.5t19.5 -12.5q51 -23 96.5 -32t98.5 -9q47 0 89 17.5t83 40.5h31q6 0 19 -5.5t27.5 -13.5t23.5 -16t3 -17h2l-12 -22q-39 -33 -85 -45t-95 -12q-127 0 -241.5 36.5t-203 107.5t-139.5 174t-51 237q0 121 45 232.5 t124 196.5t186.5 136t232.5 51q127 0 220 -52t154.5 -137t91 -193.5t29.5 -221.5zM752 125v-2h2v4v2v2h-2v2v-2v-4v-2v-2v2zM655 88q2 0 14.5 4t27 10.5t25.5 11.5t11 9h-2q-10 0 -17 -5t-18 -9h-4q-4 -2 -22.5 -8.5t-18.5 -10.5zM47 461q0 10 -3 24.5t-3 26.5h-2v8v19v2 q0 2 -2 4h-2l-2 -2v-37q0 -6 5 -26.5t9 -20.5v2zM238 1026q-47 -23 -84 -76t-62.5 -117.5t-38 -130t-10.5 -112.5l2 -2v2l2 8q2 16 3 33.5t5 34.5q8 35 15.5 67.5t19.5 67.5q16 47 48 101t67 89q8 10 21.5 15.5t13.5 17.5zM313 598q-4 0 -2 -20.5t6 -20.5h2v4v12v14.5 t-4 10.5h-2zM373 506h4h-4zM416 774q-18 0 -38 -16.5t-35 -40t-25.5 -48t-10.5 -40.5v-9.5t2 -7.5l2 4q0 27 16.5 53.5t37 49t37.5 37.5l16 16zM637 776q-18 -4 -35.5 -13t-34.5 -3q-57 -25 -103 -64t-46 -108q0 -33 8 -58q63 53 111.5 116.5t99.5 129.5zM715 408 q0 12 -1 27.5t-5 27.5q-2 4 -2 20.5t-5 16.5h-2q-2 0 -2 -6q0 -4 -2 -7v-41h2l2 -10q0 -2 4.5 -16t8.5 -14h2v2zM727 778l-2 -4q-6 -8 -10 -29q-6 -27 -11.5 -52t-9.5 -52q-2 -8 -1 -16.5t1 -16.5q0 -14 3 -42.5t10 -41.5l-2 56q0 49 11 98t11 96v4zM999 600q0 8 -2 32.5 t-5 52.5t-6 50.5t-7 26.5q0 -41 5 -80t5 -80q0 -53 -14 -96t-31 -92h2q12 0 21.5 25.5t16.5 58t11 62.5t4 40zM821 543v-8v8z" />
<glyph unicode="A" horiz-adv-x="985" d="M963 12q0 -10 -9.5 -14t-19.5 -4q-68 0 -114 42t-78.5 102.5t-55 128t-43.5 118.5q-23 4 -48.5 4h-47.5q-43 0 -91 -4t-91 -12q-8 -23 -27 -77t-44.5 -108.5t-54 -94.5t-57.5 -32q-12 -4 -18 -4q-18 0 -41 6.5t-45.5 15.5t-41 22.5t-30.5 27.5l-4 23q0 6 13.5 31.5 t28.5 55t29.5 58.5t20.5 43q57 145 101.5 296.5t81 306.5t69.5 309.5t70 306.5v-3l6 13q10 6 19.5 11t19.5 5q49 0 94 -23.5t70 -64.5q-2 -14 1 -27.5t-1 -29.5v6q0 -10 -2 -19.5t-5 -19.5q33 -72 56.5 -194.5t42 -260t36 -269.5t40.5 -222q29 -109 68.5 -217.5t90.5 -208.5 q2 -4 6.5 -10.5t4.5 -12.5zM264 477q0 8 -6 8q-4 0 -8 -7t-7 -15t-6.5 -16.5t-3.5 -10.5q0 -4 5 -4q2 0 14 19.5t12 25.5zM442 1427q-4 -10 -8 -18t-10 -18l2 -2q-4 -10 -18.5 -58.5t-33 -119t-40 -151.5t-40 -155l-32.5 -130t-20 -77q-14 -53 -28.5 -109.5t-33.5 -109.5 q-8 -23 -14 -45t-12 -45l-4 -22l-7 -23v-4l2 4l7 16q14 39 24 77t23 77q33 113 69.5 226.5t70.5 228t61.5 229.5t43.5 232zM467 1282q-33 -70 -49.5 -157t-32.5 -158q-10 -41 -18.5 -81t-16.5 -81l-14 -64l-21 -79l-14 -60l-6 -29v-2v2q2 6 16.5 58.5t34 129.5t41 166 t39.5 165.5t30.5 130t12.5 59.5h-2zM618 471q-41 123 -57 256t-31 262q-29 -129 -60.5 -257t-72.5 -255q29 4 56.5 6t56.5 2t54 -5t54 -9zM819 127q-86 166 -142 351.5t-87 371.5l-2 -2q25 -176 73 -358.5t140 -335.5l18 -29v2z" />
<glyph unicode="B" horiz-adv-x="849" d="M596 1548q4 -2 8 -3t8 -3zM827 1219q0 -70 -29.5 -146t-77.5 -147.5t-105.5 -132t-112.5 -97.5q41 -18 84 -39.5t77.5 -50t56 -68.5t21.5 -92q0 -61 -20.5 -117.5t-58 -99.5t-90 -69.5t-115.5 -26.5q-59 0 -111.5 17.5t-103.5 44.5q2 -41 1 -85t-5 -85l-21 -27 q-12 -6 -27 -6q-53 0 -107 25.5t-83 68.5q2 8 5 18.5t11 14.5v164.5t1 274.5t5.5 324t11.5 315t19.5 249.5t30.5 124.5l22 6q0 4 6.5 4t8.5 4h22q25 0 46.5 -16.5t36 -39t22.5 -50t8 -47.5v8l2 -97q18 33 46 71t60.5 71t70.5 55.5t81 22.5q70 0 128 -30t98 -78t62.5 -110.5 t22.5 -125.5zM96 358q-2 0 -3 -15t-1 -21v-19v-6h2v4l2 6q4 20 4 39l-2 6v6h-2zM117 1296q-12 -31 -22.5 -104.5t-17.5 -169.5t-11.5 -204.5t-7.5 -210t-4 -184.5t-1 -128v-10v-2l4 18l6 66q4 59 7.5 117.5t7.5 117.5q4 84 5 173t3 178t9 176.5t24 168.5zM162 1042h-2 q-2 -4 -2 -12t-4 -12q0 -70 -8.5 -138.5t-8.5 -140.5l-2 -4v-241l2 -2v2v8v35q2 33 4 64.5t2 64.5q0 92 9.5 185t9.5 185v6zM657 338v-2q-4 -4 -8 -7t-4 -7v-7l2 -2h4v4l4 11l4 8v2h-2zM590 610q16 8 32.5 -17.5t26.5 -63t15.5 -76.5t-0.5 -54h2v4l2 15l2 2l2 59q0 12 -5 36 t-12 36q-6 2 -12 13t-15.5 23.5t-20.5 21.5t-25 7zM285 1319q41 59 84 114.5t102 96.5q-4 -2 -9 -5t-9 -7h-2q-12 -10 -41 -38t-58.5 -59.5t-50 -60.5t-16.5 -41zM250 782q68 29 132 94.5t115.5 146.5t83 169t31.5 160q0 27 -6 62.5t-24 58.5q-53 -25 -103.5 -86.5 t-93.5 -136t-77 -150.5t-54 -129zM262 745h2h-2zM518 522q0 12 -5 34t-16.5 40t-26.5 29.5t-36 5.5q-35 12 -87 19t-89 9q-2 2 -10 3q-6 -78 -4 -155t-2 -155q10 -23 32.5 -53.5t42.5 -48.5q43 8 80 35.5t63.5 66.5t42 83t15.5 87zM612 1016q-8 0 -4 -4q-2 -2 -12 -17.5 t-20.5 -32t-19.5 -30.5t-9 -17h2v3l4 6l39 49q-2 2 1 4t5 4q2 4 8 16.5t6 16.5v2zM651 1264l-2 8l-2 -2q0 -72 -26.5 -126t-63.5 -104.5t-74 -99.5t-57 -106v-3v3l4 6l14 22l5 4l22 33l47 62q23 29 44.5 58.5t39.5 61.5q23 39 37 80t14 86zM659 1087v-2q-4 -8 -10 -13 t-6 -15l2 -2v-2h2q-2 0 4 6l11 22v6h-3zM596 1548h-2h2z" />
<glyph unicode="C" horiz-adv-x="833" d="M518 1413q0 -2 -2 -2zM588 299l4 6l-4 -4v-2zM309 1501h2h-2zM809 336q0 -63 -30.5 -112.5t-78 -83.5t-106.5 -52t-115 -18q-117 0 -206 37.5t-149.5 105.5t-92 160t-31.5 200q0 51 5 133t17.5 178.5t33 196t51 184.5t74.5 146.5t102 81.5h-4q10 4 30 8h-2l-4 -2l4 2h2 l8 2h-2l-4 -2q16 4 31.5 6t32.5 2q61 0 125.5 -18t117 -53t86 -89.5t33.5 -123.5q0 -29 -4 -56.5t-18 -52.5h2l-17 -18l-8 -23q-4 -2 -10 -4t-10 -2q-78 0 -78 70q0 33 -4 71.5t-12.5 76.5t-23.5 71t-36 55l-2 -2h-4l-14 -10l4 6q-29 -29 -57.5 -49.5t-53.5 -57.5 q-45 -68 -76.5 -169t-51 -213.5t-29 -221t-9.5 -188.5q0 -31 4 -77t14.5 -94t28 -88t45.5 -59q12 2 26.5 0t27.5 -2q29 0 59 11q47 16 82 40.5t70 55.5l6 4l-2 -2l2 2v2l4 4l6 6h-2q8 10 20.5 29.5t26.5 38t28.5 33t28.5 14.5q29 0 60 -15.5t47 -37.5zM666 1167v7l2 8 q0 2 1 11t0 18.5t-2 16.5t-3 7h-2q-2 0 -2.5 -6t-0.5 -8q0 -10 -1 -21.5t4 -21.5v-6.5t2 -4.5h2zM592 1343q0 -2 3 -4t1 -4q14 -16 19.5 -41.5t6.5 -54.5t-1.5 -56.5t-2.5 -47.5v-2q2 0 3.5 8t1.5 10q12 43 12 90q0 8 -3 25.5t-8.5 35t-13.5 31t-18 13.5v-3zM520 1411h2h-2z M111 317q0 10 -1 25.5t-6 26.5l-2 10v2h-4v-6v-17q0 -8 2 -17t4 -17l5 -9zM193 1092q-23 -55 -34.5 -114.5t-33.5 -113.5q0 -2 -3 -28.5t-8 -59.5t-8.5 -63.5t-3.5 -42.5h2v8l2 22l4 16q3 17 6 35.5t6 35t3 18.5q8 41 17.5 79t17.5 79q4 23 11 45t13 45q4 10 6.5 17t4.5 17 v7zM258 1368q-35 -53 -66.5 -147.5t-56 -197.5t-39 -199.5t-14.5 -155.5v-113.5t20 -110.5v-2v2l-2 17q-2 12 -5 24.5t-3 24.5v10q0 25 -2 49.5t-2 51.5q0 190 51 381.5t121 365.5h-2zM723 393q-4 0 -8 -9t-6 -13l-41 -58q-25 -35 -42.5 -51t-35 -26.5t-35.5 -20.5t-43 -29 l12 -2q-2 0 0 2h2q6 2 13.5 2t13.5 5q10 4 19.5 10t19.5 12q35 25 59.5 58.5t46.5 68.5q6 10 11.5 18.5t9.5 18.5l4 12v2z" />
<glyph unicode="D" horiz-adv-x="851" d="M719 1407h2v-2zM723 1403q0 2 -2 2q2 0 2 -2zM829 1067q0 -61 -11 -152.5t-33.5 -194t-58.5 -204.5t-85 -184t-113.5 -133.5t-144.5 -51.5q-37 0 -72 8.5t-69 20.5q-4 -39 -2 -77t-2 -74l-21 -27q-18 -6 -37 -6q-49 0 -101 26.5t-79 67.5q2 8 5 18.5t11 14.5v164.5 t1 274.5t5.5 324t11.5 315t19.5 249.5t30.5 124.5l22 6q0 4 6.5 4t8.5 4h22q25 0 45.5 -16.5t36 -39t23.5 -50t8 -47.5v8l2 -78q29 51 68 101t98 69l-2 -2l2 2h2h2q2 2 1 2t3 0l8 2l23 2q41 0 74.5 -11t63.5 -29.5t57.5 -41t58.5 -45.5h-2q0 -4 3 -5t5 -3q20 -20 32.5 -43 t26.5 -47q27 -51 37 -120t10 -126zM115 901v59.5v98.5t-1 116.5t-1 113.5t-1 87t-3 41l-3 -2q-4 -72 -6 -141.5t-2 -140.5q0 -72 -2 -142.5t2 -142.5q4 -111 8.5 -221.5t4.5 -220.5l2 -5v5v16v65l2 234v180zM147 518q-4 0 -3 -7t1 -9v-51v-11.5t2 -7.5h3v4v10l2 29v33v6 t-2 4h-3zM160 926q0 35 -4 66.5t-4 66.5l2 28l4 17v6h-2l-6 -18h2l-2 -7q-4 -10 -4.5 -22t-0.5 -23v-401q0 -16 1 -31.5t1 -32.5l3 -2v2v9v75q0 66 5 133.5t5 133.5zM283 1346q-2 0 4 6q10 18 22.5 32.5t28.5 26.5l20 21l15 12l8 6l6 6l2 2l2 4l-2 -2h-2l-4 -2l-6 -6 l-15 -10l-20 -15q-14 -10 -29 -26q-8 -10 -20 -25.5t-12 -27.5q0 -2 2 -2zM317 268q-16 0 -29.5 -9t-29.5 -15q-2 0 -9 -3t-7 -5v-5h2q14 0 27.5 6.5t23.5 12.5l16 12l6 4v2zM610 1249q0 66 -12 118t-59 99q-31 -4 -65 -31.5t-64.5 -70.5t-59 -95t-49 -103.5t-34 -96.5 t-13.5 -72q-4 -182 -8 -362t-4 -363l2 -2h-2l2 -2q10 0 25.5 8.5t30.5 18.5t28.5 22.5t21.5 20.5q70 80 120 193.5t81 237.5t45 250t14 230zM653 1212v9h-2q-8 -80 -14 -161t-27 -159q-10 -41 -20 -79t-21 -79q-8 -27 -16 -51t-18 -49l-27 -65l-10 -29l-11 -29v-2v2 q37 49 68 131t53.5 175.5t34.5 184.5t12 158zM692 1073v15.5t-4 9.5q-16 -53 -20 -115.5t-21 -120.5q-10 -29 -17 -58.5t-18 -58.5l-16 -47l-21 -55l-14 -43l-6 -20v-2v2l4 8l8 26l4 4q2 12 18.5 53.5t34 88.5t31 86t11.5 47q6 14 11 37.5t8 49.5t5 50.5t2 42.5zM717 1409h2 h-2zM508 1458q2 2 4 2q-2 0 -4 -2zM424 1532q4 0 4 2v-2h-4zM717 1409v2v-2zM719 1407v2v-2z" />
<glyph unicode="E" horiz-adv-x="854" d="M414 1479h-4h4zM829 1505l-24 -16q-98 0 -195.5 -2t-195.5 -8l10 2q-41 -4 -88 -8.5t-88 0.5q8 -25 8 -58v6v-218t-2 -218v12v-43t-2 -43h6q25 10 64.5 17.5t83 12.5t84 8t67.5 3q16 0 31.5 -4t32.5 -8q2 -2 14 -7t26.5 -13.5t26.5 -18.5t12 -20q0 -16 -12 -17.5 t-22 -1.5h-91q-25 0 -70.5 -3t-97 -6t-94.5 -3t-61 6q-4 -199 -8 -396.5t-4 -396.5q16 4 71.5 11.5t120 14.5t123.5 12t84 5q12 0 34.5 -6t46 -17t40 -24.5t16.5 -27.5q0 -4 -6 -11q-33 -12 -108.5 -20t-160.5 -12t-163 -5t-115 3q-6 -10 -16 -10.5t-21 -0.5q-51 0 -103 26 t-83 67v8q0 16 14 24h2q0 242 2 479.5t13 479.5q2 39 7 98.5t9 120.5t8 116.5t2 88.5q-10 6 -27.5 17t-17.5 26q0 4 13.5 10t31 12t33.5 9.5t23 3.5l8 6l22 2l4 -2q121 23 245 30t247 7q16 0 48 -6.5t63.5 -18.5t55 -29.5t23.5 -38.5v-6zM100 1405q0 12 1 24.5t-3 22.5 l-2 -2q-12 -119 -16 -239.5t-4 -242.5v-244t-2 -241q0 -10 1 -20t1 -21l2 -4v4v17l2 53l2 90q8 201 13 401.5t5 401.5zM127 1251q0 25 -3 50.5t-1 48.5q0 -106 -5 -213t-5 -213v-133l2 -3v3v10v78q4 74 8 148.5t4 148.5v75zM500 70q-31 0 -70 -7.5t-70 -13.5l-43 -10l-10 -2 l-6 -2l-2 -2q35 0 78 10t78 18l41 7l8 2h-4zM324 899q25 0 52 7t56 7l64 2l14 3h8v2h-96l-25 -2q-14 -2 -26.5 -3.5t-24.5 -5.5l-16 -6l-4 -2zM584 1571l-15 2q-16 2 -32.5 1t-32.5 -1h-44h-51.5t-49 -1t-42.5 -5l11 -4q10 2 22 -1t23 -3h37q45 0 89 5t91 5v2h-6zM645 1565 q-2 0 -5 2t-5 2h-14l-7 -4v-2q0 -2 9.5 -4.5t11.5 -2.5q4 0 10 1.5t6 5.5v2h-6z" />
<glyph unicode="F" horiz-adv-x="747" d="M819 1483q-23 -12 -43 -13q-113 0 -228.5 19.5t-232.5 19.5h-30.5t-30.5 -2q25 -20 30 -44.5t5 -53.5v-438q55 12 121.5 21t124.5 9q14 0 43.5 -7t58.5 -20t50.5 -30.5t21.5 -36.5q0 -8 -8.5 -11t-14.5 -3q-100 -10 -199.5 -19.5t-199.5 -5.5q-2 -96 -1 -210.5t1 -231.5 t-3 -228.5t-12 -199.5l-20 -27q-6 -4 -13.5 -4h-13.5q-53 0 -106 25.5t-84 66.5v9q0 14 14 24q0 164 -2 343t1 362.5t13.5 361.5t32.5 338q-33 4 -50 7t-42 30l-2 10q10 23 43 35t55 16q2 4 28 7.5t58.5 5.5t62 3t38.5 1q43 0 120.5 -3t159.5 -14.5t151.5 -32t96.5 -55.5z M133 1460q-18 -104 -20 -210.5t-9 -213.5q-12 -193 -21 -382t-9 -382l2 -51v-4l2 4q0 127 7 255t16.5 255t17.5 255t8 255q0 55 6 111.5t2 109.5zM147 553q0 16 -2 25q-2 2 -1 5t-1 3h-4l-2 -4l-2 -25v-41l4 -33l2 -2v4v15q2 10 3 21t1 24zM154 1184h2q0 -70 -6.5 -138.5 t-6.5 -138.5v-172l2 -45l2 -22v-2v2v8v29v6l3 41q0 23 1 42t3 42l2 67q4 39 6 77t2 77l-2 94v27v18v6h-2zM399 956q20 0 42 5.5t44 5.5l54 2h10t6 2q0 12 -18.5 10t-30.5 -2h-29l-20 -2q-10 -2 -19.5 -3t-19.5 -5l-17 -8zM539 1573l-4 2l-15 4l-20 4q-10 2 -19.5 4t-19.5 4 q-20 4 -33 4h-86l-57 -6l-2 -2q27 -4 56.5 -3t57.5 1h29.5t30.5 -2l22 -2l29 -4l20 -4h11h2h-2zM102 1597h-2h2z" />
<glyph unicode="G" horiz-adv-x="980" d="M809 336q0 -63 -30.5 -112.5t-78 -83.5t-106.5 -52t-115 -18q-117 0 -206 37.5t-149.5 105.5t-92 160t-31.5 200q0 51 5 133t17.5 178.5t33 196t51 184.5t74.5 146.5t102 81.5h-4q10 4 30 8h-2l-4 -2l4 2h2l8 2h-2l-4 -2q16 4 31.5 6t32.5 2q61 0 125.5 -18t117 -53 t86 -89.5t33.5 -123.5q0 -29 -4 -56.5t-18 -52.5h2l-17 -18l-8 -23q-4 -2 -10 -4t-10 -2q-78 0 -78 70q0 23 -2 54.5t-7 64t-13.5 62.5t-20.5 50q-6 10 -12.5 18.5t-14.5 18.5l-2 4v-2q0 2 -2 2q-4 0 -2 2l-2 -2h-4l-14 -10l4 6q-29 -29 -57.5 -49.5t-53.5 -57.5 q-45 -68 -76.5 -169t-51 -213.5t-29 -221t-9.5 -188.5q0 -31 4 -77t14.5 -94t28 -88t45.5 -59q12 2 26.5 0t27.5 -2q29 0 59 11q47 16 82 40.5t70 55.5l6 4l-2 -2l2 2v2l4 4l6 6h-2q8 10 20.5 29.5t26.5 38t28.5 33t28.5 14.5q29 0 60 -15.5t47 -37.5zM672 1210v2v5v2h-2v-2 v-5v-2h2zM602 1354q4 0 8 -10.5t8.5 -22.5t7.5 -24.5t3 -14.5q4 -12 4 -30.5t6 -28.5l2 -4v2v10v33q0 6 -3 20t-7 29.5t-10.5 28t-14.5 12.5h-2h-2zM520 1411h2h-2zM182 1171q-47 -109 -63.5 -229.5t-16.5 -239.5l2 -22v-23l2 -22v-2v2v8v29v6l3 43q0 23 1 42t3 42 q2 37 5 81t13 79l2 6q18 100 47 194q0 2 1 3t1 3zM229 1405q-53 -57 -90 -159.5t-60.5 -218.5t-33.5 -224.5t-10 -177.5q0 -29 2 -57.5t6 -57.5l2 -4v4v14q0 14 -2 29.5t-2 30.5q0 53 2 107t10 108q23 156 61 312.5t117 293.5h-2zM219 1274v2h-2l-2 -2h2h-2v-2l-2 -2l-2 -4 l-6 -9q-2 -4 -2 -7t-2 -7t-4 -10t-2 -10v-11h2v7l6 14q2 4 10 20.5t8 18.5zM604 193q0 2 -4 2q-2 0 -8 -4.5t-12.5 -10.5t-11.5 -12t-5 -8h2l7 4q6 4 13 10t13 11.5t6 7.5zM690 358q-25 -39 -54.5 -66.5t-62 -50t-67.5 -43t-68 -44.5q31 6 69 27.5t72.5 50t65.5 61.5t47 61 v4h-2zM958 469q0 -10 -12 -15t-29.5 -7.5t-33 -1.5t-21.5 1q-98 0 -197.5 -2t-197.5 -2q-10 0 -34.5 2t-49.5 7.5t-44.5 15.5t-19.5 27q0 6 5 6l2 8l6 8q31 20 76 30.5t94 14.5t97 4h85h78q16 0 49 -7t65.5 -20.5t57 -31t24.5 -37.5zM836 532l-19 5q-25 4 -48.5 7t-47.5 3 h-70q-18 0 -42.5 -5t-41.5 -1q33 -6 67 -6t68.5 2t69.5 1t68 -8v2h-4zM309 1501h2h-2zM588 299l4 6l-4 -4v-2zM516 1411q2 0 2 2z" />
<glyph unicode="H" horiz-adv-x="802" d="M776 1440q4 -53 4 -105.5v-105.5q0 -57 -2 -113.5t-2 -114.5v13q-2 -55 -1 -135t1 -173.5v-192.5t-2 -191.5t-5 -170t-9 -126.5l-21 -27q-12 -6 -26 -6q-53 0 -107.5 25.5t-83.5 68.5q4 20 15 31q0 147 2 290.5t4 290.5q-72 -4 -151 -13t-144 -32q-6 -78 -5 -156.5 t3 -158.5t1 -159t-9 -154l-21 -27q-12 -6 -27 -6q-53 0 -107 25.5t-83 68.5q2 8 5 18.5t11 14.5v164.5t1 274.5t5.5 324t11.5 315t19.5 249.5t30.5 124.5l22 6q0 4 6.5 4t8.5 4h22q25 0 46.5 -16.5t36 -39t22.5 -50t8 -47.5v8v-219.5t-2 -219.5v13l-4 -234q16 6 59 14.5 t91.5 14.5t89 9t55.5 -3q0 31 1 94.5t3 142t6 163.5t10 159t16.5 127t24.5 70l23 6q0 4 6 4t6 4h25q18 0 37.5 -14.5t29.5 -30.5q27 -18 36 -48t7 -60v8zM96 1384q0 12 -1 25.5t-1 26.5l-2 -2q-12 -188 -16 -378t-4 -380q0 -70 3 -138.5t7 -138.5l4 -46t6 -46l2 -4v4l-2 19 l-4 59q-2 25 -3 50.5t-1 49.5v174q0 129 6 256t6 256v213zM131 461v-2l-2 -10q0 -4 1 -22.5t5 -18.5h2v2l-2 6l2 16q0 4 1 11.5t-1 11.5l-2 4v2h-4zM160 1083q0 23 -1 45.5t-3 45.5l-2 24l-2 8l-2 -2q0 -94 -3.5 -187t-3.5 -188v-90l2 -61q0 -20 1 -38.5t4 -39.5 q0 -14 1 -28.5t3 -28.5l4 -29v-2v2v12l-4 37v8l-2 54v106q0 31 1 61.5t3 61.5q2 57 3 114.5t1 114.5zM465 803q-16 0 -31.5 -2t-32.5 -6q-14 -4 -27.5 -8.5t-27.5 -8.5l-18 -8l-6 -4v-2q4 0 5 1t5 1q47 20 99 21t101 14v2h-67zM629 1325q0 16 -3 37.5t-14 36.5 q-2 -12 2 -25.5t4 -25.5q0 -104 -10 -208t-14 -208q-2 -59 -2 -119.5v-120.5v-153l-2 -103l-2 -43v-43v-2v-2v2v2l2 17l4 57v10l4 82l6 162l4 186q4 117 12.5 231.5t8.5 229.5z" />
<glyph unicode="I" horiz-adv-x="319" d="M260 1286q0 -72 -2 -142.5t-4 -142.5v13v-116v-169v-197.5t-2 -199.5t-5 -178t-9 -129l-21 -27q-18 -6 -37 -6q-49 0 -101 26.5t-79 67.5q2 8 5 18.5t11 14.5v164.5t1 274.5t5.5 324t11.5 315t19.5 249.5t30.5 124.5l22 6q0 4 6.5 4t8.5 4h22q25 0 45.5 -16.5t36 -39 t23.5 -50t8 -47.5v8q0 -39 2 -77t2 -77zM106 1049q0 90 3.5 191t-13.5 192l-2 -2l-4 -46h2q8 -193 5 -391t-7 -391l-4 -250l-2 -100l-2 -51v-4l2 4q16 131 19 270t3 270v308zM150 475q-4 0 -3.5 -4t0.5 -6l-2 -37v-8t2 -6v8l3 12q2 4 4 22.5t-2 18.5h-2zM152 1212v9h-2 q-6 -70 -7.5 -146t-1.5 -145v-148q0 -53 2 -107t11 -106v-2v2v13l-2 32v9l-2 49v102v95.5t2 95.5q2 57 2 113.5v113.5z" />
<glyph unicode="J" horiz-adv-x="835" d="M240 766h-11h11zM803 1497l-27 -10q-35 2 -74.5 -6t-74.5 -13q14 -23 26.5 -79t21.5 -130.5t15 -159.5t10.5 -164t6.5 -144.5t2 -100.5q0 -55 -1 -129t-9.5 -153.5t-28 -157.5t-53 -139.5t-87 -99.5t-131.5 -38q-86 0 -159.5 34t-127 91.5t-83 133t-29.5 159.5 q0 61 12.5 128t43 121t79.5 90t123 36q12 0 33.5 -5t43 -14.5t37 -22.5t15.5 -30q0 -8 -28.5 -30.5t-62.5 -64.5t-62.5 -104.5t-28.5 -150.5q0 -68 14 -124t51 -114q47 6 82 45t58.5 97.5t38 128t22.5 137.5t10 125t2 92q0 172 -12 345t2 343v-10v23.5t2 23.5q-4 0 -26.5 -2 t-49 -5t-49 -4t-26.5 1q-25 -4 -49.5 -4h-49.5q-10 0 -26.5 2t-34 6t-29.5 11t-12 20q0 6 7 10t14.5 7t13.5 4t4 1v2h4l14 4l31 11h-4q100 29 204.5 57.5t209.5 28.5q53 0 105 -21.5t85 -66.5zM217 1522h-4h4zM193 713q-2 0 -2.5 -1t-2.5 -1q-20 -8 -39.5 -33t-36 -54.5 t-29.5 -59t-22 -48.5v-4q-12 -43 -18 -79t-6 -83l2 -39v-2q2 0 2 14.5v20.5l2 4q0 31 14.5 88.5t38 116.5t54 106.5t61.5 53.5h-18zM207 655q-2 0 -8 -6h-2q-47 -39 -76 -96t-29 -119v-2v2v2l2 2v4l2 9v2q10 35 22.5 63.5t28.5 58.5l3 3q12 20 25 37.5t30 33.5l4 4zM551 877 v126.5t-1 149.5t-6 145.5t-16 112.5l-2 -2v-19.5t-2 -19.5h2q0 -137 5.5 -273t5.5 -274q0 -106 -7 -213q-2 -29 -4 -58.5t-6 -57.5l-8 -64l-2 -20l-6 -45v-3v3l4 18l10 53l2 13l12 79q6 41 9.5 81t5.5 81q2 47 3 93.5t1 93.5zM590 1081q0 18 -1 37t-3 37v11.5t-2 7.5l-2 -3 q-4 -25 -5.5 -54.5t-1.5 -53.5q0 -27 -2 -54.5t2 -54.5q2 -20 2.5 -38.5t0.5 -38.5l2 -46v-30l4 -17v-2v2l2 7v20v4v31l2 59l2 45v131zM289 1520q57 8 112.5 22t112.5 21q25 4 48.5 6t47.5 4l15 2h2q0 2 -6 2q-66 0 -127.5 -9t-126.5 -24q-16 -4 -32 -9t-32 -9q-2 0 -8 -1 t-6 -3v-2z" />
<glyph unicode="K" horiz-adv-x="917" d="M893 1532l-12 -23l-2 -4h2q-121 -184 -264.5 -362t-303.5 -328v-74l11 -8l133 -90q14 -8 50 -27.5t82 -43t97 -50t93 -50t70 -43t28 -30.5q0 -12 -17.5 -13t-25.5 -1q-47 0 -120 27.5t-150 65.5t-145.5 79t-107.5 68q-8 -76 -8 -153t3 -153.5t3 -153.5t-8 -153l-20 -26 q-12 -6 -27 -6q-53 0 -106.5 25.5t-84.5 66.5v8q0 14 15 24h2q0 326 6 652q-8 4 -22.5 11t-29 16.5t-24.5 18.5t-10 19q0 16 9 24.5t22 12.5q0 4 1 9t1 10q6 2 13 4t13 0l31 26q0 20 1 73.5t3 120t5 141.5t9.5 139.5t15.5 112.5t23 65q8 2 20.5 4t16.5 10h23q25 0 46 -16.5 t35.5 -39t22.5 -50t8 -48.5v8l3 -272q27 33 81 98.5t117.5 136t129 130t118.5 79.5h10q14 0 35 -4t39 -12t30.5 -21.5t10.5 -31.5v2zM168 1284q0 33 -2 59.5t-8 59.5l-2 -2q4 -16 4 -38v-38q0 -166 -14.5 -334t-14.5 -336l2 -71l2 -35v-2v2v14l2 45v10v66l8 131l9 152 q4 78 9 158.5t5 158.5zM190 592q0 10 -4 26q0 8 -2 9h-2l-2 -6h2l-2 -3l-2 -32v-60l4 -37l2 -10v2v11q6 37 6 77v23zM197 1151l-2 16v7l-2 -3q-8 -66 -10.5 -137t-2.5 -139v-121l2 -39v-10l2 -8v-2v2v8v25l2 4q0 78 6.5 155.5t6.5 155.5zM506 575l6 -2q25 -16 57 -32 q6 2 26.5 -11.5t27.5 -13.5l-2 2q-6 4 -7 4q-8 6 -28.5 18.5t-30.5 16.5q-4 -2 -22.5 9.5t-24.5 11.5zM721 1532q-6 -4 -12.5 -10t-10.5 -11q-4 -4 -25.5 -26.5t-51 -54t-64.5 -69.5t-64.5 -72t-49 -57.5t-19.5 -29.5h2q10 10 34.5 38t56.5 62.5t66.5 72.5t64.5 71 t50.5 56.5t22.5 29.5zM653 1382q-8 -6 -31.5 -25.5t-48 -41t-44 -43t-19.5 -33.5v-2q20 27 40.5 46.5t43.5 41.5h2l55 51q4 4 6 11.5t9 7.5q4 0 -2.5 -3t-10.5 -8v-2zM721 1466v-2l-2 -2l-4 -2l-8 -4l-11 -8l-7 -7t-5 -9v-7h4q2 0 6 6.5t6 8.5l11 10l6 6l2 4l2 2v2v2z" />
<glyph unicode="L" horiz-adv-x="784" d="M760 78q0 -12 -12.5 -17.5t-29 -6.5t-32.5 0t-22 1q-53 0 -108.5 -9t-111 -18.5t-110.5 -16.5t-107 -3l-10 -10q-18 -6 -37 -6q-49 0 -101 26.5t-79 67.5q2 8 5 18.5t11 14.5v164.5t1 274.5t5.5 324t11.5 315t19.5 249.5t30.5 124.5l22 6q0 4 6.5 4t8.5 4h22 q25 0 46.5 -16.5t36 -39t22.5 -50t8 -47.5v8q0 -39 2 -77t2 -77q0 -72 -2 -142.5t-4 -142.5v13q-4 -223 -9 -444.5t-5 -444.5q78 23 156.5 34t158.5 11q16 0 51 -6t69 -17.5t59.5 -28.5t25.5 -40zM96 1341q0 25 -2 49.5t0 47.5l-2 -2q-2 -289 -22.5 -575t-20.5 -576 q0 -12 1 -25.5t3 -26.5v-2v-2v2v2l2 21v63v15l2 92q2 47 4 93t7 93q4 53 5 106.5t5 106.5q6 129 12 259t6 259zM102 528h-2q-4 0 -4 -17t-4 -28v-2q0 -6 2 -14t2 -14v-4q0 -4 2 -5h2v5v10q4 20 4 37v30zM125 1108v6h-2q-12 -106 -16.5 -217t-4.5 -217l2 -21v-18v-2q2 0 2 8 l3 68q4 72 11 142.5t7 141.5v93zM500 127q-2 0 -11.5 -1t-20.5 -3t-19.5 -4t-8.5 -4v-2h9q10 0 20 2t20 6q2 2 7.5 2t5.5 2v2h-2zM494 152q-18 0 -60.5 -4.5t-85.5 -12.5t-75.5 -20.5t-32.5 -28.5h2q82 31 153.5 38t151.5 26v2h-53z" />
<glyph unicode="M" horiz-adv-x="1093" d="M455 1030v-2v2zM1071 1286q0 -72 -2 -142.5t-4 -142.5v13v-116v-169v-197.5t-2 -199.5t-5 -178t-9 -129l-21 -27q-18 -6 -37 -6q-49 0 -101 26.5t-79 67.5q2 8 5 18.5t11 14.5q0 246 -3 494.5t20 492.5q-12 -4 -34 -28.5t-51.5 -59.5t-62 -75t-65.5 -72.5t-62.5 -55 t-52.5 -22.5q-16 0 -35.5 5t-36 15t-24.5 24.5t0 32.5q-12 18 -24.5 37t-22.5 39l4 -4q-29 55 -59.5 109.5t-59.5 107.5q-2 -41 -3 -79t-1 -79v13v-116v-169v-197.5t-2 -199.5t-5 -178t-9 -129l-21 -27q-18 -6 -37 -6q-49 0 -101 26.5t-79 67.5q2 8 5 18.5t11 14.5v164.5 t1 274.5t5.5 324t11.5 315t19.5 249.5t30.5 124.5l22 6q0 4 6.5 4t8.5 4h22q12 0 32 -9t28 -20l2 -6q14 -10 26.5 -22t18.5 -29q10 -23 15 -48.5t14 -47.5q70 -193 176 -373l-4 4q10 -16 18 -33.5t18 -33.5q20 27 38 52t36 52q76 111 145.5 220.5t133.5 226.5q8 16 32 16 l2 2q2 10 8.5 18.5t12.5 16.5l23 6q0 4 6 4t8 4h22q25 0 45.5 -16.5t36 -39t23.5 -50t8 -47.5v8q0 -39 2 -77t2 -77zM76 469q-2 0 -2 -6q0 -29 1 -59.5t-1 -57.5l2 -4v-2q2 0 2 11v16q4 20 4 37.5v37.5l-2 21l-2 4v2h-2zM100 1411q-14 -63 -20 -148t-7 -174.5t0 -175.5 t1 -151v-184l2 -17v-2l2 2q0 184 8 365.5t8 367.5q0 29 5 59.5t1 57.5zM123 549v-4q0 -4 1 -7t-1 -8l-2 -4q0 -10 2 -16l2 -2v-2h2v8l2 12v13.5t-2 9.5h-4zM133 1057v6l-2 -2q-14 -78 -15 -170t-1 -170v-31l2 -16v-2v2v6v20v5l2 30q0 16 1 29.5t3 30.5q2 29 5 57.5t3 56.5 l2 4l2 58v73zM473 918q0 16 -11 29.5t-20 27.5q-29 57 -53 115.5t-51 117.5q-2 4 -8 18.5t-13.5 30t-13.5 27.5t-8 12v-2q16 -53 40.5 -106t47.5 -107v-4q25 -39 42 -83t46 -79h2v3zM879 1061q0 8 -1 32.5t-4 28.5q-8 -90 -9 -177t-5 -177v-80l2 -94v-37l2 -53l2 -27v-2v2 v12v33v8l2 50l2 100l4 82q2 53 3.5 104.5t1.5 104.5v90zM883 1475q-6 -4 -31 -34t-57.5 -75t-70.5 -97t-70.5 -99.5t-55.5 -82t-27 -45.5v-2q6 0 7 9l43 63q6 8 27.5 37t51 66.5t62.5 80.5t59.5 81t45 64.5t18.5 33.5h-2zM913 233q0 4 -4 23.5t-10 19.5h-2l-2 -4q0 -6 4 -20 t8 -23q0 -2 1 -8t3 -6h2l-2 6zM913 969q-4 -29 -7 -58.5t-3 -60.5v-440l2 -25v-2l2 2q0 145 4 288.5t4 289.5v6h-2z" />
<glyph unicode="N" horiz-adv-x="913" d="M891 1286q0 -72 -2 -142.5t-4 -142.5v13q0 -14 -1 -58.5t-3 -93.5t-2 -91t4 -48l-4 -6q0 -80 2 -169t2 -179t-3 -178.5t-12 -165.5l-20 -27q-18 -6 -37 -6q-49 0 -101.5 26.5t-78.5 67.5q2 8 5 18.5t11 14.5q0 180 2 358t6 359q-106 121 -200.5 256t-196.5 262l2 -68 q0 -72 -2 -142.5t-4 -142.5v13v-116v-169v-197.5t-2 -199.5t-5 -177t-9 -130l-21 -27q-18 -6 -37 -6q-49 0 -101 26.5t-79 67.5q2 8 5 18.5t11 14.5v111.5v181t2 226.5t4.5 245t7.5 240.5t12 212t17.5 156.5t24.5 79l22 6q0 4 6.5 4t8.5 4h22q18 0 38 -12t35 -30.5t25.5 -40 t12.5 -38.5q20 -8 55 -38.5t76 -74.5t84 -94.5t81 -96.5t66.5 -83t42.5 -53q2 27 4.5 73t3.5 102t3 114.5t7 111t14 91t24 55.5l22 6q0 4 6.5 4t8.5 4h22q25 0 45.5 -16.5t35.5 -39t23.5 -50t8.5 -47.5v8q0 -39 2 -77t2 -77zM82 1391l-2 12l-2 -2q0 -143 -7.5 -285.5 t-7.5 -286.5v-241l3 -19l2 -16v-2v-2v2v2l2 12q0 6 -1 11.5t-1 11.5l2 33v65q0 33 1 65.5t3 65.5l4 109q2 53 4 105t2 106v182zM100 795l-2 -4q0 -12 1 -26.5t-3 -27.5q4 -8 2 -17t0 -18q2 -4 0 -8t2 -4q2 0 2 6v11l2 47v30v6.5t-2 4.5h-2zM113 1235v-2q0 -61 4 -122.5 t2 -125.5q-2 -27 -3 -53.5t1 -52.5l2 -15v-2q2 0 2 8l2 52l8 86t4 86q0 12 -1 31.5t-3 39t-6 37t-8 29.5zM735 1376q-29 -170 -29.5 -334.5t-7.5 -336.5q-2 -35 -2 -68t-2 -68l-2 -34l-2 -37v-4l4 18l4 55q4 51 6.5 102.5t4.5 102.5q0 12 2 59.5t5 113t7 139t7 137t5 107.5 t2 50zM735 756v-2v-4q0 -6 2 -11.5t0 -11.5q-2 -10 -1 -19.5t1 -19.5v-6q0 -6 2 -6h2v6v10q0 2 1 12.5t1 21.5t-1 20.5t-5 9.5h-2zM788 1432q-2 -6 -4 -13.5t0 -13.5q-4 -10 -7 -43t-6 -72t-5 -73.5t-2 -45.5q-2 -35 -4 -66.5t-2 -66.5l-2 -53l-4 -65l-2 -50v-24v-2v2l2 10 l2 31v6l4 45l8 92q4 43 5 86t5 86q4 55 9.5 112.5t5.5 112.5q0 6 -3 7v-2z" />
<glyph unicode="O" d="M477 1286l6 8zM958 752q0 -49 -4 -122t-16 -153t-33.5 -159.5t-57.5 -142t-87 -102.5t-123 -40q-137 0 -254 52t-202 142t-133 210t-48 255q0 92 21.5 200.5t64.5 213t104.5 195t141.5 143.5q33 23 68.5 43t76.5 24q6 8 8 14.5t13 14.5q10 2 23.5 5t23.5 1 q92 -10 159.5 -52t113.5 -105.5t74 -143.5t42 -165t19 -169.5t5 -158.5zM688 1430q-12 -2 -22 0q10 -4 22 0zM389 1391q4 0 4 3t2 5q4 2 15.5 10t11.5 12v4h-2q-6 0 -19.5 -11t-13.5 -19zM377 1378q-55 -31 -103.5 -95t-87.5 -140t-66.5 -155t-39.5 -140q-8 -39 -15.5 -78 t-13.5 -78l-2 -16l-2 -17v-2l2 2q10 27 16.5 63t10.5 62q35 174 108.5 318.5t194.5 275.5h-2zM258 1178q-47 -53 -68.5 -118t-46.5 -130q2 -6 -1 -14.5t-5 -14.5q-18 -84 -18 -172l2 -20v-2q4 0 3 4t-1 6q2 16 2 34.5t2 34.5q4 35 12 70t17 68q6 27 17 60.5t24.5 67t28 65.5 t30.5 57l4 4h-2zM733 862q0 51 -7 129t-21.5 160t-36 154.5t-52.5 113.5q-29 -35 -68.5 -66.5t-72.5 -66.5h2q-57 -61 -103 -140t-79 -166t-51.5 -177t-18.5 -172q0 -59 9.5 -122t30 -123t54 -112.5t82.5 -89.5q6 -4 23.5 -17t28.5 -13q63 0 109 39.5t77 104t49.5 144.5 t28.5 159t13 147.5t3 113.5zM813 809q0 8 -3 34.5t-7 55.5t-8 51.5t-4 24.5q0 -6 -1.5 -13.5t-1.5 -13.5q4 -33 8.5 -66.5t4.5 -66.5v-96q0 -59 -6.5 -121.5t-16.5 -122.5l-8 -47l-4 -25v-2l2 2q16 86 30.5 171t14.5 176v59zM856 844q0 23 -7 78t-19.5 113.5t-29 102.5 t-36.5 44v-2q39 -66 57.5 -141.5t22.5 -151.5q2 -41 3 -78t1 -78l-2 -63q0 -18 -1 -38t-3 -38l-4 -57v-29v-2v2l2 10q2 10 1 18.5t1 18.5l2 8q2 12 2 26.5t2 26.5q4 27 4 53.5t2 53.5zM893 776q-2 2 -2 4l-2 4v2q-2 0 -2 -5v-7q0 -10 -2 -21.5t-2 -21.5l-2 -37l2 -8v-2h2v8 l2 15l6 38q2 8 1 15.5t-1 15.5z" />
<glyph unicode="P" horiz-adv-x="1015" d="M186 1593h2h-2zM993 1223q0 -102 -52 -188.5t-134 -150t-181.5 -98t-191.5 -34.5q-72 0 -139 18q-2 -94 0 -192.5t2 -197.5t-2 -197.5t-12 -190.5l-21 -27q-10 -4 -15 -4h-16q-49 0 -103 25.5t-83 66.5v15q0 4 5 9l9 9h2q0 350 5.5 699.5t37.5 699.5q-29 -2 -60.5 11 t-43.5 42l12 8q43 6 88 26.5t86 20.5l-2 -2l6 2h-2q113 25 234 25q86 0 185.5 -23.5t185.5 -71.5t143 -123t57 -177zM152 1378q2 -20 1 -50t-4.5 -62.5t-7.5 -62t-4 -50.5q-8 -170 -13 -340t-5 -342l2 -29l6 -88l2 -22l4 -23v-2v2v19q0 14 -2 28.5t-2 28.5v12l-2 82 q0 223 13.5 442.5t13.5 442.5zM186 938q0 25 -1 53.5t-5 52.5l-4 19l-2 8l-2 -2q0 -104 -3 -207.5t-3 -208.5l2 -82q0 -10 1 -22t3 -23l4 -24v-2v2v10l-2 31v6l-2 43q0 86 7 173t7 173zM190 438q-4 0 -3 -6t1 -8t-1 -22.5t6 -20.5v4l2 8q2 8 2 16.5v18.5l-2 8v2h-5z M678 1487q8 -4 10 -6q-2 2 -4 3t-4 3h-2zM426 1593q10 2 18.5 1t18.5 -1h10h2v2h-4l-8 2l-35 2h-27l-18 -2l-43 -8q-2 -2 -7 -2t-5 -2l6 -2zM768 1296q0 117 -56.5 161t-160.5 44l-53 -2h20q-59 0 -119.5 -5t-119.5 -5q14 -18 18 -42t4 -46v6q0 -111 1 -218.5t-3 -217.5v12 v-56.5t-2 -56.5h10q74 0 156 38t149.5 98.5t111.5 136t44 153.5zM786 1008v-2l-2 -2q-2 -2 -5 -4.5t-3 -4.5v-2v-2v2h2l4 2q2 2 6.5 5.5t4.5 5.5l-2 2h-5zM836 1266q0 10 -2.5 17t-4.5 17q0 2 -1 11.5t-5 5.5q2 -12 3 -24.5t1 -24.5q0 -47 -16 -83t-38.5 -65.5t-48.5 -59.5 t-46 -65q6 4 10 9.5t8 9.5l4 2q27 31 51.5 57.5t43 55t30 61.5t11.5 76zM901 1255q0 8 -1 21.5t-5 21.5l-2 5q-2 0 -2 -6.5v-8.5q0 -39 -8 -71q-10 -41 -29.5 -77t-32.5 -77h2q10 0 23.5 26.5t26 60.5t20.5 64.5t8 40.5z" />
<glyph unicode="Q" horiz-adv-x="987" d="M963 -2q0 -14 -13.5 -18.5t-23.5 -4.5q-39 0 -70 12.5t-58.5 31t-54 40t-55.5 41.5q-20 -8 -41.5 -9t-44.5 -1q-131 0 -241.5 57.5t-190.5 150.5t-125 211t-45 241q0 90 21.5 198.5t64.5 214t104.5 195.5t141.5 143q33 23 68.5 43.5t76.5 24.5q6 8 8 14t13 14q20 6 41 7 q92 0 158.5 -40t113.5 -106.5t75.5 -150.5t45 -172t21.5 -173t5 -153q0 -74 -6 -162t-23.5 -177t-49 -169t-84.5 -135q8 -10 35.5 -35t57.5 -52.5t52.5 -51t22.5 -29.5zM848 590q6 14 7 47t9 53q0 35 6.5 71t6.5 73q0 14 -2.5 30.5t-4.5 30.5l-4 14l-2 -2l2 -41 q0 -66 -10 -131t-10 -131zM827 461v4l2 4q4 4 7.5 13.5t3.5 13.5v8l-2 4v4h-4v-2l-3 -8q-2 -6 -4 -14.5t-2 -14.5v-8v-4h2zM688 1487q-12 -2 -22 0q10 -4 22 0zM666 1485q-2 2 -7 2q5 0 7 -2zM299 1335q-61 -37 -103 -103.5t-68 -143t-36 -157.5t-10 -147v-2l2 2 q-4 43 7 107.5t31.5 133.5t47.5 131.5t55 100.5q8 12 39 43q15 17 35 35zM166 920v2h-2v-2q-14 -14 -14 -35v-29l2 -2h2v6l4 10q2 12 6 23.5t4 24.5zM217 1116q10 23 21.5 48.5t27.5 41.5v4q-25 -25 -44 -61.5t-32 -71.5q2 -4 0 -8l-4 -8q-6 -23 -10 -47.5t-4 -48.5l2 -13h2 v4v17l2 22q4 29 14.5 59.5t22.5 59.5zM543 463q25 -27 46 -55.5t48 -53.5q31 57 50.5 129t29.5 148t13 149.5t3 139.5q0 51 -7 128.5t-21.5 159.5t-36 155t-52.5 114q-39 -35 -72.5 -65t-68.5 -69h2q-57 -61 -103 -140t-79 -165t-51.5 -176t-18.5 -172q0 -59 9.5 -122.5 t30 -123t54 -112.5t82.5 -90q6 -4 23.5 -17.5t28.5 -13.5q55 0 100 35q-10 14 -34.5 52t-50.5 80t-45.5 79t-19.5 49q0 16 21 16q25 0 51.5 -9t44.5 -28l12 -12l15 -12zM578 397q2 -4 4 -7t0 -7q12 -23 37.5 -57.5t56.5 -70.5t60.5 -66.5t51.5 -43.5v-2v2l-2 2l-2 3l-4 4 l-2 4l-6 8q-31 31 -58.5 64.5t-58.5 64.5l-2 4q-16 18 -29.5 35.5t-27.5 38.5l-14 20q-6 6 -4 6v-2zM813 883q0 53 -3 101t-9 101q-2 16 -4 30.5t-6 29.5q0 2 -3 4l-4 4q4 -68 9.5 -133.5t5.5 -134.5q0 -68 -6.5 -136.5t-16.5 -136.5q-4 -35 -13 -67.5t-13 -67.5l-5 -31v-2 l3 2q2 10 5 24.5t7 25.5v8q12 35 22.5 84t17.5 102t10 104.5t3 88.5zM850 76q0 2 -17.5 18.5t-23.5 16.5h-6q-2 -2 -4 -2t-4 -3h2q4 -4 7 -4t7 -4q10 -6 18.5 -15t20.5 -9v2zM477 1343l6 9z" />
<glyph unicode="R" horiz-adv-x="1015" d="M186 1593h2h-2zM489 569l5 -6zM530 758q23 -23 58 -71t74.5 -107.5t78.5 -124t71 -120.5t51.5 -100.5t19.5 -60.5q0 -10 -19.5 -13t-25.5 -3q-72 0 -124 43t-91 106.5t-70 133t-59 122.5l4 -6l-43 80l6 -14q-16 35 -32.5 67.5t-37.5 63.5q-25 2 -48.5 6t-47.5 10 q-2 -94 0 -192.5t2 -197.5t-2 -197.5t-12 -190.5l-21 -27q-10 -4 -15 -4h-16q-49 0 -103 25.5t-83 66.5v10q0 14 14 23h2q0 350 5.5 699.5t37.5 699.5q-29 -2 -60.5 11t-43.5 42l12 8q43 6 88 26.5t86 20.5l-2 -2l6 2h-2q117 25 234 25q86 0 185.5 -23.5t185.5 -71.5 t143 -123t57 -177q0 -88 -42 -167t-109.5 -140.5t-150.5 -103.5t-163 -54h2zM866 1167v4l4 5q4 4 9.5 13t5.5 13v10l-2 2q-4 0 -11.5 -15t-7.5 -25v-7h2zM135 424v-4l-2 -10q-2 -10 -3 -21.5t-1 -23.5v-7q0 -6 2 -6v6l2 11q4 10 2 21t2 22q2 4 0 10v2h-2zM147 1446 q-10 -35 -15 -107.5t-6 -153.5t-1 -155v-110q-2 -51 -1 -102.5t1 -102.5q0 -57 2 -113.5t2 -114.5l2 -2v2v17l2 51v84q6 205 12.5 405.5t4.5 403.5zM563 668q2 -4 5 -10.5t7 -10.5q6 -12 24.5 -46t44.5 -76t54.5 -88t55 -86t46 -67.5t27.5 -33.5v-2v2l-4 8l-14 21l-2 6 q-35 43 -63.5 91t-55 97t-55.5 98.5t-64 94.5l-4 4zM678 1487q8 -4 10 -6q-2 2 -4 3t-4 3h-2zM557 1585q0 2 -7 3t-9 1l-38 9.5t-40 5.5h-72q-10 0 -30.5 -4.5t-20.5 -6.5h4q2 0 3 -1t3 -1q29 4 55.5 3t55.5 -1q23 0 46 -5t46 -5zM768 1296q0 117 -56.5 161t-160.5 44 l-53 -2h20q-59 0 -119.5 -5t-119.5 -5q14 -18 18 -42t4 -46v6q0 -111 1 -218.5t-3 -217.5v12v-56.5t-2 -56.5h10q74 0 156 38t149.5 98.5t111.5 136t44 153.5zM819 1288q0 6 -2 6q-4 0 -3 -6t-1 -10q-4 -10 -6 -22.5t-6 -22.5q-14 -37 -32.5 -68.5t-41.5 -64.5 q-37 -53 -84 -92t-94 -80l-17 -17h3q27 0 73.5 42t94 100.5t82 123t34.5 111.5zM659 961q6 0 36 24.5t63 56t59.5 62.5t26.5 45h-2q-20 -29 -46 -56.5t-51 -52.5v-2q-23 -16 -42 -37.5t-44 -37.5v-2z" />
<glyph unicode="S" horiz-adv-x="913" d="M891 432q0 -74 -20.5 -145.5t-61.5 -130t-102.5 -94t-143.5 -35.5q-96 0 -196.5 34.5t-182.5 97t-133 149.5t-51 194q0 43 12.5 90t38 88t63.5 67.5t89 26.5q14 0 37.5 -7t47 -17.5t41 -24.5t23.5 -29l-6 -16q-12 -12 -16 -21l-4 -2q-20 -29 -39 -52t-32 -48t-21.5 -53.5 t-8.5 -65.5q0 -31 11.5 -81t34 -97t53 -81t71.5 -34q68 0 119 34t84 87t49.5 116.5t16.5 123.5q0 125 -38 200.5t-96.5 125t-125 80t-125 65.5t-96.5 82t-38 129q0 59 20.5 123.5t58.5 118t92.5 88t119.5 34.5q82 0 159 -38.5t128 -100.5q0 8 -6 8t2 -6t12 -10q8 -8 14 -21 q16 -25 26.5 -50t10.5 -56q0 -37 -11 -81t-46 -62q-6 -2 -13 -4.5t-14 -2.5q-35 0 -67.5 17.5t-48.5 48.5l2 2q0 31 6 60.5t6 60.5q0 8 -5 32.5t-13.5 48t-18.5 41t-22 15.5q-41 -10 -76 -37.5t-61.5 -65.5t-42 -81t-15.5 -82q0 -86 41 -136.5t101.5 -89t132 -74.5 t132 -92.5t101.5 -141.5t41 -222zM645 1368l2 -2q4 -16 7 -36.5t1 -37.5l-6 -30v-9h2v4l4 11q4 10 5.5 23.5t5.5 21.5q-2 8 -1 17t-3 18q-2 0 -7 12q-2 6 -6 12h-4v-4zM637 1198q4 0 4 4v4v2h-2v-2l-2 -2q-2 0 -2 -2v-4h2zM217 1198l-8 -8v-8v-2h2v4l2 4l6 8v2h-2zM369 1499 q-41 -12 -78 -45t-64.5 -76t-44 -91t-16.5 -91v-16.5t2 -16.5l2 -8q4 0 2 3t-2 5v23q0 10 1 18t3 19q4 23 16.5 55.5t22.5 54.5q18 35 40.5 68t53.5 59q23 20 45 31l13 6l6 2h-2zM338 1430q-12 0 -24.5 -11.5t-23.5 -27t-20.5 -32t-13.5 -24.5v-2q-4 -8 -9 -21.5t-9.5 -27.5 t-7.5 -27.5t-1 -21.5q4 4 4 9v9q14 41 31 79t45 71q4 4 9.5 9t11.5 9q2 0 6 2t4 4zM328 659l4 5zM82 360q0 4 -4 11.5t-6 11.5l-2 4v2h-4l-3 -2q0 -4 7.5 -16.5t11.5 -12.5v2zM176 729q-4 0 -8 2t-8 0q-31 -8 -51.5 -35.5t-30.5 -64.5t-14.5 -74t-4.5 -63q0 -4 2 -14.5 t4.5 -20.5t5.5 -18.5t5 -8.5l-2 8l-2 9q-4 10 -4 19v19q0 43 10 89.5t28 85.5q14 29 41 55q4 4 11.5 5t13.5 3q0 2 2 2t2 2zM653 209v-2q-2 -2 -2 -1t-2 -3l-6 -6v-4l-2 -3v-2v-2v2l2 2l2 3l2 4q8 4 8 8v4h-2zM743 498q0 31 -2 60.5t-12 57.5q-6 20 -14 33q-2 0 -2 2t-2 2 q8 -35 14 -69.5t6 -69.5q0 -29 -4 -55.5t-10 -52.5l-15 -62l-14 -45l-12 -33l-4 -16v-2v2l4 6l8 20l2 5l12 28l23 62q22 64 22 127zM799 514q0 12 -4 33l-4 12v-2v-8v-23q0 -12 -1.5 -25.5t-3.5 -25.5q-2 -10 -8 -34.5t-12 -50t-10 -47t-4 -24.5q4 6 11 27t14 43.5t12.5 44 t5.5 29.5l2 2l2 16v33z" />
<glyph unicode="T" horiz-adv-x="598" d="M831 1516q0 -16 -12 -18.5t-24 -2.5h-195.5t-196.5 2q6 -16 9.5 -47t4.5 -65.5t1 -67.5v-51q0 -66 -2 -132.5t-2 -132.5v13q-2 -92 -1 -225.5t1 -274.5t-4 -273t-13 -218l-20 -27q-6 -2 -11.5 -3t-11.5 -1q-53 0 -107 23.5t-87 68.5v10q0 14 14 23q4 242 5 479.5 t11 478.5q4 104 14.5 210t10.5 208l2 4h-85t-120.5 5t-116 20.5t-67.5 46.5q12 10 73.5 16t148.5 9t188.5 4t191.5 1t158.5 -1t91.5 -1q12 0 36.5 -7t50.5 -19t45 -26.5t19 -28.5zM260 354q0 2 -1 7.5t-5 5.5h-2l-6 -23v-16l4 -19q0 -8 2 -8h2v2v6q6 6 6 21v24zM270 1386 q-8 -41 -12 -81.5t-4 -81.5v-764l2 -41v-2l2 2q0 242 12.5 485.5t1.5 485.5zM307 1237q0 33 1 76t-9 76q8 -98 0 -205t-8 -205q0 -57 2 -114.5t2 -114.5l2 -60l2 -31v-2l2 2q0 90 3 179.5t3 179.5v219zM627 1571h-4l-19 2h-22l-45 4l-35 2h-111q-6 0 -25.5 -1t-25.5 -5 q23 -6 49.5 -6h48.5h121l33 2h22l13 2h2h-2z" />
<glyph unicode="U" horiz-adv-x="1044" d="M233 1260v-11v11zM872 537q0 -98 10.5 -180.5t47.5 -174.5q4 -10 8 -18t4 -19q0 -10 -19.5 -14t-29.5 -4q-45 0 -78 14.5t-57.5 38t-42 55t-31.5 66.5q-25 -35 -62.5 -74t-80.5 -53h4q-23 -6 -43.5 -10t-42.5 -4q-106 0 -183 36.5t-127.5 100t-80 145.5t-45 171 t-19.5 180.5t-4 171.5q0 90 3 180t13 180q4 29 13.5 54.5t13.5 54.5q12 6 24.5 12t28.5 6q41 0 72 -25.5t53 -54.5v-33l2 4q0 -16 4 -33.5t4 -33.5v12q2 -92 -2 -184t-4 -184q0 -59 3 -149.5t15.5 -183.5t35 -176t59.5 -130q84 14 142.5 71.5t96 139t60 180t36 198 t20.5 188.5t18 154q2 23 3 63t5 78t15 66.5t36 28.5t51.5 -7t51 -20.5t44 -32t29.5 -40.5q0 -14 2 -26.5t0 -27.5q-6 -94 -18 -189t-25.5 -189.5t-23 -189.5t-9.5 -189zM63 1098q0 66 7.5 130t7.5 128h-2q-18 -53 -22.5 -109.5t-4.5 -111.5q0 -41 -2 -80t2 -80l8 -137 q2 -18 5.5 -38t5.5 -38l2 -29l6 -28l6 -27v-2v2l-2 10l-4 37v8l-6 51q-2 27 -4.5 53.5t-2.5 53.5v207zM104 543q0 8 -4 16t-2 19q-4 6 -4 16t-2 16l-4 8v5h-4q-2 0 -2 -5q0 -4 2 -17t5 -26.5t7 -23.5t8 -10v2zM674 592l-6 -10q6 -12 -15.5 -50t-51.5 -81t-58.5 -81 t-36.5 -51q12 12 30.5 32t37 41.5t34 43t23.5 37.5v2q4 6 12 22.5t15.5 34t12.5 34t5 26.5h-2zM702 657h-2q-2 0 -2 -4v-2q-6 -6 -6 -12v-4h2v2l4 4q6 6 7 14zM778 1333l-2 8l-2 -2q-16 -141 -42.5 -286.5t-26.5 -288.5v-12l2 -2v2l2 8q4 20 4 41.5t4 42.5 q14 117 37.5 235.5t23.5 235.5v18zM823 1341l-2 -2q-10 -41 -22.5 -111.5t-22.5 -146t-17 -145.5t-5 -109l2 -2v2v9l4 28l6 45q10 57 22.5 114.5t16.5 115.5l2 4q0 47 8 95t8 97v6z" />
<glyph unicode="V" horiz-adv-x="892" d="M889 1401q-86 -92 -148.5 -222t-108.5 -274.5t-80 -289t-65 -265.5q-10 -41 -18 -85t-25 -85q4 -10 6.5 -22.5t2.5 -22.5q0 -18 -10.5 -22t-26.5 -4q-18 0 -48 7t-58.5 20.5t-52.5 30.5t-30 36q-12 39 -34.5 135t-48 219t-51 260t-46 259t-34 212t-13.5 123l2 16 q8 18 33 19q55 0 93 -27.5t63.5 -71.5t40 -99.5t24.5 -113t16.5 -110.5t14.5 -92l94 -451q4 20 17.5 73.5t33 127.5t44 161t53 174t59 169t62.5 145.5t62.5 101t59.5 37.5q33 0 69 -19t48 -50zM63 1317q0 -16 12.5 -77.5t29 -145.5t35 -177.5t36 -173t28.5 -133t13 -55.5v-2 v2l-2 12l-8 41l-2 8q-4 16 -6 29.5t-4 30.5l-21 119l-16 98q-8 47 -16.5 95t-20.5 95q-12 49 -25.5 99.5t-23.5 101.5q-2 6 -4 20.5t-5 14.5v-2zM252 670l-2 2v8l-8 27v6l-11 39l-18 77l-8 32t-11.5 50.5t-9.5 48t-4 25.5q-14 33 -18 73t-10 75l-7 43l-2 6v-2 q0 -37 12.5 -109t30 -149.5t36 -147t28.5 -102.5zM270 365q-2 4 -6 28.5t-11 52t-14.5 50t-15.5 22.5v-6l2 -2l23 -86q4 -16 9 -29.5t9 -27.5q0 -2 2 -9.5t4 -7.5v4zM662 1178q-37 -66 -66 -143t-51 -146l-31 -88l-10 -37l-4 -19v-2q2 0 5 11.5t7 25.5q12 41 27.5 79 t29.5 77q4 12 19.5 49t32 79t30 76t11.5 38zM711 1331q-35 -47 -61.5 -104.5t-49.5 -112.5q-23 -53 -45 -115l-25 -75l-8 -31l-12 -43l-4 -23v-2v2l4 9l8 28l2 6l12 39l27 80q14 39 29.5 79t32.5 77l16 35l18 37l54 108q0 2 1 3t1 3z" />
<glyph unicode="W" horiz-adv-x="1406" d="M954 115q0 4 -9 7t-11 3q4 -2 10 -6t10 -4zM125 1378q-2 0 -2 2zM125 1378l6 -4q-2 2 -3 2t-3 2zM1522 1360q-27 -70 -62 -135.5t-63 -132.5q-70 -162 -125 -327t-109 -331q-23 -72 -51.5 -142.5t-46.5 -141.5l-8 -11q0 -6 1 -11t1 -9q0 -12 -12.5 -16.5t-22.5 -4.5 q-39 0 -83 23.5t-69 52.5q-12 14 -25 61.5t-26.5 110t-26 136t-21.5 140t-14 122t-5 81.5q-51 -154 -103.5 -299t-85.5 -305q4 -10 11.5 -28.5t7.5 -28.5q0 -8 -15.5 -12.5t-23.5 -4.5q-18 0 -47 7.5t-58.5 20.5t-53.5 30.5t-30 36.5q-37 102 -64.5 207.5t-52 212t-50 212 t-58.5 209.5q-6 16 -26.5 65.5t-44 102t-42 93t-18.5 42.5l2 17l14 8q51 0 103 -29l4 -2h-2l31 -20q-4 6 -9 6q-4 0 0 -2t7 -2q12 -8 18 -14l22 -23q39 -35 62 -78q37 -63 63.5 -126.5t49.5 -133.5q41 -125 70.5 -254t58.5 -256q4 20 19 74.5t36.5 123t48.5 142.5 t55.5 136.5t55 102.5t49.5 40q31 0 62.5 -17.5t43.5 -46.5q-8 -18 -21.5 -34.5t-19.5 -34.5l2 -2q14 -6 25.5 -13.5t19.5 -21.5q20 -117 37 -229.5t51 -225.5q12 39 36 129t55.5 201.5t69.5 232.5t81 220.5t89 163t93 63.5q37 0 75 -19.5t61 -48.5q6 -28 4 -53zM268 770 q-29 117 -62.5 228.5t-84.5 220.5q0 2 -5 10t-7 8l-3 -2l5 -16h2v-7q47 -111 82.5 -220t70.5 -224h2v2zM324 610q0 16 -6.5 31.5t-12.5 32.5l-14 35l-2 6h-4l-2 -4q0 -4 5 -20.5t11 -35t13 -33t12 -14.5v2zM330 698q-23 88 -43.5 179.5t-48.5 177.5q-2 4 -8.5 20.5 t-14.5 34.5t-15 32.5t-10 14.5v-2q16 -49 33 -111.5t33 -125t33.5 -121t38.5 -99.5l2 -2v2zM524 440q-2 0 -7 -11t-5 -15v-6h2v4q0 4 1 5t1 3l10 14v4zM545 494v2l2 8l6 28q2 10 6 22.5t8 23.5q33 94 68 199.5t86 191.5q4 6 7 13t9 7l-2 -2q-14 -8 -18 -16 q-6 -10 -12.5 -19.5t-12.5 -19.5q-10 -23 -18 -44.5t-19 -43.5q-35 -88 -65.5 -171t-46.5 -177zM854 461q0 39 -8 84t-19.5 90t-22.5 89t-18 85q-2 2 -1 3t-3 1q-2 0 -2 -6v-8q0 -18 8.5 -69.5t20.5 -107t24.5 -104.5t20.5 -63v6zM1102 817q-2 -2 -2 -4q-2 -2 -2 -4 q-8 -23 -16.5 -42t-12.5 -42q-2 0 -3 -8t-1 -10q-4 -10 -8 -30t-4 -32h2v2l2 10l2 2q4 37 24.5 80t20.5 78h-2zM1280 1178l-6 -13q-6 -14 -11.5 -28.5t-11.5 -26.5q2 -4 -6 -27.5t-10 -27.5v-6v-2q0 4 2 6q0 2 1 3t1 3q6 16 15.5 34.5t13.5 34.5q4 12 8 23q4 10 6 17.5 t2 11.5q0 2 -2 2zM1327 1382q-18 -14 -38.5 -51t-39 -79t-34 -82t-21.5 -60l-4 -16q-4 -15 -10 -34.5t-11.5 -36.5t-7.5 -24l-18 -59l-13 -45l-6 -21v-2v2l4 9l11 26l2 6l14 41l29 80q14 37 27.5 75t29.5 75q20 47 37.5 98t46.5 92l4 4z" />
<glyph unicode="X" d="M1098 1397l-4 -15q-70 -74 -132.5 -138t-122 -130.5t-116.5 -137.5t-117 -157q8 -20 33 -78.5t56.5 -137.5t66.5 -165t64.5 -158.5t49 -123t19.5 -56.5q0 -10 -17.5 -13t-25.5 -3q-18 0 -47 8t-56.5 20.5t-49 30t-29.5 35.5l-185 455q-84 -135 -163.5 -267.5 t-184.5 -252.5l2 4l-20 -19h-33q-23 0 -48.5 15.5t-37.5 33.5v29q0 16 7 34.5t9 35.5v-2q20 74 62.5 162t93.5 176t105.5 171t97.5 146q-8 20 -25.5 62.5t-40 95.5t-45 111.5t-42 109.5t-32 89t-12.5 52l6 17q18 6 35 6q66 0 110 -40t75.5 -97.5t53 -121t44.5 -110.5 q27 37 83 106.5t120.5 140.5t127 123t103.5 52q16 0 38.5 -6t45 -17.5t42 -24.5t30.5 -26zM410 1049q16 -41 37.5 -93.5t46 -106.5t50 -104.5t48.5 -87.5v2q0 4 -11.5 33t-28.5 68t-37.5 84t-40 85t-34 68.5t-18.5 36.5q-2 2 -6 9.5t-6 7.5v-2zM283 1223q6 -8 31.5 -63.5 t62.5 -136.5t79 -175t78.5 -177t64.5 -143.5t34 -74.5q4 -10 6 -22.5t12 -12.5v2q-16 37 -42.5 101.5t-58.5 141t-66.5 159.5t-66.5 156t-58.5 129t-41.5 79q-4 4 -16 21.5t-18 17.5v-2zM889 1432q-14 0 -41 -20.5t-58.5 -52.5t-65.5 -70t-62.5 -72.5t-46 -62.5t-17.5 -38h2 q33 55 63.5 95t65.5 75t74 67.5t88 76.5v2h-2zM137 113l-2 -2z" />
<glyph unicode="Y" horiz-adv-x="929" d="M905 752v12q-4 -104 -24.5 -223t-71.5 -219.5t-136 -167t-216 -66.5q-49 0 -117 17.5t-131.5 50t-107.5 81t-44 107.5l2 29l15 20l14 6q12 16 29 29l37 2q16 0 41.5 -13.5t40.5 -23.5q12 -16 20 -42.5t15.5 -54.5t15.5 -52.5t18 -34.5h6q80 0 141.5 45t104.5 111.5 t68.5 144.5t38.5 143q-41 -45 -101 -63h4l-26 -10h-2q-25 -10 -55.5 -10.5t-57.5 -0.5l-4 2q-35 -2 -71 10.5t-66 26.5q-100 45 -156.5 109.5t-85.5 142.5t-36 168t-7 189q0 16 2 44.5t5 59.5t8 57.5t14 38.5l-4 -4l6 14v-8q0 23 8 39l15 5t16 3q33 0 67.5 -16t50.5 -45 t23.5 -93.5t11.5 -144.5t10.5 -167t19.5 -158.5t38.5 -117.5t70.5 -46q90 0 149.5 43t96.5 112.5t55.5 156.5t28.5 176t17.5 172t19.5 143v-2l12 12h9q25 0 50 -14.5t42 -32.5q29 -158 46 -318.5t17 -320.5v-53zM96 807q-14 57 -22 107.5t-13.5 99.5t-7.5 100t-2 113 q0 29 -4 61.5t0 61.5q-2 2 -2 4t-2 2q-6 -55 -7 -114.5t-1 -115.5q0 -33 3 -77.5t9 -91t18.5 -87.5t30.5 -65v2zM111 920q0 4 -3.5 11l-5.5 11l-2 2q-10 29 -12 68t-1 81t3 81.5t2 70.5v2q0 2 -2 2q-16 -76 -16 -149q0 -10 -1 -19.5t1 -19.5q4 -29 10 -74t25 -67v-2z M131 827q0 4 -4 17.5t-6 19.5q0 2 -1 6t-3 4h-2l-2 -2v-16q0 -4 6 -17.5t12 -13.5v2zM199 1358q0 -2 2 -2zM135 236q-6 4 -4 6q-12 14 -16 37.5t-9 42.5l-8 22h-6v-4v-8q0 -12 3 -26.5t5 -26.5q8 -8 14.5 -27t22.5 -19zM143 293q0 8 -4 21.5t-6 23.5q0 4 -2 17.5t-6 13.5h-2 v-4v-13q0 -4 2 -13t5 -20.5t6 -19.5t7 -8v2zM602 369l-4 -4q-4 -4 -8 -8.5t-4 -10.5v-6q2 0 10 11t8 14v4h-2zM756 1044q0 6 1 14.5t-3 14.5q0 -86 -11.5 -165t-29 -154.5t-38 -151.5t-36.5 -158l-2 -2l2 2q27 59 48.5 136t36.5 159t23.5 160.5t8.5 144.5zM793 1145v10t-5 8 h-2v-6l2 -98l3 -35v-20v-13l2 -8v-4l2 -2v-4v2v2v10v2q2 16 3 33.5t1 34.5q0 10 1 18t-1 17zM340 680q8 0 12 -2q-6 0 -10 2h-2zM410 571h-4h4z" />
<glyph unicode="Z" horiz-adv-x="1044" d="M1022 158q-8 -20 -35 -21q-49 0 -92 18.5t-82 47.5q-4 0 -4 2q-33 6 -60.5 8t-62.5 2q-111 0 -231.5 -25.5t-229.5 -48.5q-4 -10 -14 -11t-21 -1q-25 0 -47 -1t-42.5 2t-39 14.5t-32.5 33.5l6 6q-10 6 -21.5 18.5t-11.5 22.5q0 4 19.5 42t43 85t46 90t28.5 56 q45 92 102.5 208.5t125 233.5t144.5 221.5t159 169.5q-86 0 -172 -5t-172 -5h-63.5t-103 6t-95 21.5t-41.5 48.5q0 8 15 12t34.5 7t37 5t21.5 2q123 14 242 20.5t241 6.5q39 0 90.5 -3t101.5 -14.5t95 -30t72 -48.5l8 -27l-25 -12h-34l4 -10v-11q-6 -14 -29 -35.5t-33 -31.5 l6 8q-92 -100 -168.5 -213t-142 -232.5t-126 -243.5t-120.5 -245q59 18 124 26.5t126 8.5q20 0 62.5 -6t93.5 -16.5t104.5 -27t97.5 -36t71.5 -42.5t29.5 -50zM397 1413h-4h-14h-19h-38q-31 0 -62 -3t-61 -5l-31 -4l-12 -4h2l8 -2v2l2 -2q55 8 115.5 6t113.5 12h2h-2z M637 1143l-7 -7t-7 -6q-63 -70 -118.5 -145.5t-90.5 -163.5v-2l2 2l14 27q20 35 41 68.5t43 68.5q16 27 36.5 54.5t41.5 50.5l43 49l4 4h-2zM328 745q2 0 5 4.5t3 6.5l41 80q35 61 71.5 120.5t75.5 118.5q14 23 28.5 41.5t31.5 38.5l86 109l6 6l-2 2q-49 -43 -100.5 -107.5 t-99.5 -137.5t-87 -145.5t-59 -133.5v-3zM315 702v3q-4 0 -17 -21.5t-15 -26.5l-4 -4q-2 -2 -3 -4q-2 -8 -6 -15t-4 -16q0 -4 2 -4v2l2 2l4 11q6 10 11.5 19t13.5 18q0 2 9 16t9 18zM532 299h-14l-55 2h-31q-14 0 -34.5 -2t-35.5 -6q0 -2 -10 -5t-21.5 -7.5t-20.5 -7.5 l-9 -3q0 -4 4 -3t6 1q45 0 97.5 12.5t99.5 14.5q8 0 14 -1t15 3v2h-5zM588 301q-2 0 -11.5 -3t-9.5 -5v-2q0 -2 2 -2h4l25 -2q4 0 14.5 2t10.5 6h-5l-20 6h-10zM121 1331h2h-2z" />
<glyph unicode="[" horiz-adv-x="540" d="M473 -174q-4 -4 -54 -10t-113.5 -12.5t-123 -10.5t-82.5 -4q-35 0 -59.5 33t-40.5 61v17q0 137 14.5 279.5t24.5 277.5q12 186 24.5 368.5t26.5 368.5q31 12 67 9t68 -3q35 0 73 2t73 12q8 0 22.5 -3t29.5 -9t26.5 -14t11.5 -19q0 -18 -32 -27t-73 -12.5t-77.5 -2.5 t-49.5 1q8 -86 9.5 -171t1.5 -171q0 -229 -15.5 -451t-31.5 -450q35 4 69.5 11.5t67.5 7.5q39 0 73.5 -16.5t63.5 -41.5zM276 1174q10 0 24.5 4t25.5 6q2 2 8 2t6 2h-8l-15 2q-4 0 -23.5 -6t-19.5 -10h2zM109 643q-4 0 -3.5 -4t0.5 -6l-2 -62q0 -16 -1 -29.5t1 -27.5v-31 v-24l2 -17l3 -8v-2v2v2v13v2v16l2 33l2 26v52v27.5t-2 27.5l-2 6v4zM123 1063q0 10 -1 17t-3 18q6 -45 -2 -125t-19.5 -170t-21.5 -180.5t-10 -155.5q0 -57 1 -114.5t5 -114.5l4 -39l6 -39v-2l2 2q-4 35 -5 73.5t-1 73.5q0 190 22.5 379t22.5 377z" />
<glyph unicode="\" horiz-adv-x="720" d="M655 -61q-4 4 -14 4q-6 0 -6 -3t6 -8v-8q-16 -8 -25 -8q-41 0 -87 25.5t-68 60.5q-47 76 -84 161t-69 175t-59.5 180t-55.5 174q-16 45 -48 108.5t-64 131t-56.5 130t-24.5 107.5q0 23 1 38.5t30 15.5q41 0 81 -19.5t64 -52.5q6 -72 31.5 -138.5t58.5 -133t67 -131 t56 -130.5q57 -160 109.5 -319.5t132.5 -310.5q6 -12 13 -24.5t11 -24.5zM424 289v2l-4 12l-12 35l-5 8l-18 51l-41 105q-18 49 -37.5 97t-42.5 97q-6 16 -24.5 57.5t-39 83.5t-39 75.5t-24.5 37.5l10 -24q0 -2 1.5 -4t1.5 -4q31 -76 62.5 -157t65 -162t70.5 -160t76 -148 v-2zM424 262q-6 8 -24.5 49t-39 86t-40 81t-27.5 36l-2 -2l4 -10q2 -2 12 -20.5t22.5 -42t21.5 -44t11 -24.5v-2q14 -27 27.5 -58.5t34.5 -54.5v2v4z" />
<glyph unicode="]" horiz-adv-x="430" d="M258 -252l-2 2l2 -2h4h-4zM360 1151q0 -27 2.5 -52.5t2.5 -51.5q0 -279 -11.5 -552.5t-19.5 -551.5v-49t-2 -66t-10.5 -57.5t-26.5 -24.5h-18.5t-18.5 2q0 4 -4 2t-6 -2q-18 -2 -36.5 -2h-37.5q-12 0 -41 4t-58.5 13.5t-52 21.5t-22.5 29q0 6 8 10q4 2 8 2h-6q18 6 38 5 t38 -1q31 0 59 6q-4 25 -4 50.5v50.5q0 295 18.5 590.5t16.5 590.5q-4 0 -16.5 1t-23.5 1h-17t2 0h-8q-33 0 -61.5 15.5t-49.5 38.5l14 16h7l4 2h2l2 2l-2 -2q6 2 33.5 8t61.5 12.5t61.5 10.5t33.5 4q35 0 76.5 -23.5t64.5 -52.5zM213 934q0 14 -3 28.5t-1 28.5l-2 -2 q-16 -174 -19.5 -349t-3.5 -349v-49.5t4 -48.5l2 -3v3v12l3 51q0 94 6 186q4 90 9 179.5t5 179.5v133zM240 662l-2 -7l-2 -18q-4 -18 -6.5 -36.5t-2.5 -39.5l-2 -12v-29l2 -35l2 -8h2v4v11q0 39 5.5 76.5t5.5 74.5v14v5h-2z" />
<glyph unicode="^" horiz-adv-x="778" d="M694 338h-8q-49 0 -87 34t-67.5 89t-52 122.5t-44 136t-42 129t-45.5 99.5v2q-6 -27 -20.5 -80t-34 -119.5t-43 -137t-47 -133t-46 -106.5t-40.5 -57q-4 0 -10.5 -1t-10.5 -1q-29 0 -50 14.5t-42 32.5l-2 25q0 12 17.5 62.5t43 119t58.5 147.5t62.5 151.5t54 131 t34.5 84.5l17 17q12 4 20 4q10 0 19.5 -5t17.5 -9q10 -10 17.5 -22.5t3.5 -27.5q70 -63 119 -146t87.5 -175t70.5 -186.5t67 -178.5zM76 471q2 0 3 4t3 6q4 4 12 21.5t8 23.5l-2 2v2q-6 0 -16 -24.5t-10 -30.5zM227 893l11 22l14 35l10 23l8 14v2l2 4h-2q-31 -35 -52 -91 t-38 -99q-10 -25 -16 -50.5t-14 -52.5q-4 -10 -5.5 -20t-5.5 -21q-4 -12 -7 -25t-7 -26l-6 -18l-4 -19l-4 -18v-2v2l4 6l8 23l2 6l10 35l25 67q12 33 21 65.5t22 65.5v6zM575 432q0 4 -13 48t-30.5 96.5t-33 96.5t-15.5 46t-7 19.5t-17 37t-20.5 36.5t-14.5 24l-4 4v-2 q0 -4 10 -33t26.5 -72t36 -93t37 -94t29.5 -76t16 -38z" />
<glyph unicode="_" horiz-adv-x="1054" d="M973 -225q-59 -10 -118.5 -14.5t-119.5 -4.5q-20 0 -78.5 2t-136.5 5.5t-163 8.5t-159.5 11t-127 14t-62.5 17l-8 14l2 4l10 6q37 6 73 8t73 2q117 0 233.5 -9t233.5 -9q63 0 125.5 11.5t123.5 11.5q10 0 29 -6.5t37 -15.5t32.5 -20.5t16.5 -23.5zM381 -174q-14 0 -21 -4 q51 0 100.5 -9.5t100.5 -9.5h64.5t64.5 7q-78 0 -155.5 8t-153.5 8zM778 -184q0 2 -3 0t-7 0t-21.5 2t-17.5 -4v-2q0 -4 4 -3t6 1h21.5t17.5 4v2z" />
<glyph unicode="`" horiz-adv-x="403" d="M0 1456v2v-2zM336 1157q0 -12 -11.5 -15t-19.5 -3q-18 0 -39.5 5t-43 14t-40 21.5t-28.5 26.5q-14 20 -40 55t-51.5 72t-44 71t-18.5 52q0 4 4 12l39 2q18 -8 31.5 -16t29.5 -20l8.5 -8.5t2.5 -0.5q10 -10 20 -19t21 -20v-2q8 -6 37.5 -38.5t61.5 -71.5t56.5 -74 t24.5 -43zM184 1223q0 4 -11 16t-13 16q-23 33 -43.5 66t-42.5 65q-8 10 -13.5 22.5t-13.5 23.5q-6 6 -4 6v-11q0 -14 16.5 -42.5t38 -59.5t43 -58.5t33.5 -39.5q4 -2 5 -4t5 -2v2z" />
<glyph unicode="a" horiz-adv-x="894" d="M424 977q2 2 6 2q-2 0 -4 -2h-2zM735 924h2h-2zM420 977h4h-4zM872 74q0 -12 -13 -15.5t-23 -3.5q-90 0 -145.5 36t-87.5 93.5t-45 128t-21 140.5q-8 -29 -25.5 -81.5t-42.5 -105.5t-51.5 -95t-52.5 -50l2 2q-16 -10 -22.5 -12t-25.5 -7h9q0 -2 -10.5 -2h-12.5 q-59 0 -114.5 21.5t-97.5 59.5t-67.5 90.5t-25.5 111.5q0 84 30.5 187.5t87 193.5t136.5 150.5t176 60.5l4 2h15q23 0 52 -5t50 -16h20l9 21l16 18q-4 4 9 7.5t16 3.5q35 0 64.5 -17.5t45.5 -46.5l-6 8l10 -28v2l2 -8v2v2q10 -78 13.5 -158t4.5 -160t4 -158.5t15 -158.5 q6 -35 16.5 -80t28.5 -76q2 -4 10.5 -9t17.5 -12.5t17 -16.5t8 -19zM178 758q0 12 17.5 31.5t39 38t43 35t29.5 24.5l4 6l-2 2q-41 -12 -72.5 -40t-57 -61.5t-46 -71.5t-37.5 -75q-10 -23 -17 -47.5t-18 -48.5q-4 -10 -7 -19.5t-5 -19.5l-4 -20v-3q2 0 3 4.5t1 6.5 q4 16 11.5 32.5t13.5 32.5q6 14 19 43t28.5 58.5t31 55.5t25.5 36zM319 846q2 0 4.5 2t0.5 4q-29 -2 -55.5 -23.5t-50 -51t-42 -62.5t-29.5 -58l-32 -75q-8 -20 -11 -31l-4 -16v-3q10 0 10.5 11.5t4.5 19.5q10 23 20 42.5t21 41.5q10 23 28.5 54.5t40 61.5t45.5 53.5 t49 29.5zM260 748q-12 0 -25.5 -23t-17.5 -33q-2 -4 -3 -10t-3 -10v-6q2 0 4 5t2 7q4 10 14.5 22.5t16.5 22.5l16 18l2 7h-6zM260 186q0 2 -4 2h-6q-8 4 -15.5 6.5t-13.5 6.5l-2 4q-10 6 -12 21.5t-12 15.5l-2 -4q0 -27 22 -45q2 0 15.5 -4.5t17.5 -4.5h10zM502 856 q-53 -29 -102.5 -94.5t-88.5 -144t-62.5 -159.5t-23.5 -141q0 -51 15 -92q33 8 63.5 52.5t57 108t49 138t41 142t32 119t19.5 71.5zM621 567q-8 43 -5.5 92.5t2.5 94.5l-2 4v2h-2v-2l-2 -6q-2 -10 -4 -22.5t-2 -22.5v-66q0 -12 2 -29.5t6 -29.5q2 -4 1 -10.5t3 -6.5h3v2z M621 907q-23 -61 -34.5 -120.5t-11.5 -124.5q0 -16 -1 -32t1 -32q4 -45 7.5 -88t9.5 -88l4 -45l4 -23v-2q4 0 3 4t-1 6l-2 37q-4 47 -6 97.5t-2 97.5v98q0 51 9 105.5t20 103.5q2 0 2 6h-2zM676 825l-2 6v-2l-2 -6l-4 -12q-4 -29 -9.5 -60.5t-5.5 -62.5v-47q0 -18 1 -51 t4.5 -68t8.5 -65.5t11 -44.5v8z" />
<glyph unicode="b" horiz-adv-x="804" d="M793 778q-2 -59 -19.5 -135t-47.5 -153.5t-73 -150.5t-97 -124t-121.5 -74.5t-145.5 -1.5q-4 -12 -4 -26.5t-2 -26.5q-12 -4 -19 -4q-14 0 -35 8q-27 -4 -58.5 4t-61 25.5t-50 42t-24.5 53.5q-20 158 -27.5 315.5t-7.5 315.5q0 74 1 179t8 214t21.5 210t43.5 167 q10 8 19 14t22 6q51 0 86 -23.5t61 -64.5l2 -49q0 -147 -19.5 -296.5t-19.5 -299.5q0 -59 2 -118.5t0 -118.5q8 49 25.5 118.5t48.5 134t77 109.5t107 45h-4q33 0 61.5 -9t57.5 -11h-4l6 -2l-2 2q8 0 14 -6l-4 2h-2h2q53 -27 89 -55.5t63 -86.5l-6 11q16 -27 27.5 -69 t9.5 -71zM109 1450q-16 -37 -26.5 -108.5t-17 -152.5t-8.5 -159t-2 -125v-121q0 -82 6.5 -163.5t14.5 -161.5l2 -2v4v16l-4 64q-2 55 -4 109.5t-2 109.5v137q0 96 5 189.5t9 189.5q2 45 13 88t16 86h-2zM129 1362q0 -25 -10 -56.5t-15 -58.5q-8 -49 -8 -102v-103v-47 q4 4 3 12.5t-1 14.5l2 4q0 35 6.5 84t14.5 99.5t12 94.5t2 70zM154 600v50v107.5v136.5t-1 135.5t-3.5 106.5t-4.5 50q-4 -16 -4 -31v-324q0 -86 4.5 -171t4.5 -171l2 -65l2 -33v-2l2 2v15zM592 1053v2v-2zM293 233q-2 0 -4 3q-2 0 -4 2q-18 18 -29 36q-2 4 -2 8.5t-4 4.5 h-2l-2 -2h2h-2v-2l2 -4v-3v-6l4 -10q2 -6 10 -14q2 -4 10.5 -9.5t12.5 -5.5h10v2h-2zM582 918q0 37 -17 75l-2 2q-51 -4 -89 -48t-66.5 -110.5t-47 -146.5t-32 -157.5t-19.5 -144t-10 -103.5q61 43 112.5 119.5t89.5 167t59.5 182.5t21.5 164zM643 819v16.5t-4 16.5 q-10 -61 -26.5 -112.5t-38 -99.5t-45 -97t-46.5 -107q27 37 54.5 85t51 100.5t39 103.5t15.5 94zM692 764q0 8 -4 20q-20 -168 -115 -313l-9 -15q-9 -14 -20.5 -29t-19.5 -29l-8 -15h2q18 0 48 51t57.5 117.5t48 128t20.5 84.5zM698 598q-2 0 -2 2t-2 4l-4 -4 q-2 -14 -7 -26.5t-9 -24.5q0 -10 -4 -21.5t-4 -21.5l2 -6q2 0 2 8l4 8q4 10 9 21.5t9 23.5q4 8 5 18.5t1 18.5z" />
<glyph unicode="c" horiz-adv-x="702" d="M285 1092h10h-10zM678 391q0 -27 -12 -45v4q0 -37 -35 -84t-83 -88t-101.5 -69.5t-90.5 -28.5q-94 0 -161.5 31.5t-110.5 87t-63.5 130t-20.5 158.5q0 68 13.5 170.5t47 199.5t91 166t145.5 69h-2q0 2 7 2h11q111 0 181.5 -68t70.5 -178q0 -12 -3 -39t-10 -52.5 t-18.5 -45t-27.5 -19.5t-38 9.5t-34 19.5l-10 18q16 33 22.5 70t6.5 72q0 31 -7 61q-4 25 -12 45l-5 5t1 3q-51 -35 -89 -104.5t-63.5 -151.5t-39 -164.5t-13.5 -140.5q0 -57 6.5 -115.5t28.5 -111.5q10 2 21.5 6t21.5 8h-2q51 16 88 51t78 64l-4 -4q25 23 54.5 50.5 t49.5 53.5h33q6 0 19.5 -4t25.5 -10t22.5 -14.5t10.5 -16.5zM524 797v2q2 2 2 0t0 2v4l4 4v10q0 4 -2 8v2q-4 0 -4 -8l-2 -10q0 -2 1 -3t1 -3q0 -4 -2 -4q0 -4 0 -2t2 0t0 -2zM485 758q2 0 3 7t1 9q6 27 13.5 53.5t7.5 55.5v18t-4 17l-4 18l-4 12l-2 6l-2 4l-2 3q-2 2 -3 0 l3 -7v-2v-2l4 -16t2 -16v-48q0 -29 -8.5 -56.5t-6.5 -55.5h2zM451 1006h6h-6zM408 1020l6 -4v2zM131 766q12 29 20.5 57.5t16.5 58t19.5 57.5t31.5 54l-16 -18q-4 -20 -22.5 -50t-26.5 -51q-10 -25 -23.5 -73.5t-25 -102t-19.5 -101.5t-8 -73v-98q0 -10 4 -27l6 -26v-2v2v10 q0 10 -2 17.5t-2 17.5v6q0 12 -1 24.5t-1 24.5q0 25 3 50.5t7 49.5q10 47 19.5 92.5t19.5 92.5v8zM209 201q-4 4 -10 4l8 -4h2zM213 776q-2 0 -5 -18.5t-5 -24.5v-10l2 -21v-4q0 -2 2 -2h2v6v11q2 10 4 19t2 20v18v6h-2zM227 901q-29 -29 -43 -76t-22 -100t-9 -106.5 t-1 -90.5h2v7l2 20l2 4q0 8 2 37t5 61.5t7 62.5t8 42q-4 10 4.5 34.5t18.5 47.5q10 27 26 57h-2zM420 90h-4h4zM469 229l-2 -4q-8 -8 -19.5 -16t-21.5 -14q-2 0 -11 -6.5t-12 -8.5l-8 -8v-2q4 0 22.5 12.5t22.5 16.5q2 0 4 2q4 4 5 4q4 4 13 12t9 12h-2zM532 281h-2h-2 q0 -2 -5 -4.5t-5 -4.5v-4v-2h4v2q2 2 6 5t4 6v2v2v-2zM563 367l-12 -13q-31 -31 -61.5 -59.5t-65.5 -54.5q-16 -12 -35.5 -25.5t-40.5 -21.5q-4 -2 -14 -3.5t-15 -5.5v-2h13q25 0 60.5 21.5t70.5 52.5t63.5 62.5t40.5 52.5h-2z" />
<glyph unicode="d" horiz-adv-x="882" d="M854 111q-6 -8 -23 -25q-16 -4 -28 -4q-25 0 -53.5 10t-54 27.5t-44 40t-22.5 49.5q-16 123 -23.5 249t-9.5 251q-6 -31 -17.5 -83.5t-27.5 -114.5t-36.5 -128t-44.5 -121t-50.5 -94t-54.5 -47l2 2q-16 -10 -22.5 -12t-25.5 -7h9q0 -2 -10.5 -2h-12.5q-59 0 -114.5 21.5 t-97.5 59.5t-67.5 90.5t-25.5 111.5q0 84 30.5 187.5t87 193.5t136.5 150.5t176 60.5l4 2h15q23 0 52 -6t50 -15q10 4 21.5 0t21.5 -8h2q0 72 1 159t9 176t22.5 174t39.5 153q10 8 19 13t22 5q53 0 78.5 -21.5t62.5 -49.5l6 -17l2 -49q0 -174 -19.5 -353t-19.5 -360 q0 -104 2 -210.5t13 -211.5q4 -53 13 -112.5t9 -112.5zM162 719q16 41 55 78t74 61q2 2 11 8t9 8h-2l-18 -8q0 -2 -2 -2t-2 -2l-23 -14q-14 -10 -26.5 -21.5t-24.5 -21.5q-35 -31 -61.5 -78t-45.5 -88l-4 -4q-23 -57 -43 -118.5t-30 -123.5h2q2 20 17 68.5t34.5 100.5 t41.5 97.5t38 59.5zM213 623h2v2l2 4l6 16q2 4 9.5 13.5t7.5 11.5t-4 2t-13.5 -17.5t-9.5 -23.5v-8zM238 766q-27 -18 -46.5 -52t-33.5 -63v-2q-14 -20 -21.5 -52t-11.5 -56q2 2 9 21.5t15.5 42t17.5 45t15 34.5l2 2q8 16 18.5 29.5t20.5 29.5l13 17l2 2v2zM244 180l-25 4 l-2 2l-10 4q-4 2 -9 7.5t-10 5.5v-2q0 -10 18.5 -18.5t24.5 -10.5h13q4 0 16 5t12 9h-4q-4 -2 -5 -2t-5 -4h-14zM502 856q-53 -29 -102.5 -94.5t-88.5 -144t-62.5 -159.5t-23.5 -141q0 -51 15 -92q33 8 63.5 52.5t57 108t49 138t41 142t32 119t19.5 71.5zM678 1378 q-2 -14 -10 -32h2q-23 -119 -26 -242t-7 -244q-2 -29 -1 -58.5t1 -58.5q0 -61 1 -134.5t11 -135.5l6 -39v-2l2 2q-4 35 -6 75t-2 75q0 158 8.5 314.5t8.5 313.5q0 41 7 84t7 84zM713 506v73t-1 111.5t-2 128t-3 122.5t-4.5 94t-4.5 44l-2 -73v-127q0 -78 5.5 -156t7.5 -156 l2 -47v-24v-2l2 2v10zM725 375q0 8 -2 16t-2 17l-2 12v8h-2q-2 0 -3 -4t-1 -6v-25l2 -8l6 -27q0 -8 2 -8h2v8v17zM420 977h4h-4zM424 977q2 2 6 2q-2 0 -4 -2h-2z" />
<glyph unicode="e" horiz-adv-x="673" d="M643 377q10 0 13 -11.5t3 -19.5q0 -53 -26.5 -112.5t-69.5 -110.5t-97 -85t-110 -34q-94 0 -161.5 32t-110.5 87t-63.5 130t-20.5 159q0 59 10 144t34 170t61.5 157.5t91.5 107.5q33 23 69.5 24t73.5 -1q8 14 25 14q51 0 90 -25.5t65.5 -65.5t40.5 -87t14 -92 q0 -76 -22.5 -148.5t-66.5 -127t-108.5 -81t-150.5 -8.5q-2 -10 -2 -17v-18q0 -57 6.5 -115.5t28.5 -111.5q10 2 21.5 6t21.5 8h-2q51 16 88 51t78 64v-2q37 27 67.5 53.5t65.5 57.5q10 4 21.5 6t21.5 2zM494 600q0 4 7 21.5t7 23.5v19v4h-2q-2 0 -3 -6.5t-1 -8.5 q-2 -10 -5 -22.5t-3 -22.5v-4v-2v-2v-2v2zM444 590l2 2q6 10 5 14q10 29 14 55.5t8 57.5v35q0 8 -3 28.5t-7 20.5v-8l2 -21v-45l-4 -57q0 -8 -2 -16.5t-4 -16.5l-4 -23l-7 -18v-8v-2v2zM238 449q2 0 12 2t10 4q39 14 66.5 42.5t46 65.5t27 78t8.5 80q0 41 -6.5 79t-14.5 79 q-37 -43 -62.5 -95.5t-43 -109t-29.5 -114.5t-21 -111h7zM209 125q-4 4 -10 4l8 -4h2zM215 819q-25 -23 -34 -53.5t-14 -64t-9 -65.5t-19 -52q-4 -43 -10 -86t-6 -88l2 -19v-2v2l2 6v25v4l4 35l8 67q4 29 9.5 64t15.5 63q-2 6 3 25.5t11 41t12.5 42t10.5 29.5q4 8 10 13 t6 13h-2zM229 940q-41 -18 -72.5 -85t-53 -147.5t-33 -159.5t-11.5 -124q0 -41 7 -80l2 2q-12 33 -5 102.5t24 146.5t40 147.5t39 109.5q8 18 17.5 36.5t25.5 33.5q4 4 13 6t9 10zM420 14h-4h4zM477 174q-6 -6 -12 -10q-4 -2 -8 -6l-4 -4l-7 -9v-2h5l18 19l8 10v2zM520 258 v-2l-4 -2l-10 -8l-2 -2l-17 -15l-30 -28l-27 -23q-12 -10 -24.5 -21.5t-26.5 -21.5q-10 -8 -24.5 -15t-26.5 -14l-25 -8v-2l10 4q8 -4 25.5 5.5t37 22.5t36 25.5t22.5 18.5v2q25 16 44.5 39t41.5 43v2z" />
<glyph unicode="f" horiz-adv-x="555" d="M637 1026v12q0 -37 -8 -70.5t-19.5 -64.5t-24 -62.5t-20.5 -64.5q-8 -6 -13 -14t-13 -14h-29q-18 0 -42 13t-34 30q0 4 2 16t2 0l-6 8v6q0 14 3 30.5t5 31.5v-6q0 27 2 53t2 53q0 49 -3 97t-11 96q-41 -37 -66.5 -103.5t-40 -142.5t-21.5 -150.5t-11 -128.5q16 -2 52 -7 t72 -16.5t62.5 -27.5t26.5 -41q0 -12 -34 -18t-74 -9.5t-74.5 -3.5h-36.5l-2 -125q0 -190 8 -380.5t33 -378.5q4 -41 12 -86t8 -86l-2 -29q-12 -18 -27 -33q-16 -4 -24 -4q-18 0 -35.5 5t-34.5 14q-2 2 -5 4t-5 0q-12 6 -27.5 17t-29 26.5t-23.5 32t-12 30.5 q-45 238 -53.5 489.5t-8.5 493.5q-10 4 -27.5 12.5t-35 19.5t-30.5 23.5t-13 24.5q0 10 14.5 17.5t32.5 11.5t36.5 7t24.5 5q2 49 5.5 119.5t12.5 147.5t28.5 152t51 135t80 97t117.5 37q55 0 106.5 -17.5t91.5 -50t63.5 -79.5t23.5 -105zM252 1243q-47 -33 -76 -116 t-45 -180t-22.5 -192.5t-6.5 -154.5l2 -14l2 -15v-2v2l3 11q2 8 1 18t-1 21v6v55q0 29 2 54.5t6 54.5q6 53 14 100t19 100q16 74 41.5 130t60.5 122zM231 1108l-6 -8q-2 0 -6 -7.5t-7 -17.5t-6 -19t-3 -12q-25 -109 -41.5 -215t-16.5 -217l2 -22q0 111 16.5 238.5 t51.5 232.5q4 12 11 23.5t7 23.5h-2zM274 -330q-16 61 -20 144.5t-7 169.5t-8.5 161.5t-21.5 122.5v-22q0 -135 10.5 -292t46.5 -286v2zM332 616h10q10 0 23 -4q6 -2 14 -4t14 -2h-2l-2 2l-8 4q-6 4 -12.5 7.5t-14.5 3.5h-14l-12 -5v-2h4zM539 1040q0 23 -2 45.5t-7 42.5 q0 2 -1 11.5t-5 9.5h-2v-8q0 -16 2 -42t4 -46l2 -49l-2 -31v-12v-19v-2v-6v2v2l2 10v2l2 19q4 20 5 32zM588 1053q0 10 -1 17t-3 15l-2 7v2q-4 0 -3 -7.5t1 -9.5v-11t2 -19.5t3 -18.5t5 -8v2l-2 8v23z" />
<glyph unicode="g" horiz-adv-x="765" d="M424 977h-4h4zM424 977q2 2 6 2q-2 0 -4 -2h-2zM743 500q0 -55 -2 -154.5t-13 -214.5t-32.5 -233.5t-61.5 -215t-101.5 -158t-149.5 -61.5q-70 0 -135.5 27t-115.5 73t-81 108.5t-31 133.5q0 100 56 175q12 8 24.5 16t22.5 18l37 2q16 0 47 -15t41 -30l4 -16 q-4 -6 -11.5 -31.5t-14.5 -55.5t-12 -57.5t-5 -35.5q0 -47 14.5 -96.5t44.5 -86.5q49 23 86 78.5t64.5 128t45 155.5t28 163t15.5 149.5t7 112.5q-4 -18 -20.5 -58t-38 -82t-46 -77t-44.5 -41l2 2q-16 -10 -22.5 -12t-25.5 -7h9q0 -2 -10.5 -2h-12.5q-59 0 -114.5 21.5 t-97.5 59.5t-67.5 90.5t-25.5 111.5q0 84 30.5 187.5t87 193.5t136.5 150.5t176 60.5l4 2h15q16 0 47.5 -6t44.5 -10q2 10 18 10q45 0 72.5 -7.5t46 -23.5t30 -42t25.5 -62h-2l4 -11q-4 -35 -4 -75.5t3 -83.5t6 -87t3 -81zM272 862l-2 -4q-23 -16 -44 -43t-39.5 -57.5 t-34 -61t-23.5 -55.5v-4q-16 -53 -31.5 -109.5t-19.5 -111.5q23 70 37 128t33.5 112.5t51 106.5t89.5 109zM240 748q-4 0 -11.5 -11.5t-14.5 -27t-13 -28.5t-8 -17q-2 0 -5.5 -11.5t-5.5 -15.5l-4 -23l-4 -10v-6l-2 -4v-2v-4l2 4v4l2 4q6 23 16.5 43.5t16.5 42.5l2 2 q4 8 17.5 31.5t13.5 25.5zM502 856q-53 -29 -102.5 -94.5t-88.5 -144t-62.5 -159.5t-23.5 -141q0 -51 15 -92q33 8 63.5 52.5t57 108t49 138t41 142t32 119t19.5 71.5zM117 -150q-2 0 -3 -7t-2 -15t-1 -15.5t4 -7.5v5v4q2 8 4 15t2 13q0 4 -2 6v2h-2zM125 -51 q-16 0 -25.5 -14.5t-15.5 -34t-8 -39t-2 -29.5v-31q0 -20 3 -38.5t7 -38.5h2v4l-2 12l-2 20v54q0 12 1 29.5t5 27.5q4 18 10 40.5t25 33.5l4 2zM584 -20l-6 -9h2l-2 -2q-23 -49 -44.5 -114.5t-29.5 -118.5q2 4 6 16l2 2q2 10 14.5 43t25.5 70t23.5 69.5t10.5 43.5h-2z M598 334q-4 0 -8 -14.5t-4 -18.5q-4 -33 -4 -64.5t-4 -64.5q-4 -4 -3.5 -11t-1.5 -11q-10 -53 -19 -105.5t-26 -105.5q-14 -47 -29.5 -94.5t-37.5 -94.5q-4 -10 -13.5 -25.5t-9.5 -25.5h2q6 23 20.5 47.5t24.5 46.5q41 94 64.5 188.5t40.5 196.5q4 23 4 45.5v44.5l2 45 q0 4 -1 7.5t1 7.5z" />
<glyph unicode="h" horiz-adv-x="761" d="M541 1022l4 -2h-2zM541 1022q-6 0 -11 2q2 0 5.5 -1t5.5 -1zM739 674q0 -18 -3 -66.5t-8 -111t-11 -132t-14.5 -127t-16.5 -97.5t-16 -42q-6 -4 -14.5 -5t-14.5 -5h-12q-20 0 -50 9t-57.5 25.5t-47 39t-15.5 47.5q20 164 42.5 325.5t22.5 327.5l-2 56v-11l-2 27 q-61 -82 -97 -170t-62.5 -178t-53 -180.5t-69.5 -178.5v-14q-16 0 -25 -2q-10 -10 -20 -12q-78 2 -117 26.5t-56.5 64.5t-18.5 92t-1 112q0 549 55 1095v-2l4 10q-2 12 6.5 22.5t20.5 10.5q23 0 52.5 -12t43.5 -29l11 -12h-3q35 -57 46.5 -137t11.5 -146q0 -178 -6 -353 t-15 -351l2 2q14 45 37 118.5t56.5 144.5t80 122t105.5 51l2 -2l16 -2l-14 2q20 -2 45 -9t41 -18h6q43 -29 69.5 -64.5t41 -76.5t19.5 -88t5 -96zM98 1397q2 -12 -1 -54.5t-6 -91.5t-5 -96t-2 -70q4 -119 -10.5 -239.5t-14.5 -241.5q0 -18 1 -37.5t3 -38.5l3 -18l4 -18v-3v3 v14q0 12 -2 24.5t-2 24.5v10q0 16 -1.5 34.5t-1.5 35.5q0 35 2.5 69.5t6.5 69.5q6 66 7 133.5t11 132.5q2 10 4 62.5t3 113t2 114t-1 67.5zM102 934q-2 -6 -2 -19q0 -16 -1 -29.5t1 -29.5v-13t2 -9h2v4v12l2 31l-2 51q0 4 -2 4v-2zM117 1239v-2v-4q6 -63 0 -127v-2l-2 -111 l2 4q0 37 4 75t4 75v2q0 10 1 19.5t-1 19.5l-2 20l-2 15l-2 8v6l-2 4v2l-2 2zM393 895v-2l-4 -4l-8 -17l-2 -4l-12 -22l-27 -47q-12 -23 -22.5 -46.5t-20.5 -45.5q-10 -23 -19.5 -58t-9.5 -61l2 -17h2v13q4 4 5.5 20.5t3.5 24.5q14 61 47 123v4q10 16 16 31.5t14 31.5 q4 10 9.5 17.5t9.5 17.5l12 25l4 14v2zM578 739q0 10 -1.5 19.5t-1.5 19.5l-2 4q-2 -16 -5 -55t-6 -81t-7 -75.5t-8 -38.5q-4 -47 -11.5 -98t-19.5 -96h2v8l12 62q16 84 32 164.5t16 166.5zM618 391h-2v-2l-4 -6v-18l2 -3h2v3v6l2 8h3v10zM645 692v25.5t-4 25.5l-2 2 q-16 -66 -14 -146.5t-11 -149.5h2v4l5 16l6 27q8 37 13 77.5t5 79.5v39zM582 1010q2 0 9 -4.5t7 -6.5q-4 4 -8 5.5t-8 5.5z" />
<glyph unicode="i" horiz-adv-x="266" d="M-2 1335q0 41 16 84q10 12 27 17q47 0 96 -20.5t72 -67.5q-6 -53 -15.5 -117t-33.5 -111l-27 -2q-12 0 -27.5 7.5t-30 18.5t-26.5 22.5t-18 19.5l4 -2q-12 8 -20.5 27.5t-11.5 42t-4 45t-1 36.5zM53 1303l2 -39l2 -4h2v2v8q0 29 4.5 56.5t4.5 55.5q0 8 -2 9v-5 q-4 -8 -5 -14l-8 -53v-16zM233 23q-4 -2 -14 -5.5t-14 -3.5q-41 0 -80 17q-4 2 -17.5 9t-17.5 5q-14 8 -28.5 17.5t-26.5 19.5l-17 27q-10 70 -6 145.5t4 146.5q0 92 -7 183.5t-7 183.5l2 27v-13q0 12 1 40t4 57.5t7 54t11 35.5l20 -15v9l12 16h9q27 0 66.5 -19.5 t51.5 -44.5q18 -37 29.5 -118.5t17 -177t7.5 -185.5t2 -139q0 -66 4 -134.5t-6 -129.5zM80 215q0 145 -2 287.5t-2 288.5l-2 8q-10 -53 -11.5 -107.5t-1.5 -107.5q0 -102 2.5 -208t14.5 -206l2 2v43zM102 633q-6 0 -6 -4q0 -2 2 -2q-2 -10 -5 -20.5t-3 -20.5v-37l8 -39 l4 -12h2v2l-2 8q-6 31 -2 62.5t4 60.5z" />
<glyph unicode="j" horiz-adv-x="425" d="M160 1501q0 16 14 18.5t25 2.5q14 0 41.5 -8.5t55.5 -20.5t49.5 -28.5t21.5 -32.5q0 -25 -5.5 -52.5t-10.5 -56.5t-9 -55.5t0 -48.5q-8 -14 -10 -27l-27 -8q-57 6 -87 39.5t-43 80t-14 99.5t-1 98zM209 1468q0 -23 5 -45t3 -45q4 0 3 -6t1 -8q2 -14 4 -26.5t6 -24.5l2 -6 v2q-6 25 -6 49t-4 49q-4 16 -6 30.5t-6 28.5v2l-2 2v-2zM410 543q0 -55 -1 -157.5t-10.5 -223.5t-31 -246t-61.5 -227.5t-102.5 -167t-154.5 -64.5q-66 0 -130 27t-115.5 72t-83 105t-31.5 130q0 51 12 96t43 86q12 8 24.5 16.5t22.5 18.5l37 2q25 -8 54.5 -20.5t37.5 -40.5 q-4 -4 -11 -31t-14.5 -57.5t-13.5 -58t-6 -33.5q0 -20 4 -46t12.5 -51.5t19.5 -48t26 -37.5q72 33 116.5 124t71.5 215t39 265.5t16 271.5t3 237.5t1 162.5q6 14 7.5 31.5t5.5 34t13 28t30 11.5q37 0 82 -18.5t61 -53.5q2 -16 7 -32.5t9 -31.5l-2 3q6 -18 9.5 -57.5 t4.5 -83.5t0 -85.5t-1 -64.5zM-225 -74q-4 0 -10.5 -10t-12.5 -24.5t-10 -26.5t-4 -19v-26q0 -2 1 -7.5t3 -5.5t2 7q0 16 3 29.5t7 29.5q4 8 6 16.5t7 16.5l6 14zM-201 -109q0 -6 -6 -12t-6 -12v-6h2q2 0 1 3t1 5l5 10t3 8v2v2v3v-3zM262 412v106.5t-16 106.5 q-4 -47 1 -95.5t5 -95.5q0 -127 -16.5 -250t-42.5 -245q-10 -43 -21.5 -86t-26.5 -84l-10 -37v-2l2 2q31 72 54.5 157.5t39 176t23.5 179.5t8 167zM283 131v-2l-2 -6q0 -23 -5.5 -45.5t-9.5 -44.5l-8 -31v-10q4 0 4 4v6q4 23 13.5 47.5t9.5 46.5v33zM307 385v-2l-2 -6 q0 -29 -5 -55.5t-5 -55.5v-12v-4q4 0 3 4t-1 6l12 70q2 12 1 26.5t-1 26.5z" />
<glyph unicode="k" horiz-adv-x="710" d="M520 1090q4 0 6 -3zM686 119q0 -10 -4 -14.5t-10 -10.5q-10 -2 -17.5 -3t-17.5 -1q-16 0 -45 8t-57.5 22.5t-51 33t-24.5 41.5q-6 59 -6 119.5t-3.5 119t-14.5 116.5t-38 114q-23 -8 -52.5 -27t-39.5 -41v2v-2l-4 -4l-16 -21l-11 -8h-2l-12 -6v-4q-8 -4 -18.5 -4t-18.5 2 q0 -86 6.5 -171t6.5 -171q0 -27 -2.5 -53.5t2.5 -53.5l-11 -20q-20 -8 -30 -8q-16 0 -47 9t-62 23.5t-54.5 33t-23.5 36.5q-2 25 1 48.5t3 45.5q0 55 -6 111.5t-6 114.5v278q0 57 5 141t14.5 182.5t20.5 203t24.5 203t27.5 182t27 141.5l14 20h31q45 0 65.5 -30.5 t28.5 -73.5t7 -88t-1 -76q0 -193 -18.5 -382t-22.5 -382q18 33 47 80t64 91t75 76t80 32q10 0 26.5 -4.5t33 -10.5t29 -15t12.5 -20q0 -4 -2 -6l2 2v-2l-6 -6l-13 -6l-26 -14q-14 -8 -30.5 -22.5t-27.5 -26.5q-41 -45 -74.5 -93.5t-64.5 -99.5l49 -12l-22 6 q123 -29 186.5 -94.5t91 -153.5t30.5 -190.5t3 -206.5zM119 1479q8 -66 -4.5 -146t-20.5 -147q-18 -174 -30.5 -351.5t-12.5 -353.5l2 -43v-2l2 2q0 129 10.5 257t21.5 256t21.5 256t10.5 257v15zM119 657q-2 0 -2 -2v-2q0 -2 -1 -10t-2 -16.5t0 -15.5t5 -7v6v21q0 4 2 15 t-2 11zM158 1231q0 6 1 14t-3 12q-12 -135 -23.5 -273t-11.5 -273l2 -25q0 2 3 39t7 92t8 119.5t8.5 125t6.5 107t2 62.5zM426 1026q-6 0 -32.5 -25.5t-56.5 -59.5t-52.5 -65.5t-22.5 -46.5h2q4 0 4 3.5t2 7.5q29 53 71 97t85 87v2zM383 684q-6 6 -8 6h-2q6 -6 10 -8v2z M524 354q0 27 -2 64t-8 75.5t-16.5 72.5t-26.5 55l-4 2q20 -53 27.5 -102.5t9.5 -97.5l4 -96t12 -100l1 17q1 18 2 40.5t1 43v26.5zM565 408v-2q-4 -4 -2 -7l6 -26v-6.5t2 -4.5h2v7v10q0 4 -1 16.5t-5 12.5h-2z" />
<glyph unicode="l" horiz-adv-x="309" d="M285 109q0 -27 -7.5 -34t-35.5 -7q-20 0 -46 7t-50.5 19t-45 27.5t-30.5 34.5q-12 23 -22.5 78t-19 127.5t-13.5 155.5t-8 158t-5 135t-2 89q0 233 10 466.5t58 463.5q6 6 9 14t7 17q4 2 13 5t14 3q29 0 60.5 -15.5t47.5 -40.5q16 -68 21.5 -132t5.5 -134l-2 -78v11 q0 -164 -9.5 -326t-9.5 -326q0 -139 6.5 -281.5t28.5 -279.5q6 -35 15.5 -78.5t9.5 -78.5zM51 1069q0 98 14.5 190.5t30.5 186.5l-2 -2q-8 -59 -18 -111.5t-18.5 -104.5t-14.5 -106.5t-6 -115.5q0 -109 6 -215.5t16 -212.5l9 -82l4 -41v-2l2 2q-23 111 -23 240.5v246.5v127z M127 553q-2 14 -6 26.5t-4 28.5q-6 14 -10.5 53t-7.5 85.5t-5 87t-2 57.5v139q0 23 1 46.5t3 45.5l4 56l2 36l2 23v2v6v-2l-6 -24v-7l-8 -59l-4 -53q-2 -23 -4 -46.5t-2 -45.5v-78q0 -94 9 -190.5t36 -188.5zM145 467l-2 8l-2 8q-2 4 0 10.5t2 10.5q0 6 -2 6q-4 0 -4 -22.5 t6 -22.5h2v2z" />
<glyph unicode="m" horiz-adv-x="1189" d="M1167 625q0 -117 -20.5 -223.5t-38.5 -221.5q-12 -16 -24.5 -24.5t-34.5 -8.5q-12 0 -40 8.5t-55.5 20.5t-48 28.5t-20.5 33.5q-4 20 -4 28q0 10 5 23.5t7 23.5q23 104 36 206t13 208v117q0 16 -2 31.5t0 31.5l-2 -12q0 57 -14 102q-39 -33 -69 -94t-51.5 -138 t-38.5 -163t-30.5 -170t-25 -157.5t-23.5 -127.5l-4 -4q2 -10 -1 -21t-5 -22l-8 -10q-12 -6 -29 -6q-45 0 -99.5 25.5t-78.5 62.5q-4 12 -4 24.5v24.5q0 129 18.5 261t22.5 263v-12q0 31 4 61.5t4 61.5q0 20 1 42t-5 40q-33 -45 -62.5 -123t-55.5 -167t-46.5 -182 t-38.5 -171t-32.5 -132t-24.5 -67q-18 -6 -37 -6q-20 0 -47 8t-52.5 20.5t-47 30t-31.5 35.5q0 164 -13.5 327t-13.5 327q0 51 3 101t20 97v-2q10 16 23 17.5t30 1.5q18 -6 33.5 -11.5t28 -11.5t23.5 -17.5t19 -31.5q4 0 2 -2t-2 0q12 -20 21.5 -78.5t15.5 -123t9 -120 t3 -69.5q12 39 32 115.5t49.5 153.5t68.5 134.5t90 57.5q25 0 47.5 -7.5t44.5 -17.5q0 -2 3 -2t1 -2q20 -8 44 -31.5t44.5 -53.5t32.5 -58.5t10 -49.5q8 31 23.5 74t38 81t52.5 64.5t71 26.5q14 0 26.5 -2t26.5 -6q6 -12 23.5 -14t29.5 -9q-4 2 -12 5.5t-4 3.5q6 0 18 -7.5 t17 -11.5l-11 8q16 -10 32.5 -22t31.5 -27l-2 2q29 -25 39 -51l-6 12q10 -20 20 -39.5t20 -40.5l-6 13q29 -59 36 -127.5t7 -134.5zM94 352q0 98 -13 198.5t-18 201.5q0 31 -2 62.5t-4 62.5l-2 30l-2 21v6h-2l-2 -78q0 -129 12.5 -253t30.5 -253h2v2zM115 557 q0 16 -4.5 35.5t-4.5 40.5v31v8v2q-2 0 -2 -4v-6l-4 -31v-15q0 -16 4.5 -29.5t6.5 -29.5l4 -4v2zM389 940q-23 -37 -39 -75t-33 -79v-4q-8 -16 -17 -54t-9 -58v-4l2 12l2 2q2 31 17.5 77t29.5 74l2 3l57 124v3zM561 741h-2q-16 -49 -12 -102t4 -104q0 -41 -6 -84t-13.5 -86 t-11.5 -85t0 -81q16 82 29.5 168t13.5 168zM614 526q-4 16 -6 32.5t-8 33.5v2l-2 2v-2q0 -4 1 -4t1 -4q8 -29 6 -58.5t-2 -58.5v-21.5t-4 -21.5l2 -10v2l2 12q2 16 6 32.5t4 33.5q0 8 1 15t-1 15zM838 1026v-2q-4 -4 -11.5 -14.5t-15.5 -21.5t-15.5 -19t-9.5 -11l-8 -18 l-2 -2q-12 -29 -12 -55q0 -8 2 -9v9q4 23 12 41t19 37q-2 2 1 5t5 3q2 10 19.5 30.5t17.5 26.5h-2zM1055 645q0 16 -1 34.5t-3 35.5q-2 10 -2 20t-2 21q0 2 -1.5 5t-3.5 1q2 -16 3.5 -31.5t1.5 -32.5v-75q0 -8 -1.5 -26.5t-4.5 -39t-6 -40t-5 -28.5q0 -6 -7 -36.5 t-16.5 -67.5t-17.5 -69.5t-10 -43.5q14 23 27.5 70t24.5 102.5t17.5 109.5t6.5 91zM1079 561v-6v-23l-2 -57l-2 -31l-2 -14v-10v-6v-4v-2v-5v3l2 8v2q4 20 6 41.5t2 44.5v45v8t-2 6h-2zM612 989q2 -2 3 -4t3 -4l-6 6v2zM1059 991l4 -4z" />
<glyph unicode="n" horiz-adv-x="811" d="M788 555v-60t-1 -93.5t-5 -105.5t-10 -99t-15 -74t-24 -29q-51 0 -102 22.5t-80 63.5q-4 12 -5 26.5t-1 29.5q0 104 9 205.5t9 205.5v61.5t-1 94.5t-3 91t-4 52q-57 -27 -95 -82t-61.5 -128.5t-38 -156.5t-28 -165t-27.5 -155t-37 -124q6 -12 6 -24q0 -14 -13 -17.5 t-23 -3.5q-90 0 -138.5 43t-71 108.5t-25.5 140.5t-3 140q0 57 5 135t16.5 156t28 149.5t40.5 120.5l25 9q18 -2 39.5 -9.5t40 -20.5t28.5 -30.5t4 -42.5q4 -10 8.5 -31.5t6.5 -46t3 -46t1 -34.5q0 -78 -6.5 -153.5t-12.5 -151.5q8 63 22.5 136t41 142.5t68.5 126t110 85.5 q2 2 12.5 5t22.5 7t21.5 6t13.5 2q14 12 36 13q10 0 30 -6.5t40.5 -15.5t34.5 -20.5t14 -21.5q0 -2 2 -2t0 -2q8 -10 13.5 -21.5t11.5 -21.5v2q47 -86 57 -186.5t10 -198.5zM51 745q-16 -59 -22 -125.5t-6 -132.5v-61q0 -41 7 -79t17 -75v9q0 41 -8 84t-8 86q0 70 13 149 t7 145zM104 246q-10 55 -14 107.5t-4 107.5q0 90 2 177t2 177q0 23 2 46.5t6 45.5l4 23l2 8v-2q-16 -51 -23 -110.5t-8 -120t1 -121t2 -113.5q0 -55 5 -114.5t23 -112.5v2zM440 965v-2l-4 -2l-10 -9l-2 -2l-12 -14l-27 -31q-14 -16 -23.5 -29.5t-19.5 -31.5 q-12 -23 -20.5 -46.5t-8.5 -47.5v-2l2 10l2 2q2 23 15.5 51.5t32 57t38 53t37.5 41.5v2zM639 586q0 14 -1 47t-4 70.5t-7 71.5t-11 48q6 -59 10.5 -117.5t4.5 -117.5q0 -74 -9.5 -145.5t-13.5 -145.5q12 74 21.5 144.5t9.5 144.5zM670 606l-2 -6v-119l2 -4v2v8q4 16 4 35v35 l-2 39q0 2 1 7t-3 5v-2z" />
<glyph unicode="o" horiz-adv-x="565" d="M119 938q0 -2 -2 -2q2 0 2 2zM541 432q0 -53 -9.5 -111.5t-33 -107.5t-65.5 -82t-107 -33q-154 0 -240 93.5t-86 242.5v23v-11q2 45 9 116t21.5 143.5t37 137t55.5 97.5l-4 -2q10 6 21.5 8t23.5 4q0 6 -1 13.5t3 13.5q20 20 41 29q6 0 11 1t11 1q94 0 155.5 -63.5 t95.5 -154t47.5 -188.5t13.5 -170zM133 672q-2 0 -2 -3t-2 -5q-16 -43 -13 -86t-7 -84l2 -9v2l2 13q4 25 5 50t5 50l2 2q-2 18 4 35.5t6 34.5h-2zM137 864q-8 -20 -8 -30q-16 -41 -27.5 -91.5t-19.5 -103.5t-12 -106.5t-4 -96.5q0 -51 5 -106.5t21 -102.5v2q-10 51 -13 99.5 t-3 99.5q0 47 10 98.5t6 96.5l7 37q7 38 15.5 82t15.5 82t7 40zM178 991q0 -2 -2 -2q2 0 2 2zM182 993l-2 -2zM369 569q0 88 -21.5 177.5t-60.5 166.5l-17 -6h-28q2 0 2 -4l8 -20v-11l-2 2q0 -102 -14.5 -203.5t-14.5 -205.5q0 -57 3 -114.5t18 -112.5q12 4 23 13t20 19h2 q25 27 40 65t24 78t13.5 80.5t4.5 75.5zM440 526q0 45 -10 97l-10 36q-2 0 -2 3q0 2 -2 2l2 -17q2 4 3 0t2 -11t2 -16.5t1 -15.5q4 -20 4 -33v-84q0 -14 -3 -34.5t-7 -34.5q2 -10 -6 -37t-18.5 -57.5t-22 -58t-15.5 -38.5h2q2 0 6.5 12.5t6.5 16.5q27 72 47 132t20 138z M444 338l-4 -8q-4 -8 -9 -19.5t-8 -21.5t-3 -13h2l6 15q4 6 11 20.5t7 18.5v6z" />
<glyph unicode="p" horiz-adv-x="854" d="M352 111q4 2 5 2t5 2q-4 -4 -10 -4zM829 786q0 -86 -44 -192.5t-113.5 -205.5t-155.5 -176t-168 -101h4q-51 -18 -108 -9q-6 -152 -12.5 -302t-6.5 -302q0 -23 -14 -28t-33 -5q-16 0 -44 7.5t-54.5 19.5t-48 28.5t-25.5 35.5h-2q-4 10 -4 28q0 244 4 492t25 489l-2 -10 q2 55 2 109.5v109.5q0 49 -3 97.5t-1 97.5l-9 16l13 23q14 6 30 6q29 0 61 -11.5t58.5 -31t44 -46t17.5 -57.5q23 33 47 65t54 56.5t64.5 38.5t79.5 14q53 0 113.5 -17t112 -50t85 -80.5t33.5 -108.5zM94 1004q2 -2 6 -3v3h-6zM121 571q0 35 -2 69t-6 69q-2 12 -3 25.5 t-1 25.5v35v12l-3 -2q-4 -33 0.5 -62.5t2.5 -62.5q2 -2 3 -22.5t1 -48v-53.5v-36q0 -174 -11.5 -345t-11.5 -345l2 -43v-2q2 0 2 8v10q0 37 1 73t3 73q6 115 14.5 228.5t8.5 228.5v165zM145 401q-12 -113 -13 -232.5t-1 -231.5v-117l2 -27q-2 6 -1 44t2 90.5t3 111.5 t5 112.5t4 92.5t1 49v100zM166 571v-4v-6l-2 -10v-16q0 -8 -1 -14.5t1 -16.5v-23v-4q0 -4 2 -4h2v2v10l2 43v19l-2 10v10v4h-2v2v2v-4zM299 834l2 8q4 16 24.5 41.5t32.5 36.5q0 -2 7 4l4 4l30 28l19 15l6 4v2q-4 0 -17.5 -10.5t-29 -24.5t-29.5 -26.5t-16 -14.5v-2 q-10 -8 -22.5 -30.5t-12.5 -34.5h2zM604 856q0 39 -10 68q-66 -10 -119 -80t-95 -160t-74 -180t-54 -142l-2 -2v-45t-2 -45q33 10 72.5 48t78.5 91.5t76 117t65.5 125t46 115.5t17.5 89zM590 387q-4 0 -9.5 -7t-5.5 -11v-2h3q14 0 14 16v4h-2zM629 528q-2 0 -5 -3t-1 -5 q-29 -53 -68 -95t-74 -91h2l2 2q23 29 49.5 54.5t49.5 55.5q10 16 25.5 40t19.5 40v2zM635 705l-8 -15q2 -4 -7.5 -21.5t-11.5 -21.5q-47 -102 -98 -178t-121 -160h-2h2l6 4l19 17l4 4l26 24l50 56q23 25 40 57.5t33 60.5q23 41 37 83t33 83v7h-2z" />
<glyph unicode="q" horiz-adv-x="753" d="M424 977q2 2 6 2q-2 0 -4 -2h-2zM420 977h4h-4zM729 811q0 -201 -14.5 -398.5t-14.5 -396.5q0 -125 7.5 -247.5t7.5 -247.5q0 -4 -4 -17v7l-2 -17l-9 -8q-20 -4 -32 -4q-16 0 -37 4t-35 10q-4 2 -17.5 9.5t-17.5 5.5q-25 12 -40 22t-22 23.5t-9.5 32t-2.5 44.5v183 q0 121 -7 235.5t1 237.5q-6 -12 -19 -39t-29.5 -53.5t-34 -48t-33.5 -27.5l2 2q-16 -10 -22.5 -12t-25.5 -7h9l-23 -2q-59 0 -114.5 21.5t-97.5 59.5t-67.5 90.5t-25.5 111.5q0 84 30.5 186.5t87 192.5t135.5 151.5t177 61.5l4 2h15q23 0 52 -5t50 -16l6 3q16 0 37 -11 q2 -2 3 1t3 3q6 4 18 4q14 0 26.5 -5t25.5 -11q4 -4 19.5 -15.5t4.5 -17.5h-2q18 -18 27.5 -44.5t9.5 -53.5zM207 795l-10 -9q-8 -27 -29 -58.5t-44.5 -70.5t-43 -88t-23.5 -112q27 57 43.5 119.5t44.5 121.5q14 27 29.5 48.5t32.5 44.5l2 4h-2zM422 932 q-76 -25 -135.5 -90.5t-101.5 -148.5t-63.5 -171t-21.5 -162l2 -28v-2v2v10l4 39v8l9 53q4 27 10 55.5t16 53.5q16 47 36 98t48 94q41 63 92 121q14 16 36 30.5t42 23.5l29 12zM229 666l2 4l5 12q4 6 13 24.5t9 22.5l-2 2q-4 0 -8 -9t-9.5 -19.5t-8.5 -21.5t-3 -13zM502 856 q-53 -29 -102.5 -94.5t-88.5 -144t-62.5 -159.5t-23.5 -141q0 -51 15 -92q33 8 63.5 52.5t57 108t49 138t41 142t32 119t19.5 71.5zM551 612q-12 -74 -19.5 -148.5t-7.5 -150.5v-96q0 -123 11.5 -246t11.5 -245l2 -2v2l2 14q0 135 -8 267t-8 267q0 84 2 171t16 169z M598 -100v2v10v35v8v51v105v84q0 41 -2 84t-2 83q0 23 -1 44.5t-3 44.5l-2 53v35l-2 22v2v6v-2l-2 -12v-215q0 -100 -1 -220t15 -218v-2zM610 -242q0 14 -1 31.5t-5 32.5l-2 18v13l-2 6l-2 2v2v2v2v-2v-2h-2v-4v-4l-2 -9v-30q0 -8 6 -34t10 -26v2z" />
<glyph unicode="r" horiz-adv-x="772" d="M625 643q12 0 16 -2q-4 0 -8 1t-8 1zM748 795q0 -55 -13.5 -93t-68.5 -61h-15l-18 2h-8h-2h-2l-11 2l-2 2q-35 8 -66.5 23.5t-54.5 42.5l-8 24q16 43 33.5 74t15.5 80q-61 -55 -105 -123t-75 -142.5t-53.5 -154.5t-42.5 -156q-2 -6 -1 -25.5t2 -41l2 -43t1 -29.5v-51 l-8 -19q-16 -6 -35 -6q-63 0 -101 27t-58.5 71t-28 100t-7.5 113.5t4.5 112t4.5 94.5q0 84 -9.5 166t-9.5 164v-12q0 16 -1 32.5t-3 32.5q-4 8 -4 13q2 10 14 22h11q16 0 35.5 -7t35.5 -15l13 -6q37 -16 61.5 -45t38.5 -65t22.5 -74t12.5 -74q14 31 38.5 69.5t55.5 75.5 t64.5 67.5t66.5 43.5l2 2v-2l2 2q18 4 35.5 9t38.5 5l-8 -2q49 8 87 -11.5t65.5 -53t42 -76.5t14.5 -84zM82 764q0 23 -2 48.5t-6 47.5l-2 19l-2 6v-2v-23l2 -82q0 -59 -3 -118.5t-3 -118.5v-107l2 -39l2 -20v-2v2v8v27v6l2 39l4 80q2 37 4 74.5t2 74.5v80zM117 678 q0 6 -2 6l-2 -8q0 -41 -4.5 -82t-4.5 -82l2 -8q2 0 2.5 6t0.5 8q4 27 7 54.5t3 56.5v22zM518 977h-18q-23 0 -55.5 -23.5t-49.5 -35.5q-16 -14 -29.5 -30t-27.5 -32q-6 -8 -13.5 -16.5t-11.5 -18.5l-12 -24l-6 -15l-4 -12v-2v-2v2q16 41 45 77t61 64l2 4q16 16 39 32t45 24 q6 4 13.5 4t13.5 2h10h4zM586 885l-2 -8q0 -23 -2 -42.5t-13 -39.5l-4 -9q-4 -8 -9 -17t-10 -16.5t-5 -9.5q-2 -4 -3 -9t-6 -5q-4 0 2.5 3t8.5 7q16 23 31.5 50.5t15.5 56.5v22zM629 786h-4v-4q-4 -4 -4 -8v-14l2 -2h2v2l2 4q4 8 4 12v8zM702 950q0 -2 1.5 -2t1.5 -2 q-3 2 -3 4zM475 1008h-4h4zM700 952l2 -2z" />
<glyph unicode="s" horiz-adv-x="497" d="M201 473l4 -4q-4 0 -4 4zM451 268q0 -43 -25 -77.5t-61.5 -59.5t-79.5 -38t-82 -13q-14 0 -47 5t-68 16.5t-61.5 25.5t-26.5 33l2 6l43 4q8 -2 14.5 -3t14.5 -1h-8l4 2q10 -2 19 0t17 6l-2 -2q31 10 61 23.5t52 35.5l-6 -6q47 41 47 101v-9q2 45 -16.5 86t-42.5 76l2 -6 q-23 35 -55.5 75t-62.5 82t-51.5 85t-21.5 86q0 51 29 92t72 68.5t93 42t95 14.5q8 0 29.5 -3t43 -9.5t39 -15.5t17.5 -21q0 -6 -5 -10.5t-9 -8.5q-8 -2 -24.5 -10t-33 -19.5t-32 -21.5t-21.5 -16l6 6q-31 -27 -53.5 -62.5t-22.5 -78.5q0 -61 35 -113l-2 2q4 0 5 -4t3 -8 l-2 2l13 -17l-9 11q25 -35 54.5 -79t56.5 -90t45.5 -93.5t18.5 -90.5zM100 172q-2 -2 -8 -2q6 0 8 2zM59 166h2h-2zM61 166h2h-2zM72 164l2 -2zM82 160l18 -4zM131 887q-6 0 -13 -12.5t-13.5 -28t-10.5 -29.5t-4 -20l2 -4v2l2 6q4 14 9.5 25.5t9.5 23.5q-2 4 9 17.5t11 17.5 zM283 973l-13 4q-4 2 -14 1t-16 -1q-35 0 -69 -15.5t-59.5 -41t-42 -58.5t-16.5 -67l2 -7l2 7l2 16q2 16 12.5 35.5t20.5 34.5q14 16 40 32.5t34 28.5q18 8 35.5 13.5t38.5 9.5l39 4l6 2zM305 305q-2 0 -3 -5t-1 -7q-18 -35 -33.5 -53.5t-44.5 -42.5q-4 0 -8 -4l-4 -3v-2 q14 0 31.5 12.5t31 31t22.5 38t9 33.5v2zM381 391v2l-6 15v2q-6 12 -25.5 47t-43 73.5t-46 71.5t-33.5 41l4 -10q4 -2 26 -38t47.5 -79t48 -82t28.5 -47h2zM272 627q0 4 -2 4t-2 4q0 -4 4 -8zM59 168q2 -2 7 -2h-7v2z" />
<glyph unicode="t" horiz-adv-x="747" d="M-55 1180q4 4 8 4zM496 66h-11h11zM506 66h-10h10zM723 266q0 -90 -55.5 -146.5t-145.5 -56.5q-66 0 -132 27t-122.5 72t-97.5 103.5t-55 121.5q-12 55 -19.5 149.5t-10.5 199t-3 201.5v159q-41 -10 -85 -15.5t-85 -15.5q-10 0 -27.5 4t-34 10t-30 16.5t-13.5 24.5 q0 6 18.5 14.5t41 17.5t45 17.5t33.5 10.5h-2l18 6l-12 -2q33 8 65.5 16t67.5 12q2 0 2 5q6 92 13 175t40 171q10 6 15.5 13t11.5 13t15 9.5t28 3.5q23 0 43 -11l4 -2h2l4 -2q31 -12 43 -21.5t29 -41.5q-6 -23 -7 -56.5t-1 -58.5v12q0 -47 -6.5 -96t-6.5 -96q25 0 89.5 -5 t130 -18.5t116.5 -36t51 -59.5q0 -14 -11 -16t-21 -2q-68 0 -135.5 13t-137.5 13l-86 -2v-2v-76q0 -117 1 -231.5t9 -231.5q2 -25 6.5 -91t16.5 -137t34.5 -125t59.5 -54q35 0 62.5 18.5t49 46t39 58.5t33.5 55q4 2 10.5 4t10.5 2q51 0 82 -41q0 -10 1 -22.5t1 -22.5z M152 1016q-2 0 -2 -8q-4 -23 -6.5 -46.5t-2.5 -48.5l2 -61l4 -23v2v13q0 25 -1 49.5t4 48.5v2l2 57v11v4zM156 352q0 78 -16.5 158t-16.5 160v180q0 129 17.5 259t11.5 259q2 -12 0 -49t-7.5 -90t-11.5 -114.5t-11 -121t-9 -112t-4 -84.5q0 -35 3 -99.5t8 -133t14 -128 t22 -84.5v-2v2zM557 68l12 4zM639 299v2q-2 0 -4 -5t-2 -7q-10 -16 -30.5 -45t-37.5 -43q-4 -4 -12 -8.5t-8 -10.5l2 -2q2 0 3 3t3 1q16 12 28.5 24.5t26.5 29.5q0 4 2 4q8 12 14.5 25.5t14.5 25.5v6zM655 248q-4 0 -12 -7.5t-8 -11.5v-6h2v2q0 4 2 6l6 9l10 6v2z" />
<glyph unicode="u" horiz-adv-x="784" d="M762 123q0 -14 -16.5 -18.5t-26.5 -4.5q-61 0 -101 21.5t-68 57.5t-45.5 81t-33.5 92q-8 -25 -22.5 -60.5t-33 -73.5t-39 -70.5t-38.5 -49.5h2l-14 -4q-10 -2 -18.5 -4t-18.5 -2q-94 0 -150.5 38t-87.5 99.5t-41 136t-10 148.5q0 111 6 225.5t37 220.5q8 8 15.5 13.5 t19.5 5.5q18 0 39.5 -4t43 -12.5t38 -21.5t24.5 -32v2l2 -6l6 -18l2 6l3 -25v6q0 -10 2 -17t2 -17q0 -96 -7.5 -190.5t-7.5 -190.5q0 -59 3 -119t20 -115l6 2q27 37 55.5 96.5t52 124t38 127t14.5 105.5q0 25 5 80t18.5 113.5t35 102.5t53.5 44q10 0 27.5 -5t34 -12.5 t29 -18.5t12.5 -24v2q2 -23 4 -42t-2 -42v9l-2 -109q0 -80 6 -170t22 -170q16 -82 42 -155.5t61 -149.5zM68 217q0 12 -5.5 25.5t-3.5 25.5q-16 43 -16 96.5v98.5q0 98 15.5 207.5t9.5 201.5q-23 -86 -30 -180t-7 -182q0 -33 2 -72t6 -79t11 -76.5t18 -67.5v2zM84 700l-2 -2 v-2l-2 -2h2h-2q-4 -23 -8 -45t-4 -45v-20v-25.5t4 -26.5l4 -6v2v13q-6 41 1 78.5t7 78.5v2zM379 428v-2l-2 -2l-4 -10v-4l-45 -103v-2l-35 -74h2q0 2 2 5q0 2 1 2t1 2q14 23 26.5 46t22.5 50l2 2q2 18 13.5 43t15.5 45v2zM498 573q0 -33 10 -63l4 -12l2 -4v2q-10 45 -10 88 v43v12h-2q-2 0 -3 -7t-1 -11v-48zM551 246q-33 129 -49.5 243.5t-16.5 247.5q0 29 6.5 55.5t6.5 51.5h-2q-10 -25 -15.5 -50.5t-5.5 -52.5v-104q0 -96 17.5 -201.5t58.5 -191.5v2zM154 963q2 -2 5 -3.5t5 -3.5q-2 3 -10 7z" />
<glyph unicode="v" horiz-adv-x="696" d="M621 844q-57 -150 -101.5 -302.5t-97.5 -303.5q-10 -33 -26.5 -67t-37.5 -62l-24 -7v-2q-4 -6 -11.5 -8t-13.5 -2q-18 0 -44.5 8t-51.5 20.5t-46.5 29t-29.5 32.5q-33 59 -57.5 157.5t-40.5 205t-26.5 209t-12.5 172.5l16 18h7q12 0 33.5 -5t43 -14.5t39 -21.5t21.5 -24 q37 -139 66.5 -289t52.5 -291q4 20 19 83.5t36.5 147.5t47.5 176.5t51.5 170t49 128t39.5 50.5q12 0 38 -6.5t50.5 -17.5t44 -24.5t19.5 -27.5zM88 627q0 -23 4 -54.5t8 -54.5l17 -72q0 -2 2 -10t4 -8v4l-2 10l-2 2q-2 27 -7.5 54.5t-9.5 54.5q-4 16 -5 31.5t-3 31.5 q0 2 -1 10.5t-3 8.5zM164 229q-18 96 -48 189.5t-44 191.5l-27 242l-2 -31q0 -59 8 -142t24.5 -167t38 -161t50.5 -124v2zM477 905q-25 -35 -42 -87t-31.5 -110.5t-28 -115.5t-27.5 -103q-10 -31 -17 -64.5t-16 -64.5l-10 -51l-6 -26v-2l2 2l2 10q4 23 10 44t13 44l26 98 q18 70 41 142q0 2 2 4q14 33 21.5 67.5t14.5 69.5t16.5 68.5t27.5 68.5l4 6h-2zM516 993q-4 0 -10 -18.5t-6 -22.5v-8v-4h2v4l2 6q4 10 8 19.5t4 17.5v6z" />
<glyph unicode="w" horiz-adv-x="1042" d="M1020 932q0 -47 -1 -128t-7 -175t-22.5 -190.5t-47.5 -175.5t-79 -129t-118 -50q-63 0 -106 25.5t-70.5 66.5t-46 92t-33.5 101q-10 -25 -23 -53.5t-30.5 -55.5t-37 -50.5t-44.5 -35.5l2 4q-27 -20 -71 -20q-106 0 -164 54t-84.5 134t-31.5 172t-5 168v143.5t4 143.5v-12 q0 10 2 21l4 22v-5l6 33v-2q4 16 8.5 22.5t22.5 6.5q16 0 37.5 -5t43.5 -15.5t38 -24t22 -27.5q31 -72 36 -159t5 -179t1 -184t24 -172q55 51 90 128t60.5 161t47 168t46.5 153q10 4 21 8t22 4q29 0 58.5 -16t43.5 -39t19.5 -101.5t11.5 -175t17 -193.5t38 -157 q47 39 78 101.5t50.5 137.5t28.5 158t12 163.5t3 155.5v132l12 15h13q27 0 51 -15.5t41 -33.5zM47 694q0 -10 2 -31.5t6 -44t8.5 -41t10.5 -24.5h2l-2 4v2l-2 12l-2 2q-4 61 -5.5 116.5t-1.5 117.5q0 8 -4 4q-4 -20 -8 -43t-4 -45v-29zM98 285q-27 80 -39 161.5t-15 164.5 t-1 166t2 167h-2q-4 -35 -11 -68.5t-7 -70.5v-90q0 -20 3 -69.5t9 -106t12 -106.5t12 -73q2 -4 6.5 -16t10.5 -26.5t11 -24.5t9 -10v2zM492 741l-3 -2q-25 -100 -58.5 -193t-80.5 -188q-2 -4 -12 -27.5t-10 -27.5h2l14 31q20 43 46 93t48.5 102.5t38 104.5t15.5 101v6z M721 197q-8 10 -15.5 19t-9.5 24v10t-4 8l-2 -4v-18q0 -16 11.5 -27.5t21.5 -22.5l14 -2l13 4h-9q-8 1 -20 9zM952 911q-12 -51 -17 -104t-9 -106.5t-11.5 -106.5t-23.5 -105l-39 -122l-16 -50l-9 -24v-2q4 0 10.5 19.5t8.5 23.5q49 150 78.5 285t29.5 292h-2zM958 606 q-2 0 -6 -15.5t-4 -19.5v-28l2 -2q4 0 3 4t-1 6q2 10 5.5 20.5t3.5 18.5v14z" />
<glyph unicode="x" horiz-adv-x="743" d="M719 971q-10 -12 -27 -17q-70 -76 -127 -159.5t-110 -171.5q8 -14 28.5 -48t47 -79t55 -97.5t52.5 -99.5t39 -86t15 -57q0 -10 -12 -27q-12 -4 -24.5 -8t-26.5 -4q-35 0 -72 17.5t-61 41.5q-8 33 -24.5 70t-35 73.5t-38 72.5t-36.5 69q-8 -14 -26.5 -47t-41 -75t-49 -86 t-51 -82t-45 -61.5t-30.5 -23.5q-14 0 -35 4t-40 13.5t-32.5 23.5t-13.5 33q0 45 26.5 117.5t62.5 151.5t74 150.5t60 114.5q-23 45 -52.5 86t-58 82t-55 83t-45.5 91q18 12 39 13q49 0 81 -18.5t56.5 -45.5t46 -58.5t48.5 -58.5v2l28 -34q12 23 40 63.5t61.5 80.5 t67.5 69.5t59 29.5q14 0 44.5 -9t61.5 -23.5t54.5 -33t23.5 -36.5zM350 651q0 -6 6 -17t13.5 -24.5t15.5 -25t12 -17.5q0 -8 6 -8v2q0 2 -5 12.5t-12 22.5t-14 22.5t-10 14.5q0 2 -5 11t-7 9v-2zM186 831q2 -6 4.5 -13t-0.5 -13q49 -90 109.5 -173t114.5 -171 q16 -29 30.5 -59.5t32.5 -59.5v2q-16 63 -57 129t-87 129.5t-88.5 121.5t-58.5 107zM481 1026q-2 -2 -2 -4t-2 -2q-16 -14 -28.5 -29.5t-24.5 -32.5q-10 -12 -25.5 -21t-15.5 -26h2l8 9q8 10 18.5 21t18.5 21.5t10 12.5q8 10 14.5 18t14.5 17l12 14l4 4v2z" />
<glyph unicode="y" horiz-adv-x="798" d="M762 829q6 -16 9 -55t3 -84v-86v-61q0 -55 -1 -158.5t-10 -224.5t-30.5 -247t-61.5 -227.5t-102.5 -167t-154.5 -65.5q-68 0 -132.5 26.5t-115.5 72t-82 105.5t-31 130q0 43 4 72.5t15.5 52t32 44t51.5 48.5l34 2q16 0 47 -15.5t42 -29.5l4 -16q-4 -4 -10.5 -30 t-14.5 -56.5t-13 -58t-5 -36.5q0 -47 14 -96t45 -86q61 29 104 108t71 174t41 189t20 154l-3 -4v4q-2 -12 -5 -22.5t-13 -20.5l4 4q-12 -35 -52 -50.5t-73 -15.5q-123 0 -199.5 53.5t-119.5 136.5t-58.5 185.5t-15.5 200.5q0 18 1 69.5t5 106.5t15.5 98t31.5 43q8 0 32 -5 t47.5 -13t40.5 -17.5t15 -15.5q8 -6 17 -26l2 4l2 -31v10q2 -6 3 -13t-1 -14q6 -76 7 -159.5t6 -166.5t18.5 -164t48.5 -151q16 6 30.5 14.5t26.5 18.5l-2 -2q43 27 71.5 78t47 117.5t30 142.5t20.5 147.5t18.5 135t23.5 108.5q2 2 8 13l-2 -2q0 4 12.5 7t16.5 3 q33 0 63.5 -13.5t54 -36t38 -51t14.5 -61.5q0 -16 2 -25zM74 516q2 0 1 5t-1 9q-6 37 -8.5 71t-2.5 73q0 18 -1 38.5t4 41.5v34v15q-4 0 -6.5 -26.5t-4.5 -59.5t-2 -64.5t2 -44.5l11 -63q0 -4 3 -17.5t5 -11.5zM102 649q2 0 0 7.5t-2 11.5q2 8 3 24.5t-1 20.5v6v4 q2 -14 -3 -29.5t-1 -29.5l2 -15h2zM141 -57q-4 0 -10 -10.5t-12 -24.5t-10.5 -26.5t-4.5 -18.5v-27q0 -2 1 -7t4 -5q2 0 2 6q0 16 3 29.5t7 29.5q4 8 6 16.5t6 16.5l6 15zM166 -92q0 -6 -6 -12.5t-6 -12.5v-6h2q2 0 1 3t1 5q2 4 5 10.5t3 8.5v2v2zM479 -217q31 72 54.5 158 t39 176t23.5 179t8 167v106.5t-16 106.5q-4 -47 1 -95.5t5 -95.5q0 -127 -16.5 -249.5t-42.5 -245.5q-10 -43 -21.5 -86t-26.5 -84l-10 -37v-2zM627 180l-2 2v-2l-2 -6q0 -23 -5.5 -45.5t-9.5 -44.5l-8 -31v-10q4 0 4 4v6q4 23 13.5 47.5t9.5 46.5v33zM651 381q2 12 1 26.5 t-1 26.5l-2 2v-2l-2 -6q0 -29 -5 -55.5t-5 -55.5v-12v-4q4 0 3 4t-1 6z" />
<glyph unicode="z" horiz-adv-x="692" d="M111 1036h2v-2zM668 166q-16 -10 -73.5 -19.5t-126.5 -16.5t-135.5 -11t-101.5 -4q-25 0 -63.5 6t-75.5 20.5t-64.5 37t-27.5 54.5q0 8 10 33t15 35q16 41 22 83t23 83q27 70 62.5 144.5t81.5 144t99.5 132t112.5 109.5q-59 0 -119.5 4.5t-120.5 14.5q-16 4 -33.5 9 t-33.5 9h-6h2q0 2 -4.5 4t-6.5 2q-6 2 -18 6.5t-25.5 11.5t-22.5 15t-9 17q0 8 24.5 14t55 8t58.5 3t32 1h-21h51q16 0 53 -1t82.5 -4t93.5 -10t87 -19.5t64.5 -32t25.5 -45.5q0 -14 -17.5 -16.5t-27.5 -4.5l4 -4q2 -6 4 -13.5t0 -13.5q-35 -53 -76 -121.5t-81 -140.5 t-74.5 -142.5t-57.5 -127.5q-20 -53 -29.5 -108.5t-31.5 -104.5q66 10 137.5 22.5t136.5 12.5q43 0 84.5 -18.5t61.5 -57.5zM451 1071q-6 8 -23.5 14.5t-39 9.5t-42 4t-31.5 1q-51 0 -96 -6l-37 -4q-2 0 -8 -1.5t-4 -3.5q43 0 87 3.5t87 3.5q29 0 55.5 -10.5t51.5 -10.5z M88 223q6 -2 16 -2q-4 0 -8 2t-8 0zM362 881q-41 -51 -93 -121t-98 -147.5t-78 -155.5t-32 -146v-2h2q6 43 32 102.5t58.5 123t70.5 125t69 110.5t51.5 79t20.5 32h-3zM242 651v2q-4 0 -12.5 -11t-16.5 -25.5t-14 -28t-6 -17.5h2q6 0 7 8.5t5 12.5q2 2 8 11t12 18.5 t11.5 17.5t5.5 10zM541 195q0 2 -9.5 3t-13.5 1q-14 4 -31.5 6t-31.5 2h-49q-29 0 -56.5 -5t-56.5 -12l-23 -6l-4 -2l2 -2h11l2 2q66 4 127 7.5t127 3.5q6 0 6 2z" />
<glyph unicode="{" horiz-adv-x="507" d="M424 -328l-31 -2q-27 0 -57.5 12.5t-52.5 24.5q-74 41 -106 107.5t-40 143.5t-3 158t5 152q0 31 -3 60.5t-7 60.5q-33 10 -67.5 19.5t-57.5 35.5l2 21q6 4 12.5 4t12.5 2q0 4 2 2t0 -2q68 27 93.5 85t30.5 129t-3.5 143.5t-8.5 132.5q0 27 7.5 71.5t24 87.5t42 74 t62.5 31q10 0 32.5 -6.5t46 -16.5t41 -22.5t17.5 -24.5q0 -6 -6 -8q2 -6 0 -12l-13 -5l-26 7q-10 -14 -19.5 -37t-15.5 -48.5t-10 -49t-4 -41.5q0 -74 11 -148t11 -147q0 -31 -2 -71t-11 -79t-28.5 -70.5t-52.5 -46.5q25 -31 36 -68.5t16 -78.5t6 -82t3 -78q4 -47 6.5 -93 t6.5 -93q4 -29 12 -75t24 -71l13 -18l2 -2h2h-2h2l4 -2l4 -2l8 -4q10 -4 23.5 -12.5t17.5 -18.5l6 -18zM221 -125l-2 6l-6 10l-8 17q-4 8 -6 15t-4 18q-4 16 -6.5 33.5t-4.5 33.5q-2 20 -2 40v40q0 37 2 75t2 75q0 4 -1 17t-2 26.5t-4 24.5t-7 11q-2 0 0 -6t2 -10 q0 -10 1 -21.5t1 -21.5q-2 -33 -6 -65.5t-4 -63.5q0 -16 -1 -31.5t1 -31.5q2 -14 4 -43t8 -59t16.5 -55.5t26.5 -35.5h2zM209 51q2 -2 2 -7t4 -5v8v33v24.5t-4 24.5v7t-2 5h-2l-2 -4q0 -20 3 -44t1 -42zM240 1044l-7 -8v-2q-10 -29 -14 -53.5t-8 -52.5l-2 -2v-43 q0 -10 1 -21.5t3 -21.5l2 -9v5v12l4 51q4 33 13.5 74t9.5 71h-2zM264 1174q-31 -6 -50 -37t-29.5 -70t-14.5 -79t-6 -64q-2 -16 -1 -33t1 -33q0 -31 3 -60.5t7 -60.5q0 -4 3 -23.5t9 -19.5v2q0 6 -1 10.5t-3 10.5q-2 12 -3 29.5t-1 29.5q0 33 2 79t6 93t10.5 89t16.5 71 q14 35 33 53l20 13h-2zM379 -260q-4 0 -4 2q2 -2 4 -2zM381 -328q4 -2 12 -2q4 0 6 -2h-2h-2z" />
<glyph unicode="|" horiz-adv-x="315" d="M250 -358q0 -10 -3 -23.5t-5 -24.5l-23 -18l-39 -2q-35 14 -67.5 28.5t-46.5 57.5q-4 10 -8.5 67.5t-9.5 145.5t-11 198.5t-11.5 230.5t-10.5 237.5t-9 220t-6 180.5t-2 115q0 70 6 139.5t29 134.5l24 8q29 -4 57.5 -15t45.5 -38q27 -125 26.5 -252t8.5 -254 q18 -285 36.5 -568t18.5 -568zM88 842q2 6 2 14v4h-4v-2v-6v-9t2 -5v4zM111 27q0 86 -4.5 189t-11.5 211t-16 212t-20 195q-4 45 0 89t0 87l-2 -2q-4 -29 -6 -53.5t-2 -53.5q0 -217 18.5 -437t41.5 -437l2 -2v2zM135 293q0 94 -8 194.5t-16 194.5q-2 25 -2 49.5t-3 48.5 l-2 17l-2 8v-2l-2 -19v-159q0 -82 9.5 -172.5t25.5 -169.5v10z" />
<glyph unicode="}" horiz-adv-x="516" d="M80 1139h-8h8zM449 416q0 -6 -5 -6v-7q-27 -37 -43 -104.5t-30.5 -147t-28.5 -162.5t-36.5 -150.5t-55.5 -110.5t-82 -43q-10 0 -25.5 3t-25.5 7l-21 6q-18 8 -30.5 19.5t-26.5 25.5v2v10q14 25 26.5 38.5t23.5 25.5t21.5 31.5t22.5 58.5q14 47 29.5 126t37 158.5 t52.5 144.5t76 87q-88 39 -118 100.5t-30 155.5q0 66 6.5 132.5t6.5 131.5q0 53 -10.5 90t-35.5 82q-2 -2 -2 0v2h-4l-24 8q-12 0 -30.5 4.5t-36 10.5t-32 16t-18.5 23l8 8q14 6 26.5 7t28.5 1q0 -4 -4 -3t-4 3l8 2h11q74 0 131 -27.5t97 -73.5t61.5 -107.5t21.5 -129.5 q0 -59 -7 -117.5t-7 -117.5q0 -53 12 -90t26.5 -62.5t27 -40t12.5 -20.5zM240 934q0 14 -1 39.5t-6 25.5l-2 -8q-2 -10 -2 -20v-21q-2 -29 -6 -56.5t-4 -55.5v-84q0 -14 2 -26.5t4 -27.5l6 -34l2 -15l5 -8l4 -6v-2v2zM252 805q-2 0 -3 -4t-1 -6q-2 -8 -4 -16.5t-2 -16.5v-31 q0 -6 4 -18l2 -4h2v4l-2 10v29l2 4q0 10 2 19t2 20v6v4h-2zM276 279q-20 -31 -36.5 -77t-27.5 -96.5t-17.5 -99.5t-4.5 -88q4 6 4.5 13.5t0.5 13.5q2 2 7 28.5t11 60.5t12 64.5t11 40.5q0 2 5 21.5t12 42t14 43t12 26.5v7h-3z" />
<glyph unicode="~" horiz-adv-x="991" d="M924 537q0 -33 -18.5 -57.5t-46.5 -41t-59.5 -24.5t-58.5 -8q-57 0 -112.5 13t-109.5 28.5t-107.5 28.5t-108.5 13q-49 0 -77.5 -12t-50 -31.5t-41 -43t-52.5 -46.5h-21q-23 0 -42 17.5t-19 40.5q0 82 44 129t128 47q57 0 114.5 -12.5t113 -27.5t110.5 -27.5t113 -12.5 q33 0 58.5 5t48 15.5t44 23.5t45.5 32l29 2q8 -4 21.5 -8.5t25.5 -10.5t20.5 -13t8.5 -19zM121 561q-4 0 -19.5 -14.5t-17.5 -16.5q-14 -14 -23 -28l-12 -21l-4 -12l-2 -8v-4l-2 -2v-4v2l2 2l2 2q2 10 15.5 29.5t19.5 29.5q10 12 26.5 20.5t16.5 24.5h-2zM170 567 q-2 0 -10 -5t-8 -7v-2h2q10 0 19 3t17 5q2 0 7.5 1t5.5 3v2h-33zM829 537q-4 0 -6 -4.5t-6 -2.5q-4 -2 -15 -6t-23.5 -9t-24 -8t-15.5 -3q-10 -6 -22 -5t-23 -3q-2 -2 -7 -2t-5 -2l6 -3h39q10 0 20.5 4.5t20.5 6.5q6 12 22.5 14t26.5 10l10 8q4 5 2 5zM854 549v2l-4 -2h-2 v-6v-2h4l2 2h2l-2 2v2v2z" />
<glyph unicode="&#xa8;" horiz-adv-x="681" d="M291 1223q0 -18 -9.5 -37t-23.5 -33t-32.5 -23.5t-37.5 -7.5q-27 2 -59.5 10.5t-61 23.5t-48 39t-19.5 56q0 23 12.5 52.5t34.5 35.5q16 35 53 35q27 0 60 -13t61.5 -34.5t49 -48t20.5 -55.5zM627 1223q0 -18 -9.5 -37t-23.5 -33t-32.5 -23.5t-37.5 -7.5 q-27 2 -59.5 10.5t-61 23.5t-48 39t-19.5 56q0 23 12 52.5t35 35.5q16 35 53 35q27 0 59.5 -13t61.5 -34.5t49.5 -48t20.5 -55.5z" />
<glyph unicode="&#xad;" horiz-adv-x="583" d="M516 463l-29 -10q-18 2 -62 1t-97.5 -1t-111.5 1t-105.5 5t-78 14t-30.5 27q0 -2 6 4q12 6 55 11t93.5 10t95.5 7.5t63 2.5q49 0 97.5 -5.5t89.5 -40.5zM344 508q-27 0 -50.5 5t-49.5 5h-62q-4 0 -15 -2t-23.5 -5t-21.5 -7t-11 -6q63 12 119.5 8t117.5 0zM410 508 q0 6 -9 6h-6l-2 -2v-2h2q4 -4 6 -4h9v2z" />
<glyph unicode="&#xb4;" horiz-adv-x="391" d="M219 1378q8 0 26.5 -5t37 -12t32 -17.5t13.5 -22.5q0 -2 -30 -30.5t-69 -64.5t-77.5 -70t-55.5 -46h-24q-6 0 -16.5 4t-21.5 9t-19.5 12.5t-8.5 13.5q0 2 6 10t14.5 18.5t16.5 18.5l10 10q6 6 28.5 34t50.5 58.5t53.5 55t33.5 24.5zM121 1208q10 6 25.5 24.5t19.5 22.5 q10 16 25.5 40t19.5 42v13l-2 -4l-6 -13q-14 -27 -31 -47q-16 -23 -49 -57.5t-62 -46.5l-2 -2l2 -2l9 2q12 6 22 12q10 4 17.5 8t11.5 8zM238 1335q2 2 2 4l-6 -8q-7 -8 -14 -17t-13 -19.5t-8 -12.5q0 -2 -4.5 -8t-10.5 -13.5t-11 -14.5t-5 -9v-2l6 6q12 14 24.5 24.5 t22.5 24.5h2q4 10 9.5 20.5t7.5 20.5z" />
<glyph unicode="&#xb8;" horiz-adv-x="466" d="M397 -217q0 -39 -19.5 -72t-50 -56.5t-68.5 -36.5t-73 -13q-20 0 -38.5 4t-36.5 4h2q-27 10 -58.5 19.5t-50.5 31.5l-4 17l35 16q33 -2 70.5 5t70.5 23.5t54.5 44t21.5 68.5q0 18 -6 35l-49 -12q-8 -14 -14.5 -22.5t-22.5 -8.5q-10 0 -30.5 3t-42 9t-38 15.5t-16.5 21.5 q0 4 6 10l-2 15q10 14 30.5 48t43 68.5t45 62.5t37.5 32q8 -4 14 8t16 12q6 0 17.5 -3t22.5 -7t20.5 -11.5t9.5 -13.5q0 -16 -6 -22l6 -15l-2 -10v2q-4 -27 -21.5 -59.5t-29.5 -56.5q57 -14 107 -52t50 -104zM268 -127q2 0 3 -1t3 -1q-2 0 -4 2h-2z" />
<glyph unicode="&#xc0;" horiz-adv-x="985" d="M963 12q0 -10 -9.5 -14t-19.5 -4q-68 0 -114 42t-78.5 102.5t-55 128t-43.5 118.5q-23 4 -48.5 4h-47.5q-43 0 -91 -4t-91 -12q-8 -23 -27 -77t-44.5 -108.5t-54 -94.5t-57.5 -32q-12 -4 -18 -4q-18 0 -41 6.5t-45.5 15.5t-41 22.5t-30.5 27.5l-4 23q0 6 13.5 31.5 t28.5 55t29.5 58.5t20.5 43q57 145 101.5 296.5t81 306.5t69.5 309.5t70 306.5v-3l6 13q10 6 19.5 11t19.5 5q49 0 94 -23.5t70 -64.5q-2 -14 1 -27.5t-1 -29.5v6q0 -10 -2 -19.5t-5 -19.5q33 -72 56.5 -194.5t42 -260t36 -269.5t40.5 -222q29 -109 68.5 -217.5t90.5 -208.5 q2 -4 6.5 -10.5t4.5 -12.5zM264 477q0 8 -6 8q-4 0 -8 -7t-7 -15t-6.5 -16.5t-3.5 -10.5q0 -4 5 -4q2 0 14 19.5t12 25.5zM442 1427q-4 -10 -8 -18t-10 -18l2 -2q-4 -10 -18.5 -58.5t-33 -119t-40 -151.5t-40 -155l-32.5 -130t-20 -77q-14 -53 -28.5 -109.5t-33.5 -109.5 q-8 -23 -14 -45t-12 -45l-4 -22l-7 -23v-4l2 4l7 16q14 39 24 77t23 77q33 113 69.5 226.5t70.5 228t61.5 229.5t43.5 232zM467 1282q-33 -70 -49.5 -157t-32.5 -158q-10 -41 -18.5 -81t-16.5 -81l-14 -64l-21 -79l-14 -60l-6 -29v-2v2q2 6 16.5 58.5t34 129.5t41 166 t39.5 165.5t30.5 130t12.5 59.5h-2zM618 471q-41 123 -57 256t-31 262q-29 -129 -60.5 -257t-72.5 -255q29 4 56.5 6t56.5 2t54 -5t54 -9zM819 127q-86 166 -142 351.5t-87 371.5l-2 -2q25 -176 73 -358.5t140 -335.5l18 -29v2zM322 1974v2v-2zM657 1675q0 -12 -11 -15 t-19 -3q-18 0 -40 5t-43.5 14.5t-40 21.5t-28.5 26q-14 20 -39.5 55.5t-51.5 72t-44 70.5t-18 52q0 4 4 13l39 2q18 -8 31.5 -16.5t29.5 -20.5q2 -2 8 -8.5t2 0.5q10 -10 20.5 -19.5t20.5 -19.5v-2q8 -6 38 -39t61.5 -72t56 -74t24.5 -43zM506 1741q0 4 -11.5 16t-13.5 17 q-23 33 -43 65.5t-43 65.5q-8 10 -13 22t-13 23q-6 6 -4 6v-10q0 -14 16 -43t37.5 -60t43 -58.5t34.5 -39.5q4 -2 5 -4t5 -2v2z" />
<glyph unicode="&#xc1;" horiz-adv-x="985" d="M963 12q0 -10 -9.5 -14t-19.5 -4q-68 0 -114 42t-78.5 102.5t-55 128t-43.5 118.5q-23 4 -48.5 4h-47.5q-43 0 -91 -4t-91 -12q-8 -23 -27 -77t-44.5 -108.5t-54 -94.5t-57.5 -32q-12 -4 -18 -4q-18 0 -41 6.5t-45.5 15.5t-41 22.5t-30.5 27.5l-4 23q0 6 13.5 31.5 t28.5 55t29.5 58.5t20.5 43q57 145 101.5 296.5t81 306.5t69.5 309.5t70 306.5v-3l6 13q10 6 19.5 11t19.5 5q49 0 94 -23.5t70 -64.5q-2 -14 1 -27.5t-1 -29.5v6q0 -10 -2 -19.5t-5 -19.5q33 -72 56.5 -194.5t42 -260t36 -269.5t40.5 -222q29 -109 68.5 -217.5t90.5 -208.5 q2 -4 6.5 -10.5t4.5 -12.5zM264 477q0 8 -6 8q-4 0 -8 -7t-7 -15t-6.5 -16.5t-3.5 -10.5q0 -4 5 -4q2 0 14 19.5t12 25.5zM442 1427q-4 -10 -8 -18t-10 -18l2 -2q-4 -10 -18.5 -58.5t-33 -119t-40 -151.5t-40 -155l-32.5 -130t-20 -77q-14 -53 -28.5 -109.5t-33.5 -109.5 q-8 -23 -14 -45t-12 -45l-4 -22l-7 -23v-4l2 4l7 16q14 39 24 77t23 77q33 113 69.5 226.5t70.5 228t61.5 229.5t43.5 232zM467 1282q-33 -70 -49.5 -157t-32.5 -158q-10 -41 -18.5 -81t-16.5 -81l-14 -64l-21 -79l-14 -60l-6 -29v-2v2q2 6 16.5 58.5t34 129.5t41 166 t39.5 165.5t30.5 130t12.5 59.5h-2zM618 471q-41 123 -57 256t-31 262q-29 -129 -60.5 -257t-72.5 -255q29 4 56.5 6t56.5 2t54 -5t54 -9zM819 127q-86 166 -142 351.5t-87 371.5l-2 -2q25 -176 73 -358.5t140 -335.5l18 -29v2zM649 1841q0 -2 -29.5 -30.5t-68.5 -64.5 t-78 -70t-55 -46h-25q-6 0 -16 4t-21.5 9.5t-19.5 12.5t-8 13q0 2 6 10.5t14 18.5t16.5 18t10.5 10q6 6 28.5 34t50 58.5t53 55t34.5 24.5q8 0 26.5 -5t37 -12t31.5 -17.5t13 -22.5z" />
<glyph unicode="&#xc2;" horiz-adv-x="985" d="M963 12q0 -10 -9.5 -14t-19.5 -4q-68 0 -114 42t-78.5 102.5t-55 128t-43.5 118.5q-23 4 -48.5 4h-47.5q-43 0 -91 -4t-91 -12q-8 -23 -27 -77t-44.5 -108.5t-54 -94.5t-57.5 -32q-12 -4 -18 -4q-18 0 -41 6.5t-45.5 15.5t-41 22.5t-30.5 27.5l-4 23q0 6 13.5 31.5 t28.5 55t29.5 58.5t20.5 43q57 145 101.5 296.5t81 306.5t69.5 309.5t70 306.5v-3l6 13q10 6 19.5 11t19.5 5q49 0 94 -23.5t70 -64.5q-2 -14 1 -27.5t-1 -29.5v6q0 -10 -2 -19.5t-5 -19.5q33 -72 56.5 -194.5t42 -260t36 -269.5t40.5 -222q29 -109 68.5 -217.5t90.5 -208.5 q2 -4 6.5 -10.5t4.5 -12.5zM264 477q0 8 -6 8q-4 0 -8 -7t-7 -15t-6.5 -16.5t-3.5 -10.5q0 -4 5 -4q2 0 14 19.5t12 25.5zM442 1427q-4 -10 -8 -18t-10 -18l2 -2q-4 -10 -18.5 -58.5t-33 -119t-40 -151.5t-40 -155l-32.5 -130t-20 -77q-14 -53 -28.5 -109.5t-33.5 -109.5 q-8 -23 -14 -45t-12 -45l-4 -22l-7 -23v-4l2 4l7 16q14 39 24 77t23 77q33 113 69.5 226.5t70.5 228t61.5 229.5t43.5 232zM467 1282q-33 -70 -49.5 -157t-32.5 -158q-10 -41 -18.5 -81t-16.5 -81l-14 -64l-21 -79l-14 -60l-6 -29v-2v2q2 6 16.5 58.5t34 129.5t41 166 t39.5 165.5t30.5 130t12.5 59.5h-2zM618 471q-41 123 -57 256t-31 262q-29 -129 -60.5 -257t-72.5 -255q29 4 56.5 6t56.5 2t54 -5t54 -9zM819 127q-86 166 -142 351.5t-87 371.5l-2 -2q25 -176 73 -358.5t140 -335.5l18 -29v2zM735 1673q-12 -16 -28 -12l-32 8t-32 12h-2 q2 -2 6 -2t-2 1t-10 3l-19 11q-16 10 -31.5 20t-25.5 27q-4 2 -8 6q-14 12 -32.5 21.5t-29.5 25.5q-35 -25 -66.5 -61.5t-53.5 -75.5q-4 -2 -12.5 -5t-12.5 -3q-31 0 -57.5 14t-40.5 43q2 16 18.5 47t35.5 61.5t40.5 54t36.5 23.5q51 0 101 -18.5t97.5 -46t89.5 -61 t76 -66.5zM371 1860q-2 0 -5.5 -3.5t-0.5 -5.5q-16 -16 -26.5 -37.5t-31.5 -33.5q-4 -14 -13 -29.5t-9 -30.5l2 -2q0 2 2 4q0 2 1 2t1 2q10 18 19 37t22 35q-2 2 1 5t5 3q2 8 15.5 25.5t19.5 21.5q0 2 1 3.5t1 3.5h-4z" />
<glyph unicode="&#xc3;" horiz-adv-x="985" d="M963 12q0 -10 -9.5 -14t-19.5 -4q-68 0 -114 42t-78.5 102.5t-55 128t-43.5 118.5q-23 4 -48.5 4h-47.5q-43 0 -91 -4t-91 -12q-8 -23 -27 -77t-44.5 -108.5t-54 -94.5t-57.5 -32q-12 -4 -18 -4q-18 0 -41 6.5t-45.5 15.5t-41 22.5t-30.5 27.5l-4 23q0 6 13.5 31.5 t28.5 55t29.5 58.5t20.5 43q57 145 101.5 296.5t81 306.5t69.5 309.5t70 306.5v-3l6 13q10 6 19.5 11t19.5 5q49 0 94 -23.5t70 -64.5q-2 -14 1 -27.5t-1 -29.5v6q0 -10 -2 -19.5t-5 -19.5q33 -72 56.5 -194.5t42 -260t36 -269.5t40.5 -222q29 -109 68.5 -217.5t90.5 -208.5 q2 -4 6.5 -10.5t4.5 -12.5zM264 477q0 8 -6 8q-4 0 -8 -7t-7 -15t-6.5 -16.5t-3.5 -10.5q0 -4 5 -4q2 0 14 19.5t12 25.5zM442 1427q-4 -10 -8 -18t-10 -18l2 -2q-4 -10 -18.5 -58.5t-33 -119t-40 -151.5t-40 -155l-32.5 -130t-20 -77q-14 -53 -28.5 -109.5t-33.5 -109.5 q-8 -23 -14 -45t-12 -45l-4 -22l-7 -23v-4l2 4l7 16q14 39 24 77t23 77q33 113 69.5 226.5t70.5 228t61.5 229.5t43.5 232zM467 1282q-33 -70 -49.5 -157t-32.5 -158q-10 -41 -18.5 -81t-16.5 -81l-14 -64l-21 -79l-14 -60l-6 -29v-2v2q2 6 16.5 58.5t34 129.5t41 166 t39.5 165.5t30.5 130t12.5 59.5h-2zM618 471q-41 123 -57 256t-31 262q-29 -129 -60.5 -257t-72.5 -255q29 4 56.5 6t56.5 2t54 -5t54 -9zM819 127q-86 166 -142 351.5t-87 371.5l-2 -2q25 -176 73 -358.5t140 -335.5l18 -29v2zM725 1743q-4 -35 -33.5 -52.5t-60.5 -17.5 q-61 0 -120.5 22.5t-117.5 22.5q-51 0 -84 -32l-2 -7l-31 -32h-12q-8 0 -17 7t-14 11l-2 12q8 27 14.5 45.5t15.5 29.5t26.5 15.5t52.5 4.5q59 0 113.5 -21.5t111.5 -21.5q33 0 56.5 12t48.5 31h14l23 -11zM319 1759l-4 -2l-4 -2l-6 -4l-14 -8q-14 -8 -21 -19q-4 -6 -9 -15 t-5 -15q0 -2 4 -2l2 4q0 2 2 4q4 6 7 11t8 9l18 17l10 10l8 6l4 2l3 2v2q2 2 2 0h-5zM662 1747l-3 -2q0 -2 -9 -7t-19 -11.5t-19.5 -12.5t-9.5 -8h4q8 0 33 13.5t25 23.5v4h-2z" />
<glyph unicode="&#xc4;" horiz-adv-x="985" d="M963 12q0 -10 -9.5 -14t-19.5 -4q-68 0 -114 42t-78.5 102.5t-55 128t-43.5 118.5q-23 4 -48.5 4h-47.5q-43 0 -91 -4t-91 -12q-8 -23 -27 -77t-44.5 -108.5t-54 -94.5t-57.5 -32q-12 -4 -18 -4q-18 0 -41 6.5t-45.5 15.5t-41 22.5t-30.5 27.5l-4 23q0 6 13.5 31.5 t28.5 55t29.5 58.5t20.5 43q57 145 101.5 296.5t81 306.5t69.5 309.5t70 306.5v-3l6 13q10 6 19.5 11t19.5 5q49 0 94 -23.5t70 -64.5q-2 -14 1 -27.5t-1 -29.5v6q0 -10 -2 -19.5t-5 -19.5q33 -72 56.5 -194.5t42 -260t36 -269.5t40.5 -222q29 -109 68.5 -217.5t90.5 -208.5 q2 -4 6.5 -10.5t4.5 -12.5zM264 477q0 8 -6 8q-4 0 -8 -7t-7 -15t-6.5 -16.5t-3.5 -10.5q0 -4 5 -4q2 0 14 19.5t12 25.5zM442 1427q-4 -10 -8 -18t-10 -18l2 -2q-4 -10 -18.5 -58.5t-33 -119t-40 -151.5t-40 -155l-32.5 -130t-20 -77q-14 -53 -28.5 -109.5t-33.5 -109.5 q-8 -23 -14 -45t-12 -45l-4 -22l-7 -23v-4l2 4l7 16q14 39 24 77t23 77q33 113 69.5 226.5t70.5 228t61.5 229.5t43.5 232zM467 1282q-33 -70 -49.5 -157t-32.5 -158q-10 -41 -18.5 -81t-16.5 -81l-14 -64l-21 -79l-14 -60l-6 -29v-2v2q2 6 16.5 58.5t34 129.5t41 166 t39.5 165.5t30.5 130t12.5 59.5h-2zM618 471q-41 123 -57 256t-31 262q-29 -129 -60.5 -257t-72.5 -255q29 4 56.5 6t56.5 2t54 -5t54 -9zM819 127q-86 166 -142 351.5t-87 371.5l-2 -2q25 -176 73 -358.5t140 -335.5l18 -29v2zM469 1741q0 -18 -9 -36.5t-23.5 -33t-33 -24 t-36.5 -7.5q-27 2 -60 10.5t-61.5 24t-48 39t-19.5 55.5q0 23 12.5 52.5t34.5 36.5q16 35 54 34q27 0 59.5 -13t61 -34.5t49 -48t20.5 -55.5zM805 1741q0 -18 -9.5 -36.5t-23.5 -33t-32.5 -24t-37.5 -7.5q-27 2 -59.5 10.5t-61 24t-48 39t-19.5 55.5q0 23 12.5 52.5 t34.5 36.5q16 35 53 34q27 0 60 -13t61.5 -34.5t49 -48t20.5 -55.5z" />
<glyph unicode="&#xc7;" horiz-adv-x="833" d="M518 1413q0 -2 -2 -2zM588 299l4 6l-4 -4v-2zM309 1501h2h-2zM809 336q0 -63 -30.5 -112.5t-78 -83.5t-106.5 -52t-115 -18q-117 0 -206 37.5t-149.5 105.5t-92 160t-31.5 200q0 51 5 133t17.5 178.5t33 196t51 184.5t74.5 146.5t102 81.5h-4q10 4 30 8h-2l-4 -2l4 2h2 l8 2h-2l-4 -2q16 4 31.5 6t32.5 2q61 0 125.5 -18t117 -53t86 -89.5t33.5 -123.5q0 -29 -4 -56.5t-18 -52.5h2l-17 -18l-8 -23q-4 -2 -10 -4t-10 -2q-78 0 -78 70q0 33 -4 71.5t-12.5 76.5t-23.5 71t-36 55l-2 -2h-4l-14 -10l4 6q-29 -29 -57.5 -49.5t-53.5 -57.5 q-45 -68 -76.5 -169t-51 -213.5t-29 -221t-9.5 -188.5q0 -31 4 -77t14.5 -94t28 -88t45.5 -59q12 2 26.5 0t27.5 -2q29 0 59 11q47 16 82 40.5t70 55.5l6 4l-2 -2l2 2v2l4 4l6 6h-2q8 10 20.5 29.5t26.5 38t28.5 33t28.5 14.5q29 0 60 -15.5t47 -37.5zM666 1167v7l2 8 q0 2 1 11t0 18.5t-2 16.5t-3 7h-2q-2 0 -2.5 -6t-0.5 -8q0 -10 -1 -21.5t4 -21.5v-6.5t2 -4.5h2zM592 1343q0 -2 3 -4t1 -4q14 -16 19.5 -41.5t6.5 -54.5t-1.5 -56.5t-2.5 -47.5v-2q2 0 3.5 8t1.5 10q12 43 12 90q0 8 -3 25.5t-8.5 35t-13.5 31t-18 13.5v-3zM520 1411h2h-2z M111 317q0 10 -1 25.5t-6 26.5l-2 10v2h-4v-6v-17q0 -8 2 -17t4 -17l5 -9zM193 1092q-23 -55 -34.5 -114.5t-33.5 -113.5q0 -2 -3 -28.5t-8 -59.5t-8.5 -63.5t-3.5 -42.5h2v8l2 22l4 16q3 17 6 35.5t6 35t3 18.5q8 41 17.5 79t17.5 79q4 23 11 45t13 45q4 10 6.5 17t4.5 17 v7zM258 1368q-35 -53 -66.5 -147.5t-56 -197.5t-39 -199.5t-14.5 -155.5v-113.5t20 -110.5v-2v2l-2 17q-2 12 -5 24.5t-3 24.5v10q0 25 -2 49.5t-2 51.5q0 190 51 381.5t121 365.5h-2zM723 393q-4 0 -8 -9t-6 -13l-41 -58q-25 -35 -42.5 -51t-35 -26.5t-35.5 -20.5t-43 -29 l12 -2q-2 0 0 2h2q6 2 13.5 2t13.5 5q10 4 19.5 10t19.5 12q35 25 59.5 58.5t46.5 68.5q6 10 11.5 18.5t9.5 18.5l4 12v2zM614 -217q0 -39 -19.5 -72t-50 -56.5t-68.5 -36.5t-73 -13q-20 0 -38.5 4t-36.5 4h2q-27 10 -58.5 19.5t-50.5 31.5l-4 17l35 16q33 -2 70.5 5 t70.5 23.5t54.5 44t21.5 68.5q0 18 -6 35l-49 -12q-8 -14 -14.5 -22.5t-22.5 -8.5q-10 0 -30.5 3t-42 9t-38 15.5t-16.5 21.5q0 4 6 10l-2 15q10 14 30.5 48t43 68.5t45 62.5t37.5 32q8 -4 14 8t16 12q6 0 17.5 -3t23 -7t20.5 -11.5t9 -13.5q0 -16 -6 -22l6 -15l-2 -10v2 q-4 -27 -21.5 -59.5t-29.5 -56.5q57 -14 107 -52t50 -104zM485 -127q2 0 3 -1t4 -1q-2 0 -5 2h-2z" />
<glyph unicode="&#xc8;" horiz-adv-x="854" d="M414 1479h-4h4zM829 1505l-24 -16q-98 0 -195.5 -2t-195.5 -8l10 2q-41 -4 -88 -8.5t-88 0.5q8 -25 8 -58v6v-218t-2 -218v12v-43t-2 -43h6q25 10 64.5 17.5t83 12.5t84 8t67.5 3q16 0 31.5 -4t32.5 -8q2 -2 14 -7t26.5 -13.5t26.5 -18.5t12 -20q0 -16 -12 -17.5 t-22 -1.5h-91q-25 0 -70.5 -3t-97 -6t-94.5 -3t-61 6q-4 -199 -8 -396.5t-4 -396.5q16 4 71.5 11.5t120 14.5t123.5 12t84 5q12 0 34.5 -6t46 -17t40 -24.5t16.5 -27.5q0 -4 -6 -11q-33 -12 -108.5 -20t-160.5 -12t-163 -5t-115 3q-6 -10 -16 -10.5t-21 -0.5q-51 0 -103 26 t-83 67v8q0 16 14 24h2q0 242 2 479.5t13 479.5q2 39 7 98.5t9 120.5t8 116.5t2 88.5q-10 6 -27.5 17t-17.5 26q0 4 13.5 10t31 12t33.5 9.5t23 3.5l8 6l22 2l4 -2q121 23 245 30t247 7q16 0 48 -6.5t63.5 -18.5t55 -29.5t23.5 -38.5v-6zM100 1405q0 12 1 24.5t-3 22.5 l-2 -2q-12 -119 -16 -239.5t-4 -242.5v-244t-2 -241q0 -10 1 -20t1 -21l2 -4v4v17l2 53l2 90q8 201 13 401.5t5 401.5zM127 1251q0 25 -3 50.5t-1 48.5q0 -106 -5 -213t-5 -213v-133l2 -3v3v10v78q4 74 8 148.5t4 148.5v75zM500 70q-31 0 -70 -7.5t-70 -13.5l-43 -10l-10 -2 l-6 -2l-2 -2q35 0 78 10t78 18l41 7l8 2h-4zM324 899q25 0 52 7t56 7l64 2l14 3h8v2h-96l-25 -2q-14 -2 -26.5 -3.5t-24.5 -5.5l-16 -6l-4 -2zM584 1571l-15 2q-16 2 -32.5 1t-32.5 -1h-44h-51.5t-49 -1t-42.5 -5l11 -4q10 2 22 -1t23 -3h37q45 0 89 5t91 5v2h-6zM645 1565 q-2 0 -5 2t-5 2h-14l-7 -4v-2q0 -2 9.5 -4.5t11.5 -2.5q4 0 10 1.5t6 5.5v2h-6zM256 1974v2v-2zM592 1675q0 -12 -11.5 -15t-19.5 -3q-18 0 -39.5 5t-43 14.5t-40 21.5t-28.5 26q-14 20 -40 55.5t-51.5 72t-44 70.5t-18.5 52q0 4 4 13l39 2q18 -8 31.5 -16.5t29.5 -20.5 l8.5 -8.5t2.5 0.5q10 -10 20 -19.5t21 -19.5v-2q8 -6 37.5 -39t61.5 -72t56.5 -74t24.5 -43zM440 1741q0 4 -11 16t-13 17q-23 33 -43.5 65.5t-42.5 65.5q-8 10 -13.5 22t-13.5 23q-6 6 -4 6v-10q0 -14 16.5 -43t38 -60t43 -58.5t33.5 -39.5q4 -2 5 -4t5 -2v2z" />
<glyph unicode="&#xc9;" horiz-adv-x="854" d="M414 1479h-4h4zM829 1505l-24 -16q-98 0 -195.5 -2t-195.5 -8l10 2q-41 -4 -88 -8.5t-88 0.5q8 -25 8 -58v6v-218t-2 -218v12v-43t-2 -43h6q25 10 64.5 17.5t83 12.5t84 8t67.5 3q16 0 31.5 -4t32.5 -8q2 -2 14 -7t26.5 -13.5t26.5 -18.5t12 -20q0 -16 -12 -17.5 t-22 -1.5h-91q-25 0 -70.5 -3t-97 -6t-94.5 -3t-61 6q-4 -199 -8 -396.5t-4 -396.5q16 4 71.5 11.5t120 14.5t123.5 12t84 5q12 0 34.5 -6t46 -17t40 -24.5t16.5 -27.5q0 -4 -6 -11q-33 -12 -108.5 -20t-160.5 -12t-163 -5t-115 3q-6 -10 -16 -10.5t-21 -0.5q-51 0 -103 26 t-83 67v8q0 16 14 24h2q0 242 2 479.5t13 479.5q2 39 7 98.5t9 120.5t8 116.5t2 88.5q-10 6 -27.5 17t-17.5 26q0 4 13.5 10t31 12t33.5 9.5t23 3.5l8 6l22 2l4 -2q121 23 245 30t247 7q16 0 48 -6.5t63.5 -18.5t55 -29.5t23.5 -38.5v-6zM100 1405q0 12 1 24.5t-3 22.5 l-2 -2q-12 -119 -16 -239.5t-4 -242.5v-244t-2 -241q0 -10 1 -20t1 -21l2 -4v4v17l2 53l2 90q8 201 13 401.5t5 401.5zM127 1251q0 25 -3 50.5t-1 48.5q0 -106 -5 -213t-5 -213v-133l2 -3v3v10v78q4 74 8 148.5t4 148.5v75zM500 70q-31 0 -70 -7.5t-70 -13.5l-43 -10l-10 -2 l-6 -2l-2 -2q35 0 78 10t78 18l41 7l8 2h-4zM324 899q25 0 52 7t56 7l64 2l14 3h8v2h-96l-25 -2q-14 -2 -26.5 -3.5t-24.5 -5.5l-16 -6l-4 -2zM584 1571l-15 2q-16 2 -32.5 1t-32.5 -1h-44h-51.5t-49 -1t-42.5 -5l11 -4q10 2 22 -1t23 -3h37q45 0 89 5t91 5v2h-6zM645 1565 q-2 0 -5 2t-5 2h-14l-7 -4v-2q0 -2 9.5 -4.5t11.5 -2.5q4 0 10 1.5t6 5.5v2h-6zM584 1841q0 -2 -30 -30.5t-69 -64.5t-77.5 -70t-55.5 -46h-24q-6 0 -16.5 4t-21.5 9.5t-19.5 12.5t-8.5 13q0 2 6 10.5t14.5 18.5t16.5 18l10 10q6 6 28.5 34t50.5 58.5t53.5 55t33.5 24.5 t26.5 -5t37 -12t32 -17.5t13.5 -22.5z" />
<glyph unicode="&#xca;" horiz-adv-x="854" d="M414 1479h-4h4zM829 1505l-24 -16q-98 0 -195.5 -2t-195.5 -8l10 2q-41 -4 -88 -8.5t-88 0.5q8 -25 8 -58v6v-218t-2 -218v12v-43t-2 -43h6q25 10 64.5 17.5t83 12.5t84 8t67.5 3q16 0 31.5 -4t32.5 -8q2 -2 14 -7t26.5 -13.5t26.5 -18.5t12 -20q0 -16 -12 -17.5 t-22 -1.5h-91q-25 0 -70.5 -3t-97 -6t-94.5 -3t-61 6q-4 -199 -8 -396.5t-4 -396.5q16 4 71.5 11.5t120 14.5t123.5 12t84 5q12 0 34.5 -6t46 -17t40 -24.5t16.5 -27.5q0 -4 -6 -11q-33 -12 -108.5 -20t-160.5 -12t-163 -5t-115 3q-6 -10 -16 -10.5t-21 -0.5q-51 0 -103 26 t-83 67v8q0 16 14 24h2q0 242 2 479.5t13 479.5q2 39 7 98.5t9 120.5t8 116.5t2 88.5q-10 6 -27.5 17t-17.5 26q0 4 13.5 10t31 12t33.5 9.5t23 3.5l8 6l22 2l4 -2q121 23 245 30t247 7q16 0 48 -6.5t63.5 -18.5t55 -29.5t23.5 -38.5v-6zM100 1405q0 12 1 24.5t-3 22.5 l-2 -2q-12 -119 -16 -239.5t-4 -242.5v-244t-2 -241q0 -10 1 -20t1 -21l2 -4v4v17l2 53l2 90q8 201 13 401.5t5 401.5zM127 1251q0 25 -3 50.5t-1 48.5q0 -106 -5 -213t-5 -213v-133l2 -3v3v10v78q4 74 8 148.5t4 148.5v75zM500 70q-31 0 -70 -7.5t-70 -13.5l-43 -10l-10 -2 l-6 -2l-2 -2q35 0 78 10t78 18l41 7l8 2h-4zM324 899q25 0 52 7t56 7l64 2l14 3h8v2h-96l-25 -2q-14 -2 -26.5 -3.5t-24.5 -5.5l-16 -6l-4 -2zM584 1571l-15 2q-16 2 -32.5 1t-32.5 -1h-44h-51.5t-49 -1t-42.5 -5l11 -4q10 2 22 -1t23 -3h37q45 0 89 5t91 5v2h-6zM645 1565 q-2 0 -5 2t-5 2h-14l-7 -4v-2q0 -2 9.5 -4.5t11.5 -2.5q4 0 10 1.5t6 5.5v2h-6zM670 1673q-12 -16 -29 -12q-16 4 -31.5 8t-31.5 12h-3q2 -2 7 -2q4 0 -2.5 1t-10.5 3l-18 11q-16 10 -31.5 20t-25.5 27q-4 2 -9 6q-14 12 -32.5 21.5t-28.5 25.5q-35 -25 -66.5 -61.5 t-54.5 -75.5q-4 -2 -12 -5t-12 -3q-31 0 -57.5 14t-41.5 43q2 16 18.5 47t36 61.5t41 54t35.5 23.5q51 0 101.5 -18.5t97.5 -46t89 -61t77 -66.5zM305 1860q-2 0 -5 -3.5t-1 -5.5q-16 -16 -26.5 -37.5t-30.5 -33.5q-4 -14 -13.5 -29.5t-9.5 -30.5l2 -2q0 2 2 4q0 2 1 2t1 2 q10 18 19.5 37t21.5 35q-2 2 1 5t5 3q2 8 15.5 25.5t19.5 21.5q0 2 1 3.5t1 3.5h-4z" />
<glyph unicode="&#xcb;" horiz-adv-x="854" d="M414 1479h-4h4zM829 1505l-24 -16q-98 0 -195.5 -2t-195.5 -8l10 2q-41 -4 -88 -8.5t-88 0.5q8 -25 8 -58v6v-218t-2 -218v12v-43t-2 -43h6q25 10 64.5 17.5t83 12.5t84 8t67.5 3q16 0 31.5 -4t32.5 -8q2 -2 14 -7t26.5 -13.5t26.5 -18.5t12 -20q0 -16 -12 -17.5 t-22 -1.5h-91q-25 0 -70.5 -3t-97 -6t-94.5 -3t-61 6q-4 -199 -8 -396.5t-4 -396.5q16 4 71.5 11.5t120 14.5t123.5 12t84 5q12 0 34.5 -6t46 -17t40 -24.5t16.5 -27.5q0 -4 -6 -11q-33 -12 -108.5 -20t-160.5 -12t-163 -5t-115 3q-6 -10 -16 -10.5t-21 -0.5q-51 0 -103 26 t-83 67v8q0 16 14 24h2q0 242 2 479.5t13 479.5q2 39 7 98.5t9 120.5t8 116.5t2 88.5q-10 6 -27.5 17t-17.5 26q0 4 13.5 10t31 12t33.5 9.5t23 3.5l8 6l22 2l4 -2q121 23 245 30t247 7q16 0 48 -6.5t63.5 -18.5t55 -29.5t23.5 -38.5v-6zM100 1405q0 12 1 24.5t-3 22.5 l-2 -2q-12 -119 -16 -239.5t-4 -242.5v-244t-2 -241q0 -10 1 -20t1 -21l2 -4v4v17l2 53l2 90q8 201 13 401.5t5 401.5zM127 1251q0 25 -3 50.5t-1 48.5q0 -106 -5 -213t-5 -213v-133l2 -3v3v10v78q4 74 8 148.5t4 148.5v75zM500 70q-31 0 -70 -7.5t-70 -13.5l-43 -10l-10 -2 l-6 -2l-2 -2q35 0 78 10t78 18l41 7l8 2h-4zM324 899q25 0 52 7t56 7l64 2l14 3h8v2h-96l-25 -2q-14 -2 -26.5 -3.5t-24.5 -5.5l-16 -6l-4 -2zM584 1571l-15 2q-16 2 -32.5 1t-32.5 -1h-44h-51.5t-49 -1t-42.5 -5l11 -4q10 2 22 -1t23 -3h37q45 0 89 5t91 5v2h-6zM645 1565 q-2 0 -5 2t-5 2h-14l-7 -4v-2q0 -2 9.5 -4.5t11.5 -2.5q4 0 10 1.5t6 5.5v2h-6zM403 1741q0 -18 -9 -36.5t-23.5 -33t-33 -24t-36.5 -7.5q-27 2 -59.5 10.5t-61 24t-48 39t-19.5 55.5q0 23 12 52.5t35 36.5q16 35 53 34q27 0 59.5 -13t61 -34.5t49 -48t20.5 -55.5zM739 1741 q0 -18 -9 -36.5t-23.5 -33t-33 -24t-36.5 -7.5q-27 2 -59.5 10.5t-61.5 24t-48 39t-19 55.5q0 23 12 52.5t35 36.5q16 35 53 34q27 0 59.5 -13t61 -34.5t49 -48t20.5 -55.5z" />
<glyph unicode="&#xcc;" horiz-adv-x="319" d="M260 1286q0 -72 -2 -142.5t-4 -142.5v13v-116v-169v-197.5t-2 -199.5t-5 -178t-9 -129l-21 -27q-18 -6 -37 -6q-49 0 -101 26.5t-79 67.5q2 8 5 18.5t11 14.5v164.5t1 274.5t5.5 324t11.5 315t19.5 249.5t30.5 124.5l22 6q0 4 6.5 4t8.5 4h22q25 0 45.5 -16.5t36 -39 t23.5 -50t8 -47.5v8q0 -39 2 -77t2 -77zM106 1049q0 90 3.5 191t-13.5 192l-2 -2l-4 -46h2q8 -193 5 -391t-7 -391l-4 -250l-2 -100l-2 -51v-4l2 4q16 131 19 270t3 270v308zM150 475q-4 0 -3.5 -4t0.5 -6l-2 -37v-8t2 -6v8l3 12q2 4 4 22.5t-2 18.5h-2zM152 1212v9h-2 q-6 -70 -7.5 -146t-1.5 -145v-148q0 -53 2 -107t11 -106v-2v2v13l-2 32v9l-2 49v102v95.5t2 95.5q2 57 2 113.5v113.5zM-10 1974v2v-2zM326 1675q0 -12 -11.5 -15t-19.5 -3q-18 0 -40 5t-43.5 14.5t-39.5 21.5t-29 26q-14 20 -39.5 55.5t-51 72t-44 70.5t-18.5 52q0 4 4 13 l39 2q18 -8 31.5 -16.5t29.5 -20.5l8.5 -8.5t1.5 0.5q10 -10 20.5 -19.5t20.5 -19.5v-2q8 -6 38 -39t61.5 -72t56.5 -74t25 -43zM174 1741q0 4 -11 16t-13 17q-23 33 -43.5 65.5t-43.5 65.5q-8 10 -13 22t-13 23q-6 6 -4 6v-10q0 -14 16.5 -43t38 -60t43 -58.5t33.5 -39.5 q4 -2 5 -4t5 -2v2z" />
<glyph unicode="&#xcd;" horiz-adv-x="319" d="M260 1286q0 -72 -2 -142.5t-4 -142.5v13v-116v-169v-197.5t-2 -199.5t-5 -178t-9 -129l-21 -27q-18 -6 -37 -6q-49 0 -101 26.5t-79 67.5q2 8 5 18.5t11 14.5v164.5t1 274.5t5.5 324t11.5 315t19.5 249.5t30.5 124.5l22 6q0 4 6.5 4t8.5 4h22q25 0 45.5 -16.5t36 -39 t23.5 -50t8 -47.5v8q0 -39 2 -77t2 -77zM106 1049q0 90 3.5 191t-13.5 192l-2 -2l-4 -46h2q8 -193 5 -391t-7 -391l-4 -250l-2 -100l-2 -51v-4l2 4q16 131 19 270t3 270v308zM150 475q-4 0 -3.5 -4t0.5 -6l-2 -37v-8t2 -6v8l3 12q2 4 4 22.5t-2 18.5h-2zM152 1212v9h-2 q-6 -70 -7.5 -146t-1.5 -145v-148q0 -53 2 -107t11 -106v-2v2v13l-2 32v9l-2 49v102v95.5t2 95.5q2 57 2 113.5v113.5zM317 1841q0 -2 -29.5 -30.5t-68.5 -64.5t-78 -70t-55 -46h-25q-6 0 -16 4t-21.5 9.5t-19.5 12.5t-8 13q0 2 6 10.5t14.5 18.5t16.5 18l10 10q6 6 28.5 34 t50.5 58.5t53.5 55t33.5 24.5t26.5 -5t37 -12t31.5 -17.5t13 -22.5z" />
<glyph unicode="&#xce;" horiz-adv-x="319" d="M260 1286q0 -72 -2 -142.5t-4 -142.5v13v-116v-169v-197.5t-2 -199.5t-5 -178t-9 -129l-21 -27q-18 -6 -37 -6q-49 0 -101 26.5t-79 67.5q2 8 5 18.5t11 14.5v164.5t1 274.5t5.5 324t11.5 315t19.5 249.5t30.5 124.5l22 6q0 4 6.5 4t8.5 4h22q25 0 45.5 -16.5t36 -39 t23.5 -50t8 -47.5v8q0 -39 2 -77t2 -77zM106 1049q0 90 3.5 191t-13.5 192l-2 -2l-4 -46h2q8 -193 5 -391t-7 -391l-4 -250l-2 -100l-2 -51v-4l2 4q16 131 19 270t3 270v308zM150 475q-4 0 -3.5 -4t0.5 -6l-2 -37v-8t2 -6v8l3 12q2 4 4 22.5t-2 18.5h-2zM152 1212v9h-2 q-6 -70 -7.5 -146t-1.5 -145v-148q0 -53 2 -107t11 -106v-2v2v13l-2 32v9l-2 49v102v95.5t2 95.5q2 57 2 113.5v113.5zM403 1673q-12 -16 -28 -12t-31.5 8t-32.5 12h-2q2 -2 6 -2t-2 1t-10 3l-18 11q-16 10 -31.5 20t-26.5 27q-4 2 -8 6q-14 12 -32.5 21.5t-28.5 25.5 q-35 -25 -67 -61.5t-54 -75.5q-4 -2 -12.5 -5t-12.5 -3q-31 0 -57.5 14t-40.5 43q2 16 18.5 47t36 61.5t41 54t35.5 23.5q51 0 101.5 -18.5t97.5 -46t89 -61t77 -66.5zM39 1860q-2 0 -5 -3.5t-1 -5.5q-16 -16 -26.5 -37.5t-31.5 -33.5q-4 -14 -13 -29.5t-9 -30.5l2 -2 q0 2 2 4q0 2 1 2t1 2q10 18 19.5 37t21.5 35q-2 2 1 5t5 3q2 8 15.5 25.5t19.5 21.5q0 2 1 3.5t1 3.5h-4z" />
<glyph unicode="&#xcf;" horiz-adv-x="319" d="M260 1286q0 -72 -2 -142.5t-4 -142.5v13v-116v-169v-197.5t-2 -199.5t-5 -178t-9 -129l-21 -27q-18 -6 -37 -6q-49 0 -101 26.5t-79 67.5q2 8 5 18.5t11 14.5v164.5t1 274.5t5.5 324t11.5 315t19.5 249.5t30.5 124.5l22 6q0 4 6.5 4t8.5 4h22q25 0 45.5 -16.5t36 -39 t23.5 -50t8 -47.5v8q0 -39 2 -77t2 -77zM106 1049q0 90 3.5 191t-13.5 192l-2 -2l-4 -46h2q8 -193 5 -391t-7 -391l-4 -250l-2 -100l-2 -51v-4l2 4q16 131 19 270t3 270v308zM150 475q-4 0 -3.5 -4t0.5 -6l-2 -37v-8t2 -6v8l3 12q2 4 4 22.5t-2 18.5h-2zM152 1212v9h-2 q-6 -70 -7.5 -146t-1.5 -145v-148q0 -53 2 -107t11 -106v-2v2v13l-2 32v9l-2 49v102v95.5t2 95.5q2 57 2 113.5v113.5zM137 1741q0 -18 -9 -36.5t-23.5 -33t-33 -24t-36.5 -7.5q-27 2 -59.5 10.5t-61.5 24t-48.5 39t-19.5 55.5q0 23 12.5 52.5t35.5 36.5q16 35 53 34 q27 0 59.5 -13t61 -34.5t49 -48t20.5 -55.5zM473 1741q0 -18 -9 -36.5t-23.5 -33t-33 -24t-36.5 -7.5q-27 2 -59.5 10.5t-61.5 24t-48.5 39t-19.5 55.5q0 23 12.5 52.5t34.5 36.5q16 35 54 34q27 0 59.5 -13t61 -34.5t49 -48t20.5 -55.5z" />
<glyph unicode="&#xd1;" horiz-adv-x="913" d="M891 1286q0 -72 -2 -142.5t-4 -142.5v13q0 -14 -1 -58.5t-3 -93.5t-2 -91t4 -48l-4 -6q0 -80 2 -169t2 -179t-3 -178.5t-12 -165.5l-20 -27q-18 -6 -37 -6q-49 0 -101.5 26.5t-78.5 67.5q2 8 5 18.5t11 14.5q0 180 2 358t6 359q-106 121 -200.5 256t-196.5 262l2 -68 q0 -72 -2 -142.5t-4 -142.5v13v-116v-169v-197.5t-2 -199.5t-5 -177t-9 -130l-21 -27q-18 -6 -37 -6q-49 0 -101 26.5t-79 67.5q2 8 5 18.5t11 14.5v111.5v181t2 226.5t4.5 245t7.5 240.5t12 212t17.5 156.5t24.5 79l22 6q0 4 6.5 4t8.5 4h22q18 0 38 -12t35 -30.5t25.5 -40 t12.5 -38.5q20 -8 55 -38.5t76 -74.5t84 -94.5t81 -96.5t66.5 -83t42.5 -53q2 27 4.5 73t3.5 102t3 114.5t7 111t14 91t24 55.5l22 6q0 4 6.5 4t8.5 4h22q25 0 45.5 -16.5t35.5 -39t23.5 -50t8.5 -47.5v8q0 -39 2 -77t2 -77zM82 1391l-2 12l-2 -2q0 -143 -7.5 -285.5 t-7.5 -286.5v-241l3 -19l2 -16v-2v-2v2v2l2 12q0 6 -1 11.5t-1 11.5l2 33v65q0 33 1 65.5t3 65.5l4 109q2 53 4 105t2 106v182zM100 795l-2 -4q0 -12 1 -26.5t-3 -27.5q4 -8 2 -17t0 -18q2 -4 0 -8t2 -4q2 0 2 6v11l2 47v30v6.5t-2 4.5h-2zM113 1235v-2q0 -61 4 -122.5 t2 -125.5q-2 -27 -3 -53.5t1 -52.5l2 -15v-2q2 0 2 8l2 52l8 86t4 86q0 12 -1 31.5t-3 39t-6 37t-8 29.5zM735 1376q-29 -170 -29.5 -334.5t-7.5 -336.5q-2 -35 -2 -68t-2 -68l-2 -34l-2 -37v-4l4 18l4 55q4 51 6.5 102.5t4.5 102.5q0 12 2 59.5t5 113t7 139t7 137t5 107.5 t2 50zM735 756v-2v-4q0 -6 2 -11.5t0 -11.5q-2 -10 -1 -19.5t1 -19.5v-6q0 -6 2 -6h2v6v10q0 2 1 12.5t1 21.5t-1 20.5t-5 9.5h-2zM788 1432q-2 -6 -4 -13.5t0 -13.5q-4 -10 -7 -43t-6 -72t-5 -73.5t-2 -45.5q-2 -35 -4 -66.5t-2 -66.5l-2 -53l-4 -65l-2 -50v-24v-2v2l2 10 l2 31v6l4 45l8 92q4 43 5 86t5 86q4 55 9.5 112.5t5.5 112.5q0 6 -3 7v-2zM688 1743q-4 -35 -33.5 -52.5t-60.5 -17.5q-61 0 -120.5 22.5t-117.5 22.5q-51 0 -84 -32l-2 -7l-30 -32h-13q-8 0 -17 7t-13 11l-2 12q8 27 14 45.5t15 29.5t26.5 15.5t52.5 4.5q59 0 113.5 -21.5 t111.5 -21.5q33 0 56.5 12t48.5 31h14l23 -11zM283 1759l-4 -2l-5 -2l-6 -4l-14 -8q-14 -8 -21 -19q-4 -6 -9 -15t-5 -15q0 -2 4 -2l2 4q0 2 2 4q4 6 7.5 11t7.5 9l18 17l10 10l9 6l4 2l2 2v2q2 2 2 0h-4zM625 1747l-2 -2q0 -2 -9.5 -7t-19.5 -11.5t-19.5 -12.5t-9.5 -8h4 q8 0 33 13.5t25 23.5v4h-2z" />
<glyph unicode="&#xd2;" d="M477 1286l6 8zM958 752q0 -49 -4 -122t-16 -153t-33.5 -159.5t-57.5 -142t-87 -102.5t-123 -40q-137 0 -254 52t-202 142t-133 210t-48 255q0 92 21.5 200.5t64.5 213t104.5 195t141.5 143.5q33 23 68.5 43t76.5 24q6 8 8 14.5t13 14.5q10 2 23.5 5t23.5 1 q92 -10 159.5 -52t113.5 -105.5t74 -143.5t42 -165t19 -169.5t5 -158.5zM688 1430q-12 -2 -22 0q10 -4 22 0zM389 1391q4 0 4 3t2 5q4 2 15.5 10t11.5 12v4h-2q-6 0 -19.5 -11t-13.5 -19zM377 1378q-55 -31 -103.5 -95t-87.5 -140t-66.5 -155t-39.5 -140q-8 -39 -15.5 -78 t-13.5 -78l-2 -16l-2 -17v-2l2 2q10 27 16.5 63t10.5 62q35 174 108.5 318.5t194.5 275.5h-2zM258 1178q-47 -53 -68.5 -118t-46.5 -130q2 -6 -1 -14.5t-5 -14.5q-18 -84 -18 -172l2 -20v-2q4 0 3 4t-1 6q2 16 2 34.5t2 34.5q4 35 12 70t17 68q6 27 17 60.5t24.5 67t28 65.5 t30.5 57l4 4h-2zM733 862q0 51 -7 129t-21.5 160t-36 154.5t-52.5 113.5q-29 -35 -68.5 -66.5t-72.5 -66.5h2q-57 -61 -103 -140t-79 -166t-51.5 -177t-18.5 -172q0 -59 9.5 -122t30 -123t54 -112.5t82.5 -89.5q6 -4 23.5 -17t28.5 -13q63 0 109 39.5t77 104t49.5 144.5 t28.5 159t13 147.5t3 113.5zM813 809q0 8 -3 34.5t-7 55.5t-8 51.5t-4 24.5q0 -6 -1.5 -13.5t-1.5 -13.5q4 -33 8.5 -66.5t4.5 -66.5v-96q0 -59 -6.5 -121.5t-16.5 -122.5l-8 -47l-4 -25v-2l2 2q16 86 30.5 171t14.5 176v59zM856 844q0 23 -7 78t-19.5 113.5t-29 102.5 t-36.5 44v-2q39 -66 57.5 -141.5t22.5 -151.5q2 -41 3 -78t1 -78l-2 -63q0 -18 -1 -38t-3 -38l-4 -57v-29v-2v2l2 10q2 10 1 18.5t1 18.5l2 8q2 12 2 26.5t2 26.5q4 27 4 53.5t2 53.5zM893 776q-2 2 -2 4l-2 4v2q-2 0 -2 -5v-7q0 -10 -2 -21.5t-2 -21.5l-2 -37l2 -8v-2h2v8 l2 15l6 38q2 8 1 15.5t-1 15.5zM319 1974v2v-2zM655 1675q0 -12 -11 -15t-19 -3q-18 0 -40 5t-43.5 14.5t-40 21.5t-28.5 26q-14 20 -39.5 55.5t-51.5 72t-44.5 70.5t-18.5 52q0 4 5 13l38 2q18 -8 32 -16.5t30 -20.5q2 -2 8 -8.5t2 0.5q10 -10 20.5 -19.5t20.5 -19.5v-2 q8 -6 38 -39t61.5 -72t56 -74t24.5 -43zM504 1741q0 4 -11.5 16t-13.5 17q-23 33 -43 65.5t-43 65.5q-8 10 -13 22t-13 23q-6 6 -5 6v-10q0 -14 16.5 -43t38 -60t43 -58.5t34.5 -39.5q4 -2 5 -4t5 -2v2z" />
<glyph unicode="&#xd3;" d="M477 1286l6 8zM958 752q0 -49 -4 -122t-16 -153t-33.5 -159.5t-57.5 -142t-87 -102.5t-123 -40q-137 0 -254 52t-202 142t-133 210t-48 255q0 92 21.5 200.5t64.5 213t104.5 195t141.5 143.5q33 23 68.5 43t76.5 24q6 8 8 14.5t13 14.5q10 2 23.5 5t23.5 1 q92 -10 159.5 -52t113.5 -105.5t74 -143.5t42 -165t19 -169.5t5 -158.5zM688 1430q-12 -2 -22 0q10 -4 22 0zM389 1391q4 0 4 3t2 5q4 2 15.5 10t11.5 12v4h-2q-6 0 -19.5 -11t-13.5 -19zM377 1378q-55 -31 -103.5 -95t-87.5 -140t-66.5 -155t-39.5 -140q-8 -39 -15.5 -78 t-13.5 -78l-2 -16l-2 -17v-2l2 2q10 27 16.5 63t10.5 62q35 174 108.5 318.5t194.5 275.5h-2zM258 1178q-47 -53 -68.5 -118t-46.5 -130q2 -6 -1 -14.5t-5 -14.5q-18 -84 -18 -172l2 -20v-2q4 0 3 4t-1 6q2 16 2 34.5t2 34.5q4 35 12 70t17 68q6 27 17 60.5t24.5 67t28 65.5 t30.5 57l4 4h-2zM733 862q0 51 -7 129t-21.5 160t-36 154.5t-52.5 113.5q-29 -35 -68.5 -66.5t-72.5 -66.5h2q-57 -61 -103 -140t-79 -166t-51.5 -177t-18.5 -172q0 -59 9.5 -122t30 -123t54 -112.5t82.5 -89.5q6 -4 23.5 -17t28.5 -13q63 0 109 39.5t77 104t49.5 144.5 t28.5 159t13 147.5t3 113.5zM813 809q0 8 -3 34.5t-7 55.5t-8 51.5t-4 24.5q0 -6 -1.5 -13.5t-1.5 -13.5q4 -33 8.5 -66.5t4.5 -66.5v-96q0 -59 -6.5 -121.5t-16.5 -122.5l-8 -47l-4 -25v-2l2 2q16 86 30.5 171t14.5 176v59zM856 844q0 23 -7 78t-19.5 113.5t-29 102.5 t-36.5 44v-2q39 -66 57.5 -141.5t22.5 -151.5q2 -41 3 -78t1 -78l-2 -63q0 -18 -1 -38t-3 -38l-4 -57v-29v-2v2l2 10q2 10 1 18.5t1 18.5l2 8q2 12 2 26.5t2 26.5q4 27 4 53.5t2 53.5zM893 776q-2 2 -2 4l-2 4v2q-2 0 -2 -5v-7q0 -10 -2 -21.5t-2 -21.5l-2 -37l2 -8v-2h2v8 l2 15l6 38q2 8 1 15.5t-1 15.5zM647 1841q0 -2 -29.5 -30.5t-68.5 -64.5t-78 -70t-55 -46h-25q-6 0 -16 4t-21.5 9.5t-19.5 12.5t-8 13q0 2 6 10.5t14 18.5t16.5 18t10.5 10q6 6 28.5 34t50 58.5t53 55t34.5 24.5q8 0 26.5 -5t37 -12t31.5 -17.5t13 -22.5z" />
<glyph unicode="&#xd4;" d="M477 1286l6 8zM958 752q0 -49 -4 -122t-16 -153t-33.5 -159.5t-57.5 -142t-87 -102.5t-123 -40q-137 0 -254 52t-202 142t-133 210t-48 255q0 92 21.5 200.5t64.5 213t104.5 195t141.5 143.5q33 23 68.5 43t76.5 24q6 8 8 14.5t13 14.5q10 2 23.5 5t23.5 1 q92 -10 159.5 -52t113.5 -105.5t74 -143.5t42 -165t19 -169.5t5 -158.5zM688 1430q-12 -2 -22 0q10 -4 22 0zM389 1391q4 0 4 3t2 5q4 2 15.5 10t11.5 12v4h-2q-6 0 -19.5 -11t-13.5 -19zM377 1378q-55 -31 -103.5 -95t-87.5 -140t-66.5 -155t-39.5 -140q-8 -39 -15.5 -78 t-13.5 -78l-2 -16l-2 -17v-2l2 2q10 27 16.5 63t10.5 62q35 174 108.5 318.5t194.5 275.5h-2zM258 1178q-47 -53 -68.5 -118t-46.5 -130q2 -6 -1 -14.5t-5 -14.5q-18 -84 -18 -172l2 -20v-2q4 0 3 4t-1 6q2 16 2 34.5t2 34.5q4 35 12 70t17 68q6 27 17 60.5t24.5 67t28 65.5 t30.5 57l4 4h-2zM733 862q0 51 -7 129t-21.5 160t-36 154.5t-52.5 113.5q-29 -35 -68.5 -66.5t-72.5 -66.5h2q-57 -61 -103 -140t-79 -166t-51.5 -177t-18.5 -172q0 -59 9.5 -122t30 -123t54 -112.5t82.5 -89.5q6 -4 23.5 -17t28.5 -13q63 0 109 39.5t77 104t49.5 144.5 t28.5 159t13 147.5t3 113.5zM813 809q0 8 -3 34.5t-7 55.5t-8 51.5t-4 24.5q0 -6 -1.5 -13.5t-1.5 -13.5q4 -33 8.5 -66.5t4.5 -66.5v-96q0 -59 -6.5 -121.5t-16.5 -122.5l-8 -47l-4 -25v-2l2 2q16 86 30.5 171t14.5 176v59zM856 844q0 23 -7 78t-19.5 113.5t-29 102.5 t-36.5 44v-2q39 -66 57.5 -141.5t22.5 -151.5q2 -41 3 -78t1 -78l-2 -63q0 -18 -1 -38t-3 -38l-4 -57v-29v-2v2l2 10q2 10 1 18.5t1 18.5l2 8q2 12 2 26.5t2 26.5q4 27 4 53.5t2 53.5zM893 776q-2 2 -2 4l-2 4v2q-2 0 -2 -5v-7q0 -10 -2 -21.5t-2 -21.5l-2 -37l2 -8v-2h2v8 l2 15l6 38q2 8 1 15.5t-1 15.5zM733 1673q-12 -16 -28 -12l-32 8t-32 12h-2q2 -2 6 -2t-2 1t-10 3l-19 11q-16 10 -31.5 20t-25.5 27q-4 2 -8 6q-14 12 -32.5 21.5t-29.5 25.5q-35 -25 -66.5 -61.5t-53.5 -75.5q-4 -2 -12.5 -5t-12.5 -3q-31 0 -57.5 14t-40.5 43 q2 16 18.5 47t35.5 61.5t40.5 54t36.5 23.5q51 0 101 -18.5t97.5 -46t89.5 -61t76 -66.5zM369 1860q-2 0 -5.5 -3.5t-1.5 -5.5q-16 -16 -26 -37.5t-31 -33.5q-4 -14 -13 -29.5t-9 -30.5l2 -2q0 2 2 4q0 2 1 2t1 2q10 18 19 37t22 35q-2 2 1 5t5 3q2 8 15.5 25.5t19.5 21.5 q0 2 1 3.5t1 3.5h-4z" />
<glyph unicode="&#xd5;" d="M477 1286l6 8zM958 752q0 -49 -4 -122t-16 -153t-33.5 -159.5t-57.5 -142t-87 -102.5t-123 -40q-137 0 -254 52t-202 142t-133 210t-48 255q0 92 21.5 200.5t64.5 213t104.5 195t141.5 143.5q33 23 68.5 43t76.5 24q6 8 8 14.5t13 14.5q10 2 23.5 5t23.5 1 q92 -10 159.5 -52t113.5 -105.5t74 -143.5t42 -165t19 -169.5t5 -158.5zM688 1430q-12 -2 -22 0q10 -4 22 0zM389 1391q4 0 4 3t2 5q4 2 15.5 10t11.5 12v4h-2q-6 0 -19.5 -11t-13.5 -19zM377 1378q-55 -31 -103.5 -95t-87.5 -140t-66.5 -155t-39.5 -140q-8 -39 -15.5 -78 t-13.5 -78l-2 -16l-2 -17v-2l2 2q10 27 16.5 63t10.5 62q35 174 108.5 318.5t194.5 275.5h-2zM258 1178q-47 -53 -68.5 -118t-46.5 -130q2 -6 -1 -14.5t-5 -14.5q-18 -84 -18 -172l2 -20v-2q4 0 3 4t-1 6q2 16 2 34.5t2 34.5q4 35 12 70t17 68q6 27 17 60.5t24.5 67t28 65.5 t30.5 57l4 4h-2zM733 862q0 51 -7 129t-21.5 160t-36 154.5t-52.5 113.5q-29 -35 -68.5 -66.5t-72.5 -66.5h2q-57 -61 -103 -140t-79 -166t-51.5 -177t-18.5 -172q0 -59 9.5 -122t30 -123t54 -112.5t82.5 -89.5q6 -4 23.5 -17t28.5 -13q63 0 109 39.5t77 104t49.5 144.5 t28.5 159t13 147.5t3 113.5zM813 809q0 8 -3 34.5t-7 55.5t-8 51.5t-4 24.5q0 -6 -1.5 -13.5t-1.5 -13.5q4 -33 8.5 -66.5t4.5 -66.5v-96q0 -59 -6.5 -121.5t-16.5 -122.5l-8 -47l-4 -25v-2l2 2q16 86 30.5 171t14.5 176v59zM856 844q0 23 -7 78t-19.5 113.5t-29 102.5 t-36.5 44v-2q39 -66 57.5 -141.5t22.5 -151.5q2 -41 3 -78t1 -78l-2 -63q0 -18 -1 -38t-3 -38l-4 -57v-29v-2v2l2 10q2 10 1 18.5t1 18.5l2 8q2 12 2 26.5t2 26.5q4 27 4 53.5t2 53.5zM893 776q-2 2 -2 4l-2 4v2q-2 0 -2 -5v-7q0 -10 -2 -21.5t-2 -21.5l-2 -37l2 -8v-2h2v8 l2 15l6 38q2 8 1 15.5t-1 15.5zM723 1743q-4 -35 -34 -52.5t-60 -17.5q-61 0 -120.5 22.5t-117.5 22.5q-51 0 -84 -32l-2 -7l-31 -32h-12q-8 0 -17 7t-14 11l-2 12q8 27 14.5 45.5t15.5 29.5t26.5 15.5t52.5 4.5q59 0 113.5 -21.5t111.5 -21.5q33 0 56.5 12t48.5 31h14 l23 -11zM317 1759l-4 -2l-4 -2l-6 -4l-14 -8q-14 -8 -21 -19q-4 -6 -9 -15t-5 -15q0 -2 4 -2l2 4q0 2 2 4q4 6 7 11t7 9l19 17l10 10l8 6l4 2l2 2v2q2 2 3 0h-5zM659 1747l-2 -2q0 -2 -9 -7t-19.5 -11.5t-19.5 -12.5t-9 -8h4q8 0 33 13.5t25 23.5v4h-3z" />
<glyph unicode="&#xd6;" d="M477 1286l6 8zM958 752q0 -49 -4 -122t-16 -153t-33.5 -159.5t-57.5 -142t-87 -102.5t-123 -40q-137 0 -254 52t-202 142t-133 210t-48 255q0 92 21.5 200.5t64.5 213t104.5 195t141.5 143.5q33 23 68.5 43t76.5 24q6 8 8 14.5t13 14.5q10 2 23.5 5t23.5 1 q92 -10 159.5 -52t113.5 -105.5t74 -143.5t42 -165t19 -169.5t5 -158.5zM688 1430q-12 -2 -22 0q10 -4 22 0zM389 1391q4 0 4 3t2 5q4 2 15.5 10t11.5 12v4h-2q-6 0 -19.5 -11t-13.5 -19zM377 1378q-55 -31 -103.5 -95t-87.5 -140t-66.5 -155t-39.5 -140q-8 -39 -15.5 -78 t-13.5 -78l-2 -16l-2 -17v-2l2 2q10 27 16.5 63t10.5 62q35 174 108.5 318.5t194.5 275.5h-2zM258 1178q-47 -53 -68.5 -118t-46.5 -130q2 -6 -1 -14.5t-5 -14.5q-18 -84 -18 -172l2 -20v-2q4 0 3 4t-1 6q2 16 2 34.5t2 34.5q4 35 12 70t17 68q6 27 17 60.5t24.5 67t28 65.5 t30.5 57l4 4h-2zM733 862q0 51 -7 129t-21.5 160t-36 154.5t-52.5 113.5q-29 -35 -68.5 -66.5t-72.5 -66.5h2q-57 -61 -103 -140t-79 -166t-51.5 -177t-18.5 -172q0 -59 9.5 -122t30 -123t54 -112.5t82.5 -89.5q6 -4 23.5 -17t28.5 -13q63 0 109 39.5t77 104t49.5 144.5 t28.5 159t13 147.5t3 113.5zM813 809q0 8 -3 34.5t-7 55.5t-8 51.5t-4 24.5q0 -6 -1.5 -13.5t-1.5 -13.5q4 -33 8.5 -66.5t4.5 -66.5v-96q0 -59 -6.5 -121.5t-16.5 -122.5l-8 -47l-4 -25v-2l2 2q16 86 30.5 171t14.5 176v59zM856 844q0 23 -7 78t-19.5 113.5t-29 102.5 t-36.5 44v-2q39 -66 57.5 -141.5t22.5 -151.5q2 -41 3 -78t1 -78l-2 -63q0 -18 -1 -38t-3 -38l-4 -57v-29v-2v2l2 10q2 10 1 18.5t1 18.5l2 8q2 12 2 26.5t2 26.5q4 27 4 53.5t2 53.5zM893 776q-2 2 -2 4l-2 4v2q-2 0 -2 -5v-7q0 -10 -2 -21.5t-2 -21.5l-2 -37l2 -8v-2h2v8 l2 15l6 38q2 8 1 15.5t-1 15.5zM467 1741q0 -18 -9 -36.5t-23.5 -33t-33 -24t-36.5 -7.5q-27 2 -60 10.5t-61.5 24t-48 39t-19.5 55.5q0 23 12.5 52.5t34.5 36.5q16 35 53 34q27 0 60 -13t61.5 -34.5t49 -48t20.5 -55.5zM803 1741q0 -18 -9.5 -36.5t-23.5 -33t-32.5 -24 t-37.5 -7.5q-27 2 -59.5 10.5t-61 24t-48 39t-19.5 55.5q0 23 12.5 52.5t34.5 36.5q16 35 53 34q27 0 60 -13t61.5 -34.5t49 -48t20.5 -55.5z" />
<glyph unicode="&#xd9;" horiz-adv-x="1044" d="M233 1260v-11v11zM872 537q0 -98 10.5 -180.5t47.5 -174.5q4 -10 8 -18t4 -19q0 -10 -19.5 -14t-29.5 -4q-45 0 -78 14.5t-57.5 38t-42 55t-31.5 66.5q-25 -35 -62.5 -74t-80.5 -53h4q-23 -6 -43.5 -10t-42.5 -4q-106 0 -183 36.5t-127.5 100t-80 145.5t-45 171 t-19.5 180.5t-4 171.5q0 90 3 180t13 180q4 29 13.5 54.5t13.5 54.5q12 6 24.5 12t28.5 6q41 0 72 -25.5t53 -54.5v-33l2 4q0 -16 4 -33.5t4 -33.5v12q2 -92 -2 -184t-4 -184q0 -59 3 -149.5t15.5 -183.5t35 -176t59.5 -130q84 14 142.5 71.5t96 139t60 180t36 198 t20.5 188.5t18 154q2 23 3 63t5 78t15 66.5t36 28.5t51.5 -7t51 -20.5t44 -32t29.5 -40.5q0 -14 2 -26.5t0 -27.5q-6 -94 -18 -189t-25.5 -189.5t-23 -189.5t-9.5 -189zM63 1098q0 66 7.5 130t7.5 128h-2q-18 -53 -22.5 -109.5t-4.5 -111.5q0 -41 -2 -80t2 -80l8 -137 q2 -18 5.5 -38t5.5 -38l2 -29l6 -28l6 -27v-2v2l-2 10l-4 37v8l-6 51q-2 27 -4.5 53.5t-2.5 53.5v207zM104 543q0 8 -4 16t-2 19q-4 6 -4 16t-2 16l-4 8v5h-4q-2 0 -2 -5q0 -4 2 -17t5 -26.5t7 -23.5t8 -10v2zM674 592l-6 -10q6 -12 -15.5 -50t-51.5 -81t-58.5 -81 t-36.5 -51q12 12 30.5 32t37 41.5t34 43t23.5 37.5v2q4 6 12 22.5t15.5 34t12.5 34t5 26.5h-2zM702 657h-2q-2 0 -2 -4v-2q-6 -6 -6 -12v-4h2v2l4 4q6 6 7 14zM778 1333l-2 8l-2 -2q-16 -141 -42.5 -286.5t-26.5 -288.5v-12l2 -2v2l2 8q4 20 4 41.5t4 42.5 q14 117 37.5 235.5t23.5 235.5v18zM823 1341l-2 -2q-10 -41 -22.5 -111.5t-22.5 -146t-17 -145.5t-5 -109l2 -2v2v9l4 28l6 45q10 57 22.5 114.5t16.5 115.5l2 4q0 47 8 95t8 97v6zM350 1974v2v-2zM686 1675q0 -12 -11 -15t-20 -3q-18 0 -39.5 5t-43 14.5t-40 21.5t-28.5 26 q-14 20 -40 55.5t-51.5 72t-44 70.5t-18.5 52q0 4 4 13l39 2q18 -8 31.5 -16.5t30.5 -20.5q2 -2 8 -8.5t2 0.5q10 -10 20.5 -19.5t20.5 -19.5v-2q8 -6 37.5 -39t61.5 -72t56.5 -74t24.5 -43zM535 1741q0 4 -11.5 16t-13.5 17q-23 33 -43.5 65.5t-42.5 65.5q-8 10 -13 22 t-14 23q-6 6 -4 6v-10q0 -14 16.5 -43t38 -60t43 -58.5t33.5 -39.5q4 -2 5 -4t6 -2v2z" />
<glyph unicode="&#xda;" horiz-adv-x="1044" d="M233 1260v-11v11zM872 537q0 -98 10.5 -180.5t47.5 -174.5q4 -10 8 -18t4 -19q0 -10 -19.5 -14t-29.5 -4q-45 0 -78 14.5t-57.5 38t-42 55t-31.5 66.5q-25 -35 -62.5 -74t-80.5 -53h4q-23 -6 -43.5 -10t-42.5 -4q-106 0 -183 36.5t-127.5 100t-80 145.5t-45 171 t-19.5 180.5t-4 171.5q0 90 3 180t13 180q4 29 13.5 54.5t13.5 54.5q12 6 24.5 12t28.5 6q41 0 72 -25.5t53 -54.5v-33l2 4q0 -16 4 -33.5t4 -33.5v12q2 -92 -2 -184t-4 -184q0 -59 3 -149.5t15.5 -183.5t35 -176t59.5 -130q84 14 142.5 71.5t96 139t60 180t36 198 t20.5 188.5t18 154q2 23 3 63t5 78t15 66.5t36 28.5t51.5 -7t51 -20.5t44 -32t29.5 -40.5q0 -14 2 -26.5t0 -27.5q-6 -94 -18 -189t-25.5 -189.5t-23 -189.5t-9.5 -189zM63 1098q0 66 7.5 130t7.5 128h-2q-18 -53 -22.5 -109.5t-4.5 -111.5q0 -41 -2 -80t2 -80l8 -137 q2 -18 5.5 -38t5.5 -38l2 -29l6 -28l6 -27v-2v2l-2 10l-4 37v8l-6 51q-2 27 -4.5 53.5t-2.5 53.5v207zM104 543q0 8 -4 16t-2 19q-4 6 -4 16t-2 16l-4 8v5h-4q-2 0 -2 -5q0 -4 2 -17t5 -26.5t7 -23.5t8 -10v2zM674 592l-6 -10q6 -12 -15.5 -50t-51.5 -81t-58.5 -81 t-36.5 -51q12 12 30.5 32t37 41.5t34 43t23.5 37.5v2q4 6 12 22.5t15.5 34t12.5 34t5 26.5h-2zM702 657h-2q-2 0 -2 -4v-2q-6 -6 -6 -12v-4h2v2l4 4q6 6 7 14zM778 1333l-2 8l-2 -2q-16 -141 -42.5 -286.5t-26.5 -288.5v-12l2 -2v2l2 8q4 20 4 41.5t4 42.5 q14 117 37.5 235.5t23.5 235.5v18zM823 1341l-2 -2q-10 -41 -22.5 -111.5t-22.5 -146t-17 -145.5t-5 -109l2 -2v2v9l4 28l6 45q10 57 22.5 114.5t16.5 115.5l2 4q0 47 8 95t8 97v6zM678 1841q0 -2 -30 -30.5t-68.5 -64.5t-77.5 -70t-56 -46h-24q-6 0 -16.5 4t-21.5 9.5 t-19.5 12.5t-8.5 13q0 2 6.5 10.5t14.5 18.5t16 18l10 10q6 6 29 34t50.5 58.5t53 55t33.5 24.5t26.5 -5t37 -12t32 -17.5t13.5 -22.5z" />
<glyph unicode="&#xdb;" horiz-adv-x="1044" d="M233 1260v-11v11zM872 537q0 -98 10.5 -180.5t47.5 -174.5q4 -10 8 -18t4 -19q0 -10 -19.5 -14t-29.5 -4q-45 0 -78 14.5t-57.5 38t-42 55t-31.5 66.5q-25 -35 -62.5 -74t-80.5 -53h4q-23 -6 -43.5 -10t-42.5 -4q-106 0 -183 36.5t-127.5 100t-80 145.5t-45 171 t-19.5 180.5t-4 171.5q0 90 3 180t13 180q4 29 13.5 54.5t13.5 54.5q12 6 24.5 12t28.5 6q41 0 72 -25.5t53 -54.5v-33l2 4q0 -16 4 -33.5t4 -33.5v12q2 -92 -2 -184t-4 -184q0 -59 3 -149.5t15.5 -183.5t35 -176t59.5 -130q84 14 142.5 71.5t96 139t60 180t36 198 t20.5 188.5t18 154q2 23 3 63t5 78t15 66.5t36 28.5t51.5 -7t51 -20.5t44 -32t29.5 -40.5q0 -14 2 -26.5t0 -27.5q-6 -94 -18 -189t-25.5 -189.5t-23 -189.5t-9.5 -189zM63 1098q0 66 7.5 130t7.5 128h-2q-18 -53 -22.5 -109.5t-4.5 -111.5q0 -41 -2 -80t2 -80l8 -137 q2 -18 5.5 -38t5.5 -38l2 -29l6 -28l6 -27v-2v2l-2 10l-4 37v8l-6 51q-2 27 -4.5 53.5t-2.5 53.5v207zM104 543q0 8 -4 16t-2 19q-4 6 -4 16t-2 16l-4 8v5h-4q-2 0 -2 -5q0 -4 2 -17t5 -26.5t7 -23.5t8 -10v2zM674 592l-6 -10q6 -12 -15.5 -50t-51.5 -81t-58.5 -81 t-36.5 -51q12 12 30.5 32t37 41.5t34 43t23.5 37.5v2q4 6 12 22.5t15.5 34t12.5 34t5 26.5h-2zM702 657h-2q-2 0 -2 -4v-2q-6 -6 -6 -12v-4h2v2l4 4q6 6 7 14zM778 1333l-2 8l-2 -2q-16 -141 -42.5 -286.5t-26.5 -288.5v-12l2 -2v2l2 8q4 20 4 41.5t4 42.5 q14 117 37.5 235.5t23.5 235.5v18zM823 1341l-2 -2q-10 -41 -22.5 -111.5t-22.5 -146t-17 -145.5t-5 -109l2 -2v2v9l4 28l6 45q10 57 22.5 114.5t16.5 115.5l2 4q0 47 8 95t8 97v6zM764 1673q-12 -16 -29 -12q-16 4 -31.5 8t-31.5 12h-2q2 -2 6 -2t-2 1t-10 3l-19 11 q-16 10 -31.5 20t-25.5 27q-4 2 -8 6q-14 12 -33 21.5t-29 25.5q-35 -25 -66.5 -61.5t-54.5 -75.5q-4 -2 -12 -5t-12 -3q-31 0 -57.5 14t-41.5 43q2 16 18.5 47t36 61.5t41 54t36.5 23.5q51 0 101 -18.5t97 -46t89 -61t77 -66.5zM399 1860q-2 0 -5 -3.5t-1 -5.5 q-16 -16 -26.5 -37.5t-30.5 -33.5q-4 -14 -13.5 -29.5t-9.5 -30.5l2 -2q0 2 2 4q0 2 1 2t1 2q10 18 19.5 37t21.5 35q-2 2 1.5 5t5.5 3q2 8 15 25.5t19 21.5q0 2 1 3.5t1 3.5h-4z" />
<glyph unicode="&#xdc;" horiz-adv-x="1044" d="M233 1260v-11v11zM872 537q0 -98 10.5 -180.5t47.5 -174.5q4 -10 8 -18t4 -19q0 -10 -19.5 -14t-29.5 -4q-45 0 -78 14.5t-57.5 38t-42 55t-31.5 66.5q-25 -35 -62.5 -74t-80.5 -53h4q-23 -6 -43.5 -10t-42.5 -4q-106 0 -183 36.5t-127.5 100t-80 145.5t-45 171 t-19.5 180.5t-4 171.5q0 90 3 180t13 180q4 29 13.5 54.5t13.5 54.5q12 6 24.5 12t28.5 6q41 0 72 -25.5t53 -54.5v-33l2 4q0 -16 4 -33.5t4 -33.5v12q2 -92 -2 -184t-4 -184q0 -59 3 -149.5t15.5 -183.5t35 -176t59.5 -130q84 14 142.5 71.5t96 139t60 180t36 198 t20.5 188.5t18 154q2 23 3 63t5 78t15 66.5t36 28.5t51.5 -7t51 -20.5t44 -32t29.5 -40.5q0 -14 2 -26.5t0 -27.5q-6 -94 -18 -189t-25.5 -189.5t-23 -189.5t-9.5 -189zM63 1098q0 66 7.5 130t7.5 128h-2q-18 -53 -22.5 -109.5t-4.5 -111.5q0 -41 -2 -80t2 -80l8 -137 q2 -18 5.5 -38t5.5 -38l2 -29l6 -28l6 -27v-2v2l-2 10l-4 37v8l-6 51q-2 27 -4.5 53.5t-2.5 53.5v207zM104 543q0 8 -4 16t-2 19q-4 6 -4 16t-2 16l-4 8v5h-4q-2 0 -2 -5q0 -4 2 -17t5 -26.5t7 -23.5t8 -10v2zM674 592l-6 -10q6 -12 -15.5 -50t-51.5 -81t-58.5 -81 t-36.5 -51q12 12 30.5 32t37 41.5t34 43t23.5 37.5v2q4 6 12 22.5t15.5 34t12.5 34t5 26.5h-2zM702 657h-2q-2 0 -2 -4v-2q-6 -6 -6 -12v-4h2v2l4 4q6 6 7 14zM778 1333l-2 8l-2 -2q-16 -141 -42.5 -286.5t-26.5 -288.5v-12l2 -2v2l2 8q4 20 4 41.5t4 42.5 q14 117 37.5 235.5t23.5 235.5v18zM823 1341l-2 -2q-10 -41 -22.5 -111.5t-22.5 -146t-17 -145.5t-5 -109l2 -2v2v9l4 28l6 45q10 57 22.5 114.5t16.5 115.5l2 4q0 47 8 95t8 97v6zM498 1741q0 -18 -9.5 -36.5t-23.5 -33t-32.5 -24t-37.5 -7.5q-27 2 -59.5 10.5t-61 24 t-48 39t-19.5 55.5q0 23 12 52.5t35 36.5q16 35 53 34q27 0 59.5 -13t61.5 -34.5t49.5 -48t20.5 -55.5zM834 1741q0 -18 -9.5 -36.5t-24 -33t-32.5 -24t-37 -7.5q-27 2 -59.5 10.5t-61 24t-48 39t-19.5 55.5q0 23 12 52.5t35 36.5q16 35 53 34q27 0 59.5 -13t61.5 -34.5 t49.5 -48t20.5 -55.5z" />
<glyph unicode="&#xdd;" horiz-adv-x="929" d="M905 752v12q-4 -104 -24.5 -223t-71.5 -219.5t-136 -167t-216 -66.5q-49 0 -117 17.5t-131.5 50t-107.5 81t-44 107.5l2 29l15 20l14 6q12 16 29 29l37 2q16 0 41.5 -13.5t40.5 -23.5q12 -16 20 -42.5t15.5 -54.5t15.5 -52.5t18 -34.5h6q80 0 141.5 45t104.5 111.5 t68.5 144.5t38.5 143q-41 -45 -101 -63h4l-26 -10h-2q-25 -10 -55.5 -10.5t-57.5 -0.5l-4 2q-35 -2 -71 10.5t-66 26.5q-100 45 -156.5 109.5t-85.5 142.5t-36 168t-7 189q0 16 2 44.5t5 59.5t8 57.5t14 38.5l-4 -4l6 14v-8q0 23 8 39l15 5t16 3q33 0 67.5 -16t50.5 -45 t23.5 -93.5t11.5 -144.5t10.5 -167t19.5 -158.5t38.5 -117.5t70.5 -46q90 0 149.5 43t96.5 112.5t55.5 156.5t28.5 176t17.5 172t19.5 143v-2l12 12h9q25 0 50 -14.5t42 -32.5q29 -158 46 -318.5t17 -320.5v-53zM96 807q-14 57 -22 107.5t-13.5 99.5t-7.5 100t-2 113 q0 29 -4 61.5t0 61.5q-2 2 -2 4t-2 2q-6 -55 -7 -114.5t-1 -115.5q0 -33 3 -77.5t9 -91t18.5 -87.5t30.5 -65v2zM111 920q0 4 -3.5 11l-5.5 11l-2 2q-10 29 -12 68t-1 81t3 81.5t2 70.5v2q0 2 -2 2q-16 -76 -16 -149q0 -10 -1 -19.5t1 -19.5q4 -29 10 -74t25 -67v-2z M131 827q0 4 -4 17.5t-6 19.5q0 2 -1 6t-3 4h-2l-2 -2v-16q0 -4 6 -17.5t12 -13.5v2zM199 1358q0 -2 2 -2zM135 236q-6 4 -4 6q-12 14 -16 37.5t-9 42.5l-8 22h-6v-4v-8q0 -12 3 -26.5t5 -26.5q8 -8 14.5 -27t22.5 -19zM143 293q0 8 -4 21.5t-6 23.5q0 4 -2 17.5t-6 13.5h-2 v-4v-13q0 -4 2 -13t5 -20.5t6 -19.5t7 -8v2zM602 369l-4 -4q-4 -4 -8 -8.5t-4 -10.5v-6q2 0 10 11t8 14v4h-2zM756 1044q0 6 1 14.5t-3 14.5q0 -86 -11.5 -165t-29 -154.5t-38 -151.5t-36.5 -158l-2 -2l2 2q27 59 48.5 136t36.5 159t23.5 160.5t8.5 144.5zM793 1145v10t-5 8 h-2v-6l2 -98l3 -35v-20v-13l2 -8v-4l2 -2v-4v2v2v10v2q2 16 3 33.5t1 34.5q0 10 1 18t-1 17zM340 680q8 0 12 -2q-6 0 -10 2h-2zM410 571h-4h4zM621 1841q0 -2 -30 -30.5t-69 -64.5t-77.5 -70t-55.5 -46h-24q-6 0 -16.5 4t-22 9.5t-19.5 12.5t-8 13q0 2 6 10.5t14.5 18.5 t16.5 18l10 10q6 6 28.5 34t50.5 58.5t53.5 55t33.5 24.5t26.5 -5t37 -12t32 -17.5t13.5 -22.5z" />
<glyph unicode="&#xe0;" horiz-adv-x="894" d="M424 977q2 2 6 2q-2 0 -4 -2h-2zM735 924h2h-2zM420 977h4h-4zM872 74q0 -12 -13 -15.5t-23 -3.5q-90 0 -145.5 36t-87.5 93.5t-45 128t-21 140.5q-8 -29 -25.5 -81.5t-42.5 -105.5t-51.5 -95t-52.5 -50l2 2q-16 -10 -22.5 -12t-25.5 -7h9q0 -2 -10.5 -2h-12.5 q-59 0 -114.5 21.5t-97.5 59.5t-67.5 90.5t-25.5 111.5q0 84 30.5 187.5t87 193.5t136.5 150.5t176 60.5l4 2h15q23 0 52 -5t50 -16h20l9 21l16 18q-4 4 9 7.5t16 3.5q35 0 64.5 -17.5t45.5 -46.5l-6 8l10 -28v2l2 -8v2v2q10 -78 13.5 -158t4.5 -160t4 -158.5t15 -158.5 q6 -35 16.5 -80t28.5 -76q2 -4 10.5 -9t17.5 -12.5t17 -16.5t8 -19zM178 758q0 12 17.5 31.5t39 38t43 35t29.5 24.5l4 6l-2 2q-41 -12 -72.5 -40t-57 -61.5t-46 -71.5t-37.5 -75q-10 -23 -17 -47.5t-18 -48.5q-4 -10 -7 -19.5t-5 -19.5l-4 -20v-3q2 0 3 4.5t1 6.5 q4 16 11.5 32.5t13.5 32.5q6 14 19 43t28.5 58.5t31 55.5t25.5 36zM319 846q2 0 4.5 2t0.5 4q-29 -2 -55.5 -23.5t-50 -51t-42 -62.5t-29.5 -58l-32 -75q-8 -20 -11 -31l-4 -16v-3q10 0 10.5 11.5t4.5 19.5q10 23 20 42.5t21 41.5q10 23 28.5 54.5t40 61.5t45.5 53.5 t49 29.5zM260 748q-12 0 -25.5 -23t-17.5 -33q-2 -4 -3 -10t-3 -10v-6q2 0 4 5t2 7q4 10 14.5 22.5t16.5 22.5l16 18l2 7h-6zM260 186q0 2 -4 2h-6q-8 4 -15.5 6.5t-13.5 6.5l-2 4q-10 6 -12 21.5t-12 15.5l-2 -4q0 -27 22 -45q2 0 15.5 -4.5t17.5 -4.5h10zM502 856 q-53 -29 -102.5 -94.5t-88.5 -144t-62.5 -159.5t-23.5 -141q0 -51 15 -92q33 8 63.5 52.5t57 108t49 138t41 142t32 119t19.5 71.5zM621 567q-8 43 -5.5 92.5t2.5 94.5l-2 4v2h-2v-2l-2 -6q-2 -10 -4 -22.5t-2 -22.5v-66q0 -12 2 -29.5t6 -29.5q2 -4 1 -10.5t3 -6.5h3v2z M621 907q-23 -61 -34.5 -120.5t-11.5 -124.5q0 -16 -1 -32t1 -32q4 -45 7.5 -88t9.5 -88l4 -45l4 -23v-2q4 0 3 4t-1 6l-2 37q-4 47 -6 97.5t-2 97.5v98q0 51 9 105.5t20 103.5q2 0 2 6h-2zM676 825l-2 6v-2l-2 -6l-4 -12q-4 -29 -9.5 -60.5t-5.5 -62.5v-47q0 -18 1 -51 t4.5 -68t8.5 -65.5t11 -44.5v8zM276 1456v2v-2zM612 1157q0 -12 -11 -15t-19 -3q-18 0 -40 5t-43.5 14t-40 21.5t-28.5 26.5q-14 20 -39.5 55t-51.5 72t-44.5 71t-18.5 52q0 4 5 12l38 2q18 -8 32 -16t30 -20q2 -2 8 -8.5t2 -0.5q10 -10 20.5 -19t20.5 -20v-2q8 -6 38 -38.5 t61.5 -71.5t56 -74t24.5 -43zM461 1223q0 4 -11.5 16t-13.5 16q-23 33 -43 66t-43 65q-8 10 -13 22.5t-13 23.5q-6 6 -5 6v-11q0 -14 16.5 -42.5t38 -59.5t43 -58.5t34.5 -39.5q4 -2 5 -4t5 -2v2z" />
<glyph unicode="&#xe1;" horiz-adv-x="894" d="M424 977q2 2 6 2q-2 0 -4 -2h-2zM735 924h2h-2zM420 977h4h-4zM872 74q0 -12 -13 -15.5t-23 -3.5q-90 0 -145.5 36t-87.5 93.5t-45 128t-21 140.5q-8 -29 -25.5 -81.5t-42.5 -105.5t-51.5 -95t-52.5 -50l2 2q-16 -10 -22.5 -12t-25.5 -7h9q0 -2 -10.5 -2h-12.5 q-59 0 -114.5 21.5t-97.5 59.5t-67.5 90.5t-25.5 111.5q0 84 30.5 187.5t87 193.5t136.5 150.5t176 60.5l4 2h15q23 0 52 -5t50 -16h20l9 21l16 18q-4 4 9 7.5t16 3.5q35 0 64.5 -17.5t45.5 -46.5l-6 8l10 -28v2l2 -8v2v2q10 -78 13.5 -158t4.5 -160t4 -158.5t15 -158.5 q6 -35 16.5 -80t28.5 -76q2 -4 10.5 -9t17.5 -12.5t17 -16.5t8 -19zM178 758q0 12 17.5 31.5t39 38t43 35t29.5 24.5l4 6l-2 2q-41 -12 -72.5 -40t-57 -61.5t-46 -71.5t-37.5 -75q-10 -23 -17 -47.5t-18 -48.5q-4 -10 -7 -19.5t-5 -19.5l-4 -20v-3q2 0 3 4.5t1 6.5 q4 16 11.5 32.5t13.5 32.5q6 14 19 43t28.5 58.5t31 55.5t25.5 36zM319 846q2 0 4.5 2t0.5 4q-29 -2 -55.5 -23.5t-50 -51t-42 -62.5t-29.5 -58l-32 -75q-8 -20 -11 -31l-4 -16v-3q10 0 10.5 11.5t4.5 19.5q10 23 20 42.5t21 41.5q10 23 28.5 54.5t40 61.5t45.5 53.5 t49 29.5zM260 748q-12 0 -25.5 -23t-17.5 -33q-2 -4 -3 -10t-3 -10v-6q2 0 4 5t2 7q4 10 14.5 22.5t16.5 22.5l16 18l2 7h-6zM260 186q0 2 -4 2h-6q-8 4 -15.5 6.5t-13.5 6.5l-2 4q-10 6 -12 21.5t-12 15.5l-2 -4q0 -27 22 -45q2 0 15.5 -4.5t17.5 -4.5h10zM502 856 q-53 -29 -102.5 -94.5t-88.5 -144t-62.5 -159.5t-23.5 -141q0 -51 15 -92q33 8 63.5 52.5t57 108t49 138t41 142t32 119t19.5 71.5zM621 567q-8 43 -5.5 92.5t2.5 94.5l-2 4v2h-2v-2l-2 -6q-2 -10 -4 -22.5t-2 -22.5v-66q0 -12 2 -29.5t6 -29.5q2 -4 1 -10.5t3 -6.5h3v2z M621 907q-23 -61 -34.5 -120.5t-11.5 -124.5q0 -16 -1 -32t1 -32q4 -45 7.5 -88t9.5 -88l4 -45l4 -23v-2q4 0 3 4t-1 6l-2 37q-4 47 -6 97.5t-2 97.5v98q0 51 9 105.5t20 103.5q2 0 2 6h-2zM676 825l-2 6v-2l-2 -6l-4 -12q-4 -29 -9.5 -60.5t-5.5 -62.5v-47q0 -18 1 -51 t4.5 -68t8.5 -65.5t11 -44.5v8zM604 1323q0 -2 -29.5 -30.5t-68.5 -64.5t-78 -70t-55 -46h-25q-6 0 -16 4t-21.5 9t-19.5 12.5t-8 13.5q0 2 6 10t14 18.5t16.5 18.5t10.5 10q6 6 28.5 34t50 58.5t53 55t34.5 24.5q8 0 26.5 -5t37 -12t31.5 -17.5t13 -22.5z" />
<glyph unicode="&#xe2;" horiz-adv-x="894" d="M424 977q2 2 6 2q-2 0 -4 -2h-2zM735 924h2h-2zM420 977h4h-4zM872 74q0 -12 -13 -15.5t-23 -3.5q-90 0 -145.5 36t-87.5 93.5t-45 128t-21 140.5q-8 -29 -25.5 -81.5t-42.5 -105.5t-51.5 -95t-52.5 -50l2 2q-16 -10 -22.5 -12t-25.5 -7h9q0 -2 -10.5 -2h-12.5 q-59 0 -114.5 21.5t-97.5 59.5t-67.5 90.5t-25.5 111.5q0 84 30.5 187.5t87 193.5t136.5 150.5t176 60.5l4 2h15q23 0 52 -5t50 -16h20l9 21l16 18q-4 4 9 7.5t16 3.5q35 0 64.5 -17.5t45.5 -46.5l-6 8l10 -28v2l2 -8v2v2q10 -78 13.5 -158t4.5 -160t4 -158.5t15 -158.5 q6 -35 16.5 -80t28.5 -76q2 -4 10.5 -9t17.5 -12.5t17 -16.5t8 -19zM178 758q0 12 17.5 31.5t39 38t43 35t29.5 24.5l4 6l-2 2q-41 -12 -72.5 -40t-57 -61.5t-46 -71.5t-37.5 -75q-10 -23 -17 -47.5t-18 -48.5q-4 -10 -7 -19.5t-5 -19.5l-4 -20v-3q2 0 3 4.5t1 6.5 q4 16 11.5 32.5t13.5 32.5q6 14 19 43t28.5 58.5t31 55.5t25.5 36zM319 846q2 0 4.5 2t0.5 4q-29 -2 -55.5 -23.5t-50 -51t-42 -62.5t-29.5 -58l-32 -75q-8 -20 -11 -31l-4 -16v-3q10 0 10.5 11.5t4.5 19.5q10 23 20 42.5t21 41.5q10 23 28.5 54.5t40 61.5t45.5 53.5 t49 29.5zM260 748q-12 0 -25.5 -23t-17.5 -33q-2 -4 -3 -10t-3 -10v-6q2 0 4 5t2 7q4 10 14.5 22.5t16.5 22.5l16 18l2 7h-6zM260 186q0 2 -4 2h-6q-8 4 -15.5 6.5t-13.5 6.5l-2 4q-10 6 -12 21.5t-12 15.5l-2 -4q0 -27 22 -45q2 0 15.5 -4.5t17.5 -4.5h10zM502 856 q-53 -29 -102.5 -94.5t-88.5 -144t-62.5 -159.5t-23.5 -141q0 -51 15 -92q33 8 63.5 52.5t57 108t49 138t41 142t32 119t19.5 71.5zM621 567q-8 43 -5.5 92.5t2.5 94.5l-2 4v2h-2v-2l-2 -6q-2 -10 -4 -22.5t-2 -22.5v-66q0 -12 2 -29.5t6 -29.5q2 -4 1 -10.5t3 -6.5h3v2z M621 907q-23 -61 -34.5 -120.5t-11.5 -124.5q0 -16 -1 -32t1 -32q4 -45 7.5 -88t9.5 -88l4 -45l4 -23v-2q4 0 3 4t-1 6l-2 37q-4 47 -6 97.5t-2 97.5v98q0 51 9 105.5t20 103.5q2 0 2 6h-2zM676 825l-2 6v-2l-2 -6l-4 -12q-4 -29 -9.5 -60.5t-5.5 -62.5v-47q0 -18 1 -51 t4.5 -68t8.5 -65.5t11 -44.5v8zM690 1155q-12 -16 -28 -12l-32 8t-32 12h-2q2 -2 6 -2t-2 1t-10 3l-19 11q-16 10 -31.5 20t-25.5 27q-4 2 -8 6q-14 12 -32.5 21.5t-29.5 25.5q-35 -25 -66.5 -61.5t-53.5 -75.5q-4 -2 -12.5 -5.5t-12.5 -3.5q-31 0 -57.5 14.5t-40.5 43.5 q2 16 18.5 47t35.5 61.5t40.5 54t36.5 23.5q51 0 101 -18.5t97.5 -46t89.5 -61.5t76 -66zM326 1341q-2 0 -5.5 -3t-1.5 -5q-16 -16 -26 -37.5t-31 -33.5q-4 -14 -13 -29.5t-9 -30.5l2 -2q0 2 2 4q0 2 1 2t1 2q10 18 19 37t22 35q-2 2 1 5t5 3q2 8 15.5 25.5t19.5 21.5 q0 2 1 3t1 3h-4z" />
<glyph unicode="&#xe3;" horiz-adv-x="894" d="M424 977q2 2 6 2q-2 0 -4 -2h-2zM735 924h2h-2zM420 977h4h-4zM872 74q0 -12 -13 -15.5t-23 -3.5q-90 0 -145.5 36t-87.5 93.5t-45 128t-21 140.5q-8 -29 -25.5 -81.5t-42.5 -105.5t-51.5 -95t-52.5 -50l2 2q-16 -10 -22.5 -12t-25.5 -7h9q0 -2 -10.5 -2h-12.5 q-59 0 -114.5 21.5t-97.5 59.5t-67.5 90.5t-25.5 111.5q0 84 30.5 187.5t87 193.5t136.5 150.5t176 60.5l4 2h15q23 0 52 -5t50 -16h20l9 21l16 18q-4 4 9 7.5t16 3.5q35 0 64.5 -17.5t45.5 -46.5l-6 8l10 -28v2l2 -8v2v2q10 -78 13.5 -158t4.5 -160t4 -158.5t15 -158.5 q6 -35 16.5 -80t28.5 -76q2 -4 10.5 -9t17.5 -12.5t17 -16.5t8 -19zM178 758q0 12 17.5 31.5t39 38t43 35t29.5 24.5l4 6l-2 2q-41 -12 -72.5 -40t-57 -61.5t-46 -71.5t-37.5 -75q-10 -23 -17 -47.5t-18 -48.5q-4 -10 -7 -19.5t-5 -19.5l-4 -20v-3q2 0 3 4.5t1 6.5 q4 16 11.5 32.5t13.5 32.5q6 14 19 43t28.5 58.5t31 55.5t25.5 36zM319 846q2 0 4.5 2t0.5 4q-29 -2 -55.5 -23.5t-50 -51t-42 -62.5t-29.5 -58l-32 -75q-8 -20 -11 -31l-4 -16v-3q10 0 10.5 11.5t4.5 19.5q10 23 20 42.5t21 41.5q10 23 28.5 54.5t40 61.5t45.5 53.5 t49 29.5zM260 748q-12 0 -25.5 -23t-17.5 -33q-2 -4 -3 -10t-3 -10v-6q2 0 4 5t2 7q4 10 14.5 22.5t16.5 22.5l16 18l2 7h-6zM260 186q0 2 -4 2h-6q-8 4 -15.5 6.5t-13.5 6.5l-2 4q-10 6 -12 21.5t-12 15.5l-2 -4q0 -27 22 -45q2 0 15.5 -4.5t17.5 -4.5h10zM502 856 q-53 -29 -102.5 -94.5t-88.5 -144t-62.5 -159.5t-23.5 -141q0 -51 15 -92q33 8 63.5 52.5t57 108t49 138t41 142t32 119t19.5 71.5zM621 567q-8 43 -5.5 92.5t2.5 94.5l-2 4v2h-2v-2l-2 -6q-2 -10 -4 -22.5t-2 -22.5v-66q0 -12 2 -29.5t6 -29.5q2 -4 1 -10.5t3 -6.5h3v2z M621 907q-23 -61 -34.5 -120.5t-11.5 -124.5q0 -16 -1 -32t1 -32q4 -45 7.5 -88t9.5 -88l4 -45l4 -23v-2q4 0 3 4t-1 6l-2 37q-4 47 -6 97.5t-2 97.5v98q0 51 9 105.5t20 103.5q2 0 2 6h-2zM676 825l-2 6v-2l-2 -6l-4 -12q-4 -29 -9.5 -60.5t-5.5 -62.5v-47q0 -18 1 -51 t4.5 -68t8.5 -65.5t11 -44.5v8zM680 1225q-4 -35 -34 -52.5t-60 -17.5q-61 0 -120.5 22.5t-117.5 22.5q-51 0 -84 -33l-2 -6l-31 -33h-12q-8 0 -17 7.5t-14 11.5l-2 12q8 27 14.5 45.5t15.5 29.5t26.5 15t52.5 4q59 0 113.5 -21.5t111.5 -21.5q33 0 56.5 12.5t48.5 30.5h14 l23 -10zM274 1241l-4 -2l-4 -2l-6 -4l-14 -8q-14 -8 -21 -19q-4 -6 -9 -15t-5 -15q0 -2 4 -2l2 4q0 2 2 4q4 6 7 11t7 9l19 17l10 10l8 6l4 2l2 2v2q2 2 3 0h-5zM616 1229l-2 -2q0 -2 -9 -7.5t-19.5 -11.5t-19.5 -12t-9 -8h4q8 0 32.5 13t24.5 24v4h-2z" />
<glyph unicode="&#xe4;" horiz-adv-x="894" d="M424 977q2 2 6 2q-2 0 -4 -2h-2zM735 924h2h-2zM420 977h4h-4zM872 74q0 -12 -13 -15.5t-23 -3.5q-90 0 -145.5 36t-87.5 93.5t-45 128t-21 140.5q-8 -29 -25.5 -81.5t-42.5 -105.5t-51.5 -95t-52.5 -50l2 2q-16 -10 -22.5 -12t-25.5 -7h9q0 -2 -10.5 -2h-12.5 q-59 0 -114.5 21.5t-97.5 59.5t-67.5 90.5t-25.5 111.5q0 84 30.5 187.5t87 193.5t136.5 150.5t176 60.5l4 2h15q23 0 52 -5t50 -16h20l9 21l16 18q-4 4 9 7.5t16 3.5q35 0 64.5 -17.5t45.5 -46.5l-6 8l10 -28v2l2 -8v2v2q10 -78 13.5 -158t4.5 -160t4 -158.5t15 -158.5 q6 -35 16.5 -80t28.5 -76q2 -4 10.5 -9t17.5 -12.5t17 -16.5t8 -19zM178 758q0 12 17.5 31.5t39 38t43 35t29.5 24.5l4 6l-2 2q-41 -12 -72.5 -40t-57 -61.5t-46 -71.5t-37.5 -75q-10 -23 -17 -47.5t-18 -48.5q-4 -10 -7 -19.5t-5 -19.5l-4 -20v-3q2 0 3 4.5t1 6.5 q4 16 11.5 32.5t13.5 32.5q6 14 19 43t28.5 58.5t31 55.5t25.5 36zM319 846q2 0 4.5 2t0.5 4q-29 -2 -55.5 -23.5t-50 -51t-42 -62.5t-29.5 -58l-32 -75q-8 -20 -11 -31l-4 -16v-3q10 0 10.5 11.5t4.5 19.5q10 23 20 42.5t21 41.5q10 23 28.5 54.5t40 61.5t45.5 53.5 t49 29.5zM260 748q-12 0 -25.5 -23t-17.5 -33q-2 -4 -3 -10t-3 -10v-6q2 0 4 5t2 7q4 10 14.5 22.5t16.5 22.5l16 18l2 7h-6zM260 186q0 2 -4 2h-6q-8 4 -15.5 6.5t-13.5 6.5l-2 4q-10 6 -12 21.5t-12 15.5l-2 -4q0 -27 22 -45q2 0 15.5 -4.5t17.5 -4.5h10zM502 856 q-53 -29 -102.5 -94.5t-88.5 -144t-62.5 -159.5t-23.5 -141q0 -51 15 -92q33 8 63.5 52.5t57 108t49 138t41 142t32 119t19.5 71.5zM621 567q-8 43 -5.5 92.5t2.5 94.5l-2 4v2h-2v-2l-2 -6q-2 -10 -4 -22.5t-2 -22.5v-66q0 -12 2 -29.5t6 -29.5q2 -4 1 -10.5t3 -6.5h3v2z M621 907q-23 -61 -34.5 -120.5t-11.5 -124.5q0 -16 -1 -32t1 -32q4 -45 7.5 -88t9.5 -88l4 -45l4 -23v-2q4 0 3 4t-1 6l-2 37q-4 47 -6 97.5t-2 97.5v98q0 51 9 105.5t20 103.5q2 0 2 6h-2zM676 825l-2 6v-2l-2 -6l-4 -12q-4 -29 -9.5 -60.5t-5.5 -62.5v-47q0 -18 1 -51 t4.5 -68t8.5 -65.5t11 -44.5v8zM424 1223q0 -18 -9 -37t-23.5 -33t-33 -23.5t-36.5 -7.5q-27 2 -60 10.5t-61.5 23.5t-48 39t-19.5 56q0 23 12.5 52.5t34.5 35.5q16 35 53 35q27 0 60 -13t61.5 -34.5t49 -48t20.5 -55.5zM760 1223q0 -18 -9.5 -37t-23.5 -33t-32.5 -23.5 t-37.5 -7.5q-27 2 -59.5 10.5t-61 23.5t-48 39t-19.5 56q0 23 12.5 52.5t34.5 35.5q16 35 53 35q27 0 60 -13t61.5 -34.5t49 -48t20.5 -55.5z" />
<glyph unicode="&#xe7;" horiz-adv-x="702" d="M285 1092h10h-10zM678 391q0 -27 -12 -45v4q0 -37 -35 -84t-83 -88t-101.5 -69.5t-90.5 -28.5q-94 0 -161.5 31.5t-110.5 87t-63.5 130t-20.5 158.5q0 68 13.5 170.5t47 199.5t91 166t145.5 69h-2q0 2 7 2h11q111 0 181.5 -68t70.5 -178q0 -12 -3 -39t-10 -52.5 t-18.5 -45t-27.5 -19.5t-38 9.5t-34 19.5l-10 18q16 33 22.5 70t6.5 72q0 31 -7 61q-4 25 -12 45l-5 5t1 3q-51 -35 -89 -104.5t-63.5 -151.5t-39 -164.5t-13.5 -140.5q0 -57 6.5 -115.5t28.5 -111.5q10 2 21.5 6t21.5 8h-2q51 16 88 51t78 64l-4 -4q25 23 54.5 50.5 t49.5 53.5h33q6 0 19.5 -4t25.5 -10t22.5 -14.5t10.5 -16.5zM524 797v2q2 2 2 0t0 2v4l4 4v10q0 4 -2 8v2q-4 0 -4 -8l-2 -10q0 -2 1 -3t1 -3q0 -4 -2 -4q0 -4 0 -2t2 0t0 -2zM485 758q2 0 3 7t1 9q6 27 13.5 53.5t7.5 55.5v18t-4 17l-4 18l-4 12l-2 6l-2 4l-2 3q-2 2 -3 0 l3 -7v-2v-2l4 -16t2 -16v-48q0 -29 -8.5 -56.5t-6.5 -55.5h2zM451 1006h6h-6zM408 1020l6 -4v2zM131 766q12 29 20.5 57.5t16.5 58t19.5 57.5t31.5 54l-16 -18q-4 -20 -22.5 -50t-26.5 -51q-10 -25 -23.5 -73.5t-25 -102t-19.5 -101.5t-8 -73v-98q0 -10 4 -27l6 -26v-2v2v10 q0 10 -2 17.5t-2 17.5v6q0 12 -1 24.5t-1 24.5q0 25 3 50.5t7 49.5q10 47 19.5 92.5t19.5 92.5v8zM209 201q-4 4 -10 4l8 -4h2zM213 776q-2 0 -5 -18.5t-5 -24.5v-10l2 -21v-4q0 -2 2 -2h2v6v11q2 10 4 19t2 20v18v6h-2zM227 901q-29 -29 -43 -76t-22 -100t-9 -106.5 t-1 -90.5h2v7l2 20l2 4q0 8 2 37t5 61.5t7 62.5t8 42q-4 10 4.5 34.5t18.5 47.5q10 27 26 57h-2zM416 90h4h-4zM469 229l-2 -4q-8 -8 -19.5 -16t-21.5 -14q-2 0 -11 -6.5t-12 -8.5l-8 -8v-2q4 0 22.5 12.5t22.5 16.5q2 0 4 2q4 4 5 4q4 4 13 12t9 12h-2zM532 281h-2h-2 q0 -2 -5 -4.5t-5 -4.5v-4v-2h4v2q2 2 6 5t4 6v2v2v-2zM563 367l-12 -13q-31 -31 -61.5 -59.5t-65.5 -54.5q-16 -12 -35.5 -25.5t-40.5 -21.5q-4 -2 -14 -3.5t-15 -5.5v-2h13q25 0 60.5 21.5t70.5 52.5t63.5 62.5t40.5 52.5h-2zM549 -217q0 -39 -19.5 -72t-50 -56.5 t-68.5 -36.5t-73 -13q-20 0 -38.5 4t-37.5 4h2q-27 10 -58.5 19.5t-49.5 31.5l-4 17l34 16q33 -2 71 5t70.5 23.5t54 44t21.5 68.5q0 18 -6 35l-49 -12q-8 -14 -14 -22.5t-23 -8.5q-10 0 -30.5 3t-42 9t-38 15.5t-16.5 21.5q0 4 6 10l-2 15q10 14 31 48t43.5 68.5t45 62.5 t36.5 32q8 -4 14.5 8t16.5 12q6 0 17 -3t22.5 -7t20.5 -11.5t9 -13.5q0 -16 -6 -22l6 -15l-2 -10v2q-4 -27 -21.5 -59.5t-29.5 -56.5q57 -14 107.5 -52t50.5 -104zM420 -127q2 0 3 -1t3 -1q-2 0 -4 2h-2z" />
<glyph unicode="&#xe8;" horiz-adv-x="673" d="M643 377q10 0 13 -11.5t3 -19.5q0 -53 -26.5 -112.5t-69.5 -110.5t-97 -85t-110 -34q-94 0 -161.5 32t-110.5 87t-63.5 130t-20.5 159q0 59 10 144t34 170t61.5 157.5t91.5 107.5q33 23 69.5 24t73.5 -1q8 14 25 14q51 0 90 -25.5t65.5 -65.5t40.5 -87t14 -92 q0 -76 -22.5 -148.5t-66.5 -127t-108.5 -81t-150.5 -8.5q-2 -10 -2 -17v-18q0 -57 6.5 -115.5t28.5 -111.5q10 2 21.5 6t21.5 8h-2q51 16 88 51t78 64v-2q37 27 67.5 53.5t65.5 57.5q10 4 21.5 6t21.5 2zM494 600q0 4 7 21.5t7 23.5v19v4h-2q-2 0 -3 -6.5t-1 -8.5 q-2 -10 -5 -22.5t-3 -22.5v-4v-2v-2v-2v2zM444 590l2 2q6 10 5 14q10 29 14 55.5t8 57.5v35q0 8 -3 28.5t-7 20.5v-8l2 -21v-45l-4 -57q0 -8 -2 -16.5t-4 -16.5l-4 -23l-7 -18v-8v-2v2zM238 449q2 0 12 2t10 4q39 14 66.5 42.5t46 65.5t27 78t8.5 80q0 41 -6.5 79t-14.5 79 q-37 -43 -62.5 -95.5t-43 -109t-29.5 -114.5t-21 -111h7zM209 125q-4 4 -10 4l8 -4h2zM215 819q-25 -23 -34 -53.5t-14 -64t-9 -65.5t-19 -52q-4 -43 -10 -86t-6 -88l2 -19v-2v2l2 6v25v4l4 35l8 67q4 29 9.5 64t15.5 63q-2 6 3 25.5t11 41t12.5 42t10.5 29.5q4 8 10 13 t6 13h-2zM229 940q-41 -18 -72.5 -85t-53 -147.5t-33 -159.5t-11.5 -124q0 -41 7 -80l2 2q-12 33 -5 102.5t24 146.5t40 147.5t39 109.5q8 18 17.5 36.5t25.5 33.5q4 4 13 6t9 10zM420 14h-4h4zM477 174q-6 -6 -12 -10q-4 -2 -8 -6l-4 -4l-7 -9v-2h5l18 19l8 10v2zM520 258 v-2l-4 -2l-10 -8l-2 -2l-17 -15l-30 -28l-27 -23q-12 -10 -24.5 -21.5t-26.5 -21.5q-10 -8 -24.5 -15t-26.5 -14l-25 -8v-2l10 4q8 -4 25.5 5.5t37 22.5t36 25.5t22.5 18.5v2q25 16 44.5 39t41.5 43v2zM166 1456v2v-2zM502 1157q0 -12 -11.5 -15t-19.5 -3q-18 0 -39.5 5 t-43 14t-40 21.5t-29.5 26.5q-14 20 -39.5 55t-51 72t-44 71t-18.5 52q0 4 4 12l39 2q18 -8 31.5 -16t29.5 -20l8.5 -8.5t2.5 -0.5q10 -10 20 -19t21 -20v-2q8 -6 37.5 -38.5t61.5 -71.5t56.5 -74t24.5 -43zM350 1223q0 4 -11 16t-13 16q-23 33 -43.5 66t-42.5 65 q-8 10 -13.5 22.5t-13.5 23.5q-6 6 -4 6v-11q0 -14 16.5 -42.5t38 -59.5t43 -58.5t33.5 -39.5q4 -2 5 -4t5 -2v2z" />
<glyph unicode="&#xe9;" horiz-adv-x="673" d="M643 377q10 0 13 -11.5t3 -19.5q0 -53 -26.5 -112.5t-69.5 -110.5t-97 -85t-110 -34q-94 0 -161.5 32t-110.5 87t-63.5 130t-20.5 159q0 59 10 144t34 170t61.5 157.5t91.5 107.5q33 23 69.5 24t73.5 -1q8 14 25 14q51 0 90 -25.5t65.5 -65.5t40.5 -87t14 -92 q0 -76 -22.5 -148.5t-66.5 -127t-108.5 -81t-150.5 -8.5q-2 -10 -2 -17v-18q0 -57 6.5 -115.5t28.5 -111.5q10 2 21.5 6t21.5 8h-2q51 16 88 51t78 64v-2q37 27 67.5 53.5t65.5 57.5q10 4 21.5 6t21.5 2zM494 600q0 4 7 21.5t7 23.5v19v4h-2q-2 0 -3 -6.5t-1 -8.5 q-2 -10 -5 -22.5t-3 -22.5v-4v-2v-2v-2v2zM444 590l2 2q6 10 5 14q10 29 14 55.5t8 57.5v35q0 8 -3 28.5t-7 20.5v-8l2 -21v-45l-4 -57q0 -8 -2 -16.5t-4 -16.5l-4 -23l-7 -18v-8v-2v2zM238 449q2 0 12 2t10 4q39 14 66.5 42.5t46 65.5t27 78t8.5 80q0 41 -6.5 79t-14.5 79 q-37 -43 -62.5 -95.5t-43 -109t-29.5 -114.5t-21 -111h7zM209 125q-4 4 -10 4l8 -4h2zM215 819q-25 -23 -34 -53.5t-14 -64t-9 -65.5t-19 -52q-4 -43 -10 -86t-6 -88l2 -19v-2v2l2 6v25v4l4 35l8 67q4 29 9.5 64t15.5 63q-2 6 3 25.5t11 41t12.5 42t10.5 29.5q4 8 10 13 t6 13h-2zM229 940q-41 -18 -72.5 -85t-53 -147.5t-33 -159.5t-11.5 -124q0 -41 7 -80l2 2q-12 33 -5 102.5t24 146.5t40 147.5t39 109.5q8 18 17.5 36.5t25.5 33.5q4 4 13 6t9 10zM420 14h-4h4zM477 174q-6 -6 -12 -10q-4 -2 -8 -6l-4 -4l-7 -9v-2h5l18 19l8 10v2zM520 258 v-2l-4 -2l-10 -8l-2 -2l-17 -15l-30 -28l-27 -23q-12 -10 -24.5 -21.5t-26.5 -21.5q-10 -8 -24.5 -15t-26.5 -14l-25 -8v-2l10 4q8 -4 25.5 5.5t37 22.5t36 25.5t22.5 18.5v2q25 16 44.5 39t41.5 43v2zM494 1323q0 -2 -30 -30.5t-69 -64.5t-77.5 -70t-55.5 -46h-24 q-6 0 -16.5 4t-22 9t-19.5 12.5t-8 13.5q0 2 6 10t14.5 18.5t16.5 18.5l10 10q6 6 28.5 34t50.5 58.5t53.5 55t33.5 24.5t26.5 -5t37 -12t32 -17.5t13.5 -22.5z" />
<glyph unicode="&#xea;" horiz-adv-x="673" d="M643 377q10 0 13 -11.5t3 -19.5q0 -53 -26.5 -112.5t-69.5 -110.5t-97 -85t-110 -34q-94 0 -161.5 32t-110.5 87t-63.5 130t-20.5 159q0 59 10 144t34 170t61.5 157.5t91.5 107.5q33 23 69.5 24t73.5 -1q8 14 25 14q51 0 90 -25.5t65.5 -65.5t40.5 -87t14 -92 q0 -76 -22.5 -148.5t-66.5 -127t-108.5 -81t-150.5 -8.5q-2 -10 -2 -17v-18q0 -57 6.5 -115.5t28.5 -111.5q10 2 21.5 6t21.5 8h-2q51 16 88 51t78 64v-2q37 27 67.5 53.5t65.5 57.5q10 4 21.5 6t21.5 2zM494 600q0 4 7 21.5t7 23.5v19v4h-2q-2 0 -3 -6.5t-1 -8.5 q-2 -10 -5 -22.5t-3 -22.5v-4v-2v-2v-2v2zM444 590l2 2q6 10 5 14q10 29 14 55.5t8 57.5v35q0 8 -3 28.5t-7 20.5v-8l2 -21v-45l-4 -57q0 -8 -2 -16.5t-4 -16.5l-4 -23l-7 -18v-8v-2v2zM238 449q2 0 12 2t10 4q39 14 66.5 42.5t46 65.5t27 78t8.5 80q0 41 -6.5 79t-14.5 79 q-37 -43 -62.5 -95.5t-43 -109t-29.5 -114.5t-21 -111h7zM209 125q-4 4 -10 4l8 -4h2zM215 819q-25 -23 -34 -53.5t-14 -64t-9 -65.5t-19 -52q-4 -43 -10 -86t-6 -88l2 -19v-2v2l2 6v25v4l4 35l8 67q4 29 9.5 64t15.5 63q-2 6 3 25.5t11 41t12.5 42t10.5 29.5q4 8 10 13 t6 13h-2zM229 940q-41 -18 -72.5 -85t-53 -147.5t-33 -159.5t-11.5 -124q0 -41 7 -80l2 2q-12 33 -5 102.5t24 146.5t40 147.5t39 109.5q8 18 17.5 36.5t25.5 33.5q4 4 13 6t9 10zM420 14h-4h4zM477 174q-6 -6 -12 -10q-4 -2 -8 -6l-4 -4l-7 -9v-2h5l18 19l8 10v2zM520 258 v-2l-4 -2l-10 -8l-2 -2l-17 -15l-30 -28l-27 -23q-12 -10 -24.5 -21.5t-26.5 -21.5q-10 -8 -24.5 -15t-26.5 -14l-25 -8v-2l10 4q8 -4 25.5 5.5t37 22.5t36 25.5t22.5 18.5v2q25 16 44.5 39t41.5 43v2zM580 1155q-12 -16 -29 -12q-16 4 -31.5 8t-32.5 12h-2q2 -2 7 -2 q4 0 -2.5 1t-10.5 3l-18 11q-16 10 -31.5 20t-26.5 27q-4 2 -8 6q-14 12 -32.5 21.5t-28.5 25.5q-35 -25 -66.5 -61.5t-54.5 -75.5q-4 -2 -12 -5.5t-13 -3.5q-31 0 -57.5 14.5t-40.5 43.5q2 16 18.5 47t36 61.5t41 54t35.5 23.5q51 0 101.5 -18.5t97.5 -46t89 -61.5t77 -66z M215 1341q-2 0 -5 -3t-1 -5q-16 -16 -26.5 -37.5t-30.5 -33.5q-4 -14 -13.5 -29.5t-9.5 -30.5l2 -2q0 2 2 4q0 2 1 2t1 2q10 18 19.5 37t21.5 35q-2 2 1 5t5 3q2 8 15.5 25.5t19.5 21.5q0 2 1 3t1 3h-4z" />
<glyph unicode="&#xeb;" horiz-adv-x="673" d="M643 377q10 0 13 -11.5t3 -19.5q0 -53 -26.5 -112.5t-69.5 -110.5t-97 -85t-110 -34q-94 0 -161.5 32t-110.5 87t-63.5 130t-20.5 159q0 59 10 144t34 170t61.5 157.5t91.5 107.5q33 23 69.5 24t73.5 -1q8 14 25 14q51 0 90 -25.5t65.5 -65.5t40.5 -87t14 -92 q0 -76 -22.5 -148.5t-66.5 -127t-108.5 -81t-150.5 -8.5q-2 -10 -2 -17v-18q0 -57 6.5 -115.5t28.5 -111.5q10 2 21.5 6t21.5 8h-2q51 16 88 51t78 64v-2q37 27 67.5 53.5t65.5 57.5q10 4 21.5 6t21.5 2zM494 600q0 4 7 21.5t7 23.5v19v4h-2q-2 0 -3 -6.5t-1 -8.5 q-2 -10 -5 -22.5t-3 -22.5v-4v-2v-2v-2v2zM444 590l2 2q6 10 5 14q10 29 14 55.5t8 57.5v35q0 8 -3 28.5t-7 20.5v-8l2 -21v-45l-4 -57q0 -8 -2 -16.5t-4 -16.5l-4 -23l-7 -18v-8v-2v2zM238 449q2 0 12 2t10 4q39 14 66.5 42.5t46 65.5t27 78t8.5 80q0 41 -6.5 79t-14.5 79 q-37 -43 -62.5 -95.5t-43 -109t-29.5 -114.5t-21 -111h7zM209 125q-4 4 -10 4l8 -4h2zM215 819q-25 -23 -34 -53.5t-14 -64t-9 -65.5t-19 -52q-4 -43 -10 -86t-6 -88l2 -19v-2v2l2 6v25v4l4 35l8 67q4 29 9.5 64t15.5 63q-2 6 3 25.5t11 41t12.5 42t10.5 29.5q4 8 10 13 t6 13h-2zM229 940q-41 -18 -72.5 -85t-53 -147.5t-33 -159.5t-11.5 -124q0 -41 7 -80l2 2q-12 33 -5 102.5t24 146.5t40 147.5t39 109.5q8 18 17.5 36.5t25.5 33.5q4 4 13 6t9 10zM420 14h-4h4zM477 174q-6 -6 -12 -10q-4 -2 -8 -6l-4 -4l-7 -9v-2h5l18 19l8 10v2zM520 258 v-2l-4 -2l-10 -8l-2 -2l-17 -15l-30 -28l-27 -23q-12 -10 -24.5 -21.5t-26.5 -21.5q-10 -8 -24.5 -15t-26.5 -14l-25 -8v-2l10 4q8 -4 25.5 5.5t37 22.5t36 25.5t22.5 18.5v2q25 16 44.5 39t41.5 43v2zM313 1223q0 -18 -9 -37t-23.5 -33t-33 -23.5t-36.5 -7.5 q-27 2 -59.5 10.5t-61.5 23.5t-48 39t-19 56q0 23 12 52.5t35 35.5q16 35 53 35q27 0 59.5 -13t61 -34.5t49 -48t20.5 -55.5zM649 1223q0 -18 -9 -37t-23.5 -33t-33 -23.5t-36.5 -7.5q-27 2 -59.5 10.5t-61.5 23.5t-48.5 39t-19.5 56q0 23 12.5 52.5t35.5 35.5q16 35 53 35 q27 0 59.5 -13t61 -34.5t49 -48t20.5 -55.5z" />
<glyph unicode="&#xec;" horiz-adv-x="266" d="M233 23q-4 -2 -14 -5.5t-14 -3.5q-41 0 -80 17q-4 2 -17.5 9t-17.5 5q-14 8 -28.5 17.5t-26.5 19.5l-17 27q-10 70 -6 145.5t4 146.5q0 92 -7 183.5t-7 183.5l2 27v-13q0 12 1 40t4 57.5t7 54t11 35.5l20 -15v9l12 16h9q27 0 66.5 -19.5t51.5 -44.5q18 -37 29.5 -118.5 t17 -177t7.5 -185.5t2 -139q0 -66 4 -134.5t-6 -129.5zM80 215q0 145 -2 287.5t-2 288.5l-2 8q-10 -53 -11.5 -107.5t-1.5 -107.5q0 -102 2.5 -208t14.5 -206l2 2v43zM102 633q-6 0 -6 -4q0 -2 2 -2q-2 -10 -5 -20.5t-3 -20.5v-37l8 -39l4 -12h2v2l-2 8q-6 31 -2 62.5 t4 60.5zM-37 1456v2v-2zM299 1157q0 -12 -11.5 -15t-19.5 -3q-18 0 -39.5 5t-43 14t-40 21.5t-28.5 26.5q-14 20 -40 55t-51.5 72t-44 71t-18.5 52q0 4 4 12l39 2q18 -8 31.5 -16t30.5 -20q2 -2 8 -8.5t2 -0.5q10 -10 20.5 -19t20.5 -20v-2q8 -6 37.5 -38.5t61.5 -71.5 t56.5 -74t24.5 -43zM147 1223q0 4 -11 16t-13 16q-23 33 -43.5 66t-42.5 65q-8 10 -13.5 22.5t-13.5 23.5q-6 6 -4 6v-11q0 -14 16.5 -42.5t38 -59.5t43 -58.5t33.5 -39.5q4 -2 5 -4t5 -2v2z" />
<glyph unicode="&#xed;" horiz-adv-x="266" d="M233 23q-4 -2 -14 -5.5t-14 -3.5q-41 0 -80 17q-4 2 -17.5 9t-17.5 5q-14 8 -28.5 17.5t-26.5 19.5l-17 27q-10 70 -6 145.5t4 146.5q0 92 -7 183.5t-7 183.5l2 27v-13q0 12 1 40t4 57.5t7 54t11 35.5l20 -15v9l12 16h9q27 0 66.5 -19.5t51.5 -44.5q18 -37 29.5 -118.5 t17 -177t7.5 -185.5t2 -139q0 -66 4 -134.5t-6 -129.5zM80 215q0 145 -2 287.5t-2 288.5l-2 8q-10 -53 -11.5 -107.5t-1.5 -107.5q0 -102 2.5 -208t14.5 -206l2 2v43zM102 633q-6 0 -6 -4q0 -2 2 -2q-2 -10 -5 -20.5t-3 -20.5v-37l8 -39l4 -12h2v2l-2 8q-6 31 -2 62.5 t4 60.5zM291 1323q0 -2 -30 -30.5t-68.5 -64.5t-77.5 -70t-56 -46h-24q-6 0 -16.5 4t-21.5 9t-19.5 12.5t-8.5 13.5q0 2 6.5 10t14.5 18.5t16 18.5l10 10q6 6 29 34t50.5 58.5t53 55t33.5 24.5t26.5 -5t37 -12t32 -17.5t13.5 -22.5z" />
<glyph unicode="&#xee;" horiz-adv-x="266" d="M233 23q-4 -2 -14 -5.5t-14 -3.5q-41 0 -80 17q-4 2 -17.5 9t-17.5 5q-14 8 -28.5 17.5t-26.5 19.5l-17 27q-10 70 -6 145.5t4 146.5q0 92 -7 183.5t-7 183.5l2 27v-13q0 12 1 40t4 57.5t7 54t11 35.5l20 -15v9l12 16h9q27 0 66.5 -19.5t51.5 -44.5q18 -37 29.5 -118.5 t17 -177t7.5 -185.5t2 -139q0 -66 4 -134.5t-6 -129.5zM80 215q0 145 -2 287.5t-2 288.5l-2 8q-10 -53 -11.5 -107.5t-1.5 -107.5q0 -102 2.5 -208t14.5 -206l2 2v43zM102 633q-6 0 -6 -4q0 -2 2 -2q-2 -10 -5 -20.5t-3 -20.5v-37l8 -39l4 -12h2v2l-2 8q-6 31 -2 62.5 t4 60.5zM377 1155q-12 -16 -29 -12q-16 4 -31.5 8t-31.5 12h-2q2 -2 6 -2t-2 1t-11 3l-18 11q-16 10 -31.5 20t-25.5 27q-4 2 -8 6q-14 12 -33 21.5t-29 25.5q-35 -25 -66.5 -61.5t-54.5 -75.5q-4 -2 -12 -5.5t-12 -3.5q-31 0 -57.5 14.5t-41.5 43.5q2 16 18.5 47t36 61.5 t41 54t35.5 23.5q51 0 101.5 -18.5t97.5 -46t89 -61.5t77 -66zM12 1341q-2 0 -5 -3t-1 -5q-16 -16 -26.5 -37.5t-30.5 -33.5q-4 -14 -13.5 -29.5t-9.5 -30.5l2 -2q0 2 2 4q0 2 1 2t1 2q10 18 19.5 37t21.5 35q-2 2 1 5t6 3q2 8 15 25.5t19 21.5q0 2 1 3t1 3h-4z" />
<glyph unicode="&#xef;" horiz-adv-x="266" d="M233 23q-4 -2 -14 -5.5t-14 -3.5q-41 0 -80 17q-4 2 -17.5 9t-17.5 5q-14 8 -28.5 17.5t-26.5 19.5l-17 27q-10 70 -6 145.5t4 146.5q0 92 -7 183.5t-7 183.5l2 27v-13q0 12 1 40t4 57.5t7 54t11 35.5l20 -15v9l12 16h9q27 0 66.5 -19.5t51.5 -44.5q18 -37 29.5 -118.5 t17 -177t7.5 -185.5t2 -139q0 -66 4 -134.5t-6 -129.5zM80 215q0 145 -2 287.5t-2 288.5l-2 8q-10 -53 -11.5 -107.5t-1.5 -107.5q0 -102 2.5 -208t14.5 -206l2 2v43zM102 633q-6 0 -6 -4q0 -2 2 -2q-2 -10 -5 -20.5t-3 -20.5v-37l8 -39l4 -12h2v2l-2 8q-6 31 -2 62.5 t4 60.5zM111 1223q0 -18 -9.5 -37t-24 -33t-32.5 -23.5t-37 -7.5q-27 2 -59.5 10.5t-61 23.5t-48 39t-19.5 56q0 23 12 52.5t35 35.5q16 35 53 35q27 0 59.5 -13t61.5 -34.5t49.5 -48t20.5 -55.5zM446 1223q0 -18 -9 -37t-23.5 -33t-33 -23.5t-36.5 -7.5q-27 2 -59.5 10.5 t-61 23.5t-48 39t-19.5 56q0 23 12 52.5t35 35.5q16 35 53 35q27 0 59.5 -13t61.5 -34.5t49 -48t20 -55.5z" />
<glyph unicode="&#xf1;" horiz-adv-x="811" d="M788 555v-60t-1 -93.5t-5 -105.5t-10 -99t-15 -74t-24 -29q-51 0 -102 22.5t-80 63.5q-4 12 -5 26.5t-1 29.5q0 104 9 205.5t9 205.5v61.5t-1 94.5t-3 91t-4 52q-57 -27 -95 -82t-61.5 -128.5t-38 -156.5t-28 -165t-27.5 -155t-37 -124q6 -12 6 -24q0 -14 -13 -17.5 t-23 -3.5q-90 0 -138.5 43t-71 108.5t-25.5 140.5t-3 140q0 57 5 135t16.5 156t28 149.5t40.5 120.5l25 9q18 -2 39.5 -9.5t40 -20.5t28.5 -30.5t4 -42.5q4 -10 8.5 -31.5t6.5 -46t3 -46t1 -34.5q0 -78 -6.5 -153.5t-12.5 -151.5q8 63 22.5 136t41 142.5t68.5 126t110 85.5 q2 2 12.5 5t22.5 7t21.5 6t13.5 2q14 12 36 13q10 0 30 -6.5t40.5 -15.5t34.5 -20.5t14 -21.5q0 -2 2 -2t0 -2q8 -10 13.5 -21.5t11.5 -21.5v2q47 -86 57 -186.5t10 -198.5zM51 745q-16 -59 -22 -125.5t-6 -132.5v-61q0 -41 7 -79t17 -75v9q0 41 -8 84t-8 86q0 70 13 149 t7 145zM104 246q-10 55 -14 107.5t-4 107.5q0 90 2 177t2 177q0 23 2 46.5t6 45.5l4 23l2 8v-2q-16 -51 -23 -110.5t-8 -120t1 -121t2 -113.5q0 -55 5 -114.5t23 -112.5v2zM440 965v-2l-4 -2l-10 -9l-2 -2l-12 -14l-27 -31q-14 -16 -23.5 -29.5t-19.5 -31.5 q-12 -23 -20.5 -46.5t-8.5 -47.5v-2l2 10l2 2q2 23 15.5 51.5t32 57t38 53t37.5 41.5v2zM639 586q0 14 -1 47t-4 70.5t-7 71.5t-11 48q6 -59 10.5 -117.5t4.5 -117.5q0 -74 -9.5 -145.5t-13.5 -145.5q12 74 21.5 144.5t9.5 144.5zM670 606l-2 -6v-119l2 -4v2v8q4 16 4 35v35 l-2 39q0 2 1 7t-3 5v-2zM637 1225q-4 -35 -34 -52.5t-60 -17.5q-61 0 -121 22.5t-117 22.5q-51 0 -84 -33l-2 -6l-31 -33h-12q-8 0 -17 7.5t-14 11.5l-2 12q8 27 14.5 45.5t15.5 29.5t26.5 15t52.5 4q59 0 113.5 -21.5t111.5 -21.5q33 0 56.5 12.5t48.5 30.5h14l22 -10z M231 1241l-4 -2l-4 -2l-6 -4l-14 -8q-14 -8 -21 -19q-4 -6 -9 -15t-5 -15q0 -2 4 -2l2 4q0 2 2 4q4 6 7 11t7 9l19 17l10 10l8 6l4 2l2 2v2q2 2 3 0h-5zM573 1229l-2 -2q0 -2 -9 -7.5t-19.5 -11.5t-19.5 -12t-9 -8h4q8 0 32.5 13t24.5 24v4h-2z" />
<glyph unicode="&#xf2;" horiz-adv-x="565" d="M119 938q0 -2 -2 -2q2 0 2 2zM541 432q0 -53 -9.5 -111.5t-33 -107.5t-65.5 -82t-107 -33q-154 0 -240 93.5t-86 242.5v23v-11q2 45 9 116t21.5 143.5t37 137t55.5 97.5l-4 -2q10 6 21.5 8t23.5 4q0 6 -1 13.5t3 13.5q20 20 41 29q6 0 11 1t11 1q94 0 155.5 -63.5 t95.5 -154t47.5 -188.5t13.5 -170zM133 672q-2 0 -2 -3t-2 -5q-16 -43 -13 -86t-7 -84l2 -9v2l2 13q4 25 5 50t5 50l2 2q-2 18 4 35.5t6 34.5h-2zM137 864q-8 -20 -8 -30q-16 -41 -27.5 -91.5t-19.5 -103.5t-12 -106.5t-4 -96.5q0 -51 5 -106.5t21 -102.5v2q-10 51 -13 99.5 t-3 99.5q0 47 10 98.5t6 96.5l7 37q7 38 15.5 82t15.5 82t7 40zM178 991q0 -2 -2 -2q2 0 2 2zM182 993l-2 -2zM369 569q0 88 -21.5 177.5t-60.5 166.5l-17 -6h-28q2 0 2 -4l8 -20v-11l-2 2q0 -102 -14.5 -203.5t-14.5 -205.5q0 -57 3 -114.5t18 -112.5q12 4 23 13t20 19h2 q25 27 40 65t24 78t13.5 80.5t4.5 75.5zM440 526q0 45 -10 97l-10 36q-2 0 -2 3q0 2 -2 2l2 -17q2 4 3 0t2 -11t2 -16.5t1 -15.5q4 -20 4 -33v-84q0 -14 -3 -34.5t-7 -34.5q2 -10 -6 -37t-18.5 -57.5t-22 -58t-15.5 -38.5h2q2 0 6.5 12.5t6.5 16.5q27 72 47 132t20 138z M444 338l-4 -8q-4 -8 -9 -19.5t-8 -21.5t-3 -13h2l6 15q4 6 11 20.5t7 18.5v6zM111 1456v2v-2zM446 1157q0 -12 -11 -15t-19 -3q-18 0 -40 5t-43.5 14t-40 21.5t-28.5 26.5q-14 20 -39.5 55t-51.5 72t-44 71t-18 52q0 4 4 12l39 2q18 -8 31.5 -16t29.5 -20q2 -2 8 -8.5 t2 -0.5q10 -10 20.5 -19t20.5 -20v-2q8 -6 38 -38.5t61.5 -71.5t56 -74t24.5 -43zM295 1223q0 4 -11.5 16t-13.5 16q-23 33 -43 66t-43 65q-8 10 -13 22.5t-13 23.5q-6 6 -4 6v-11q0 -14 16 -42.5t37.5 -59.5t43 -58.5t34.5 -39.5q4 -2 5 -4t5 -2v2z" />
<glyph unicode="&#xf3;" horiz-adv-x="565" d="M119 938q0 -2 -2 -2q2 0 2 2zM541 432q0 -53 -9.5 -111.5t-33 -107.5t-65.5 -82t-107 -33q-154 0 -240 93.5t-86 242.5v23v-11q2 45 9 116t21.5 143.5t37 137t55.5 97.5l-4 -2q10 6 21.5 8t23.5 4q0 6 -1 13.5t3 13.5q20 20 41 29q6 0 11 1t11 1q94 0 155.5 -63.5 t95.5 -154t47.5 -188.5t13.5 -170zM133 672q-2 0 -2 -3t-2 -5q-16 -43 -13 -86t-7 -84l2 -9v2l2 13q4 25 5 50t5 50l2 2q-2 18 4 35.5t6 34.5h-2zM137 864q-8 -20 -8 -30q-16 -41 -27.5 -91.5t-19.5 -103.5t-12 -106.5t-4 -96.5q0 -51 5 -106.5t21 -102.5v2q-10 51 -13 99.5 t-3 99.5q0 47 10 98.5t6 96.5l7 37q7 38 15.5 82t15.5 82t7 40zM178 991q0 -2 -2 -2q2 0 2 2zM182 993l-2 -2zM369 569q0 88 -21.5 177.5t-60.5 166.5l-17 -6h-28q2 0 2 -4l8 -20v-11l-2 2q0 -102 -14.5 -203.5t-14.5 -205.5q0 -57 3 -114.5t18 -112.5q12 4 23 13t20 19h2 q25 27 40 65t24 78t13.5 80.5t4.5 75.5zM440 526q0 45 -10 97l-10 36q-2 0 -2 3q0 2 -2 2l2 -17q2 4 3 0t2 -11t2 -16.5t1 -15.5q4 -20 4 -33v-84q0 -14 -3 -34.5t-7 -34.5q2 -10 -6 -37t-18.5 -57.5t-22 -58t-15.5 -38.5h2q2 0 6.5 12.5t6.5 16.5q27 72 47 132t20 138z M444 338l-4 -8q-4 -8 -9 -19.5t-8 -21.5t-3 -13h2l6 15q4 6 11 20.5t7 18.5v6zM438 1323q0 -2 -29.5 -30.5t-68.5 -64.5t-78 -70t-55 -46h-25q-6 0 -16 4t-21.5 9t-19.5 12.5t-8 13.5q0 2 6 10t14 18.5t16.5 18.5t10.5 10q6 6 28.5 34t50 58.5t53.5 55t34 24.5t26.5 -5 t37 -12t31.5 -17.5t13 -22.5z" />
<glyph unicode="&#xf4;" horiz-adv-x="565" d="M119 938q0 -2 -2 -2q2 0 2 2zM541 432q0 -53 -9.5 -111.5t-33 -107.5t-65.5 -82t-107 -33q-154 0 -240 93.5t-86 242.5v23v-11q2 45 9 116t21.5 143.5t37 137t55.5 97.5l-4 -2q10 6 21.5 8t23.5 4q0 6 -1 13.5t3 13.5q20 20 41 29q6 0 11 1t11 1q94 0 155.5 -63.5 t95.5 -154t47.5 -188.5t13.5 -170zM133 672q-2 0 -2 -3t-2 -5q-16 -43 -13 -86t-7 -84l2 -9v2l2 13q4 25 5 50t5 50l2 2q-2 18 4 35.5t6 34.5h-2zM137 864q-8 -20 -8 -30q-16 -41 -27.5 -91.5t-19.5 -103.5t-12 -106.5t-4 -96.5q0 -51 5 -106.5t21 -102.5v2q-10 51 -13 99.5 t-3 99.5q0 47 10 98.5t6 96.5l7 37q7 38 15.5 82t15.5 82t7 40zM178 991q0 -2 -2 -2q2 0 2 2zM182 993l-2 -2zM369 569q0 88 -21.5 177.5t-60.5 166.5l-17 -6h-28q2 0 2 -4l8 -20v-11l-2 2q0 -102 -14.5 -203.5t-14.5 -205.5q0 -57 3 -114.5t18 -112.5q12 4 23 13t20 19h2 q25 27 40 65t24 78t13.5 80.5t4.5 75.5zM440 526q0 45 -10 97l-10 36q-2 0 -2 3q0 2 -2 2l2 -17q2 4 3 0t2 -11t2 -16.5t1 -15.5q4 -20 4 -33v-84q0 -14 -3 -34.5t-7 -34.5q2 -10 -6 -37t-18.5 -57.5t-22 -58t-15.5 -38.5h2q2 0 6.5 12.5t6.5 16.5q27 72 47 132t20 138z M444 338l-4 -8q-4 -8 -9 -19.5t-8 -21.5t-3 -13h2l6 15q4 6 11 20.5t7 18.5v6zM524 1155q-12 -16 -28 -12t-31.5 8t-32.5 12h-2q2 -2 6 -2t-2 1t-10 3l-18 11l-32 20t-26 27q-4 2 -8 6q-14 12 -32.5 21.5t-28.5 25.5q-35 -25 -67 -61.5t-54 -75.5q-4 -2 -12.5 -5.5 t-12.5 -3.5q-31 0 -57.5 14.5t-40.5 43.5q2 16 18.5 47t36 61.5t41 54t35.5 23.5q51 0 101 -18.5t97.5 -46t89.5 -61.5t76 -66zM160 1341q-2 0 -5 -3t-1 -5q-16 -16 -26.5 -37.5t-31.5 -33.5q-4 -14 -13 -29.5t-9 -30.5l2 -2q0 2 2 4q0 2 1 2t1 2q10 18 19.5 37t21.5 35 q-2 2 1 5t5 3q2 8 15.5 25.5t19.5 21.5q0 2 1 3t1 3h-4z" />
<glyph unicode="&#xf5;" horiz-adv-x="565" d="M119 938q0 -2 -2 -2q2 0 2 2zM541 432q0 -53 -9.5 -111.5t-33 -107.5t-65.5 -82t-107 -33q-154 0 -240 93.5t-86 242.5v23v-11q2 45 9 116t21.5 143.5t37 137t55.5 97.5l-4 -2q10 6 21.5 8t23.5 4q0 6 -1 13.5t3 13.5q20 20 41 29q6 0 11 1t11 1q94 0 155.5 -63.5 t95.5 -154t47.5 -188.5t13.5 -170zM133 672q-2 0 -2 -3t-2 -5q-16 -43 -13 -86t-7 -84l2 -9v2l2 13q4 25 5 50t5 50l2 2q-2 18 4 35.5t6 34.5h-2zM137 864q-8 -20 -8 -30q-16 -41 -27.5 -91.5t-19.5 -103.5t-12 -106.5t-4 -96.5q0 -51 5 -106.5t21 -102.5v2q-10 51 -13 99.5 t-3 99.5q0 47 10 98.5t6 96.5l7 37q7 38 15.5 82t15.5 82t7 40zM178 991q0 -2 -2 -2q2 0 2 2zM182 993l-2 -2zM369 569q0 88 -21.5 177.5t-60.5 166.5l-17 -6h-28q2 0 2 -4l8 -20v-11l-2 2q0 -102 -14.5 -203.5t-14.5 -205.5q0 -57 3 -114.5t18 -112.5q12 4 23 13t20 19h2 q25 27 40 65t24 78t13.5 80.5t4.5 75.5zM440 526q0 45 -10 97l-10 36q-2 0 -2 3q0 2 -2 2l2 -17q2 4 3 0t2 -11t2 -16.5t1 -15.5q4 -20 4 -33v-84q0 -14 -3 -34.5t-7 -34.5q2 -10 -6 -37t-18.5 -57.5t-22 -58t-15.5 -38.5h2q2 0 6.5 12.5t6.5 16.5q27 72 47 132t20 138z M444 338l-4 -8q-4 -8 -9 -19.5t-8 -21.5t-3 -13h2l6 15q4 6 11 20.5t7 18.5v6zM514 1225q-4 -35 -33.5 -52.5t-60.5 -17.5q-61 0 -120.5 22.5t-117.5 22.5q-51 0 -84 -33l-2 -6l-30 -33h-13q-8 0 -17 7.5t-13 11.5l-3 12q8 27 14.5 45.5t15.5 29.5t26.5 15t52.5 4 q59 0 113.5 -21.5t111.5 -21.5q33 0 56.5 12.5t48.5 30.5h14l23 -10zM109 1241l-5 -2l-4 -2l-6 -4l-14 -8q-14 -8 -21 -19q-4 -6 -9 -15t-5 -15q0 -2 4 -2l2 4q0 2 2 4q4 6 7 11t8 9l18 17l10 10l8 6l5 2l2 2v2q2 2 2 0h-4zM451 1229l-2 -2q0 -2 -9.5 -7.5t-19.5 -11.5 t-19.5 -12t-9.5 -8h4q8 0 33 13t25 24v4h-2z" />
</font>
</defs>
</svg>
